<svg id="Layer_1" data-name="Layer 1" xmlns="http://www.w3.org/2000/svg" viewBox="0 0 700 550"><title>christmas door</title><path d="M230.00388,488.77109c-34.626-16.484-73.688-55.703-71.718-96.805,2.175-45.379,52.687-58.003,49.307-100.627-2.401-30.273-28.693-34.175-39.244-67.421-15.057-47.436,17.824-104.545,48.301-133.834,76.005-73.042,225.631-58.172,267.667,6.039,41.518,63.418-22.487,174.092,6.039,188.171,17.059,8.421,40.852-30.718,63.394-22.137,28.421,10.819,36.467,90.488,6.638,149.999-5.136,10.246-27.016,51.06-74.145,72.839-28.064,12.968-39.345,7.294-133.747,8.604-89.075,1.237-98.569,6.561-122.492-4.828" fill="#edf2fa"/><polyline points="247.575 479.661 246.251 116.537 329.292 116.678 377.411 115.807 462.398 117.063 464.126 480.472" fill="#843f1d"/><polyline points="253.591 479.688 252.943 141.267 332.192 142.439 377.021 142.212 455.723 143.376 457.026 480.367" fill="#d27c2a"/><polygon points="272.778 167.675 437.656 168.036 436.041 471.704 272.102 472.141 272.778 167.675" fill="#9f5325"/><polygon points="279.743 177.277 428.402 179.475 426.94 463.155 281.52 463.674 279.743 177.277" fill="#9f5325"/><rect x="360.53938" y="314.53039" width="54.89999" height="137.80901" fill="#fff"/><polygon points="331.574 87.364 372.018 87.962 361.208 130.559 339.245 130.234 331.574 87.364" fill="#d27c2a"/><path d="M241.53373,451.1198h-.00781L164.19,449.97625a.5.5,0,0,1,.00781-1h.00782l77.33593,1.14355a.5.5,0,0,1-.00781,1Z" fill="#afc4db"/><path d="M481.57319,506.9283l-253.179.234,1.61-18.391a9.999,9.999,0,0,1,10.008-9.128l230.599,1.076a9.99919,9.99919,0,0,1,9.935,9.391Z" fill="#843f1d"/><polygon points="337.94 94.295 365.449 94.701 358.096 123.677 343.158 123.455 337.94 94.295" fill="#9f5325"/><rect x="258.31653" y="146.80388" width="75.81037" height="1.00001" transform="translate(-0.57314 1.15823) rotate(-0.22381)" fill="#4c4c4b"/><path d="M243.90775,247.4782a.50227.50227,0,0,1-.40722-.209l-7.14063-9.99707a.50183.50183,0,0,1-.09277-.29883l1.91894-129.75488a.5.5,0,0,1,.5-.49219h.00782l83.25586,1.23047a.5.5,0,0,1-.00782,1h-.00781l-82.75586-1.22266-1.90918,129.08985,7.0459,9.86328a.49984.49984,0,0,1-.40723.791Z" fill="#afc4db"/><path d="M466.83354,236.09051a.50013.50013,0,0,1-.48145-.63477l3.832-13.72949,1.63379-110.59766L380.49955,109.779a.5.5,0,0,1,.00781-1h.00782l91.81836,1.35743a.5004.5004,0,0,1,.49218.50781l-1.64257,111.16211a.51153.51153,0,0,1-.01856.12695l-3.84961,13.792A.50016.50016,0,0,1,466.83354,236.09051Z" fill="#afc4db"/><polygon points="260.317 477.468 257.805 145.904 273.184 167.384 272.372 167.966 258.829 149.052 261.317 477.461 260.317 477.468" fill="#4c4c4b"/><polygon points="438.066 168.322 437.246 167.752 450.047 149.343 382.123 148.34 382.138 147.34 451.942 148.371 438.066 168.322" fill="#4c4c4b"/><path d="M246.82279,273.735H246.815l-30.26562-.44727a.5.5,0,0,1,.00781-1h.00781l30.26563.44727a.5.5,0,0,1-.00782,1Z" fill="#afc4db"/><path d="M247.04447,334.57391h-.00781l-20.18262-.29786a.5.5,0,0,1,.00782-1h.00781l20.18262.29786a.5.5,0,0,1-.00782,1Z" fill="#afc4db"/><path d="M484.44,259.7409h-.00781l-17.30762-.25586a.5.5,0,0,1,.00781-1h.00782l17.30761.25586a.5.5,0,0,1-.00781,1Z" fill="#afc4db"/><path d="M512.67338,334.34832h-.00781l-46.36914-.68555a.5.5,0,0,1,.00781-1h.00781l46.36914.68555a.5.5,0,0,1-.00781,1Z" fill="#afc4db"/><path d="M546.3765,334.84637h-.00781l-19.85742-.293a.5.5,0,0,1,.00781-1h.00782l19.85742.293a.5.5,0,0,1-.00782,1Z" fill="#afc4db"/><path d="M502.30522,382.41863h-.00782l-36.71386-.543a.5.5,0,0,1,.00781-1h.00781l36.71387.543a.5.5,0,0,1-.00781,1Z" fill="#afc4db"/><path d="M197.51713,211.57684h-.00781l-76.27246-1.12793a.5.5,0,0,1,.00781-1h.00781l76.27246,1.12793a.5.5,0,0,1-.00781,1Z" fill="#afc4db"/><rect x="343.91264" y="253.10019" width="1" height="44.42986" transform="translate(-0.76115 0.95489) rotate(-0.15868)" fill="#4c4c4b"/><path d="M403.94727,336.43709c11.581.172,11.866-17.826.267-17.998-11.581-.171-11.867,17.827-.267,17.998" fill="#843f1d"/><rect x="282.85253" y="314.03088" width="331.38389" height="1.00012" transform="translate(127.04427 758.10672) rotate(-89.10483)" fill="#4c4c4b"/><rect x="292.11738" y="314.53039" width="54.89999" height="137.80901" fill="#fff"/><rect x="292.11738" y="191.23339" width="54.89999" height="104.198" fill="#fff"/><rect x="360.53938" y="191.23339" width="54.89999" height="104.198" fill="#fff"/><rect x="298.74262" y="341.18382" width="30.26874" height="1.00087" transform="translate(-150.09091 342.50922) rotate(-47.53076)" fill="#cfcfce"/><rect x="301.13618" y="357.76195" width="30.26874" height="1.00087" transform="translate(-161.54216 349.65948) rotate(-47.53076)" fill="#cfcfce"/><rect x="371.65766" y="400.87035" width="30.26874" height="1.00087" transform="translate(-170.43485 415.6808) rotate(-47.53076)" fill="#cfcfce"/><rect x="374.05219" y="417.44847" width="30.26874" height="1.00087" transform="translate(-181.88578 422.83177) rotate(-47.53076)" fill="#cfcfce"/><rect x="298.74298" y="205.97923" width="30.26802" height="1.00087" transform="translate(-50.3586 298.594) rotate(-47.53076)" fill="#cfcfce"/><rect x="301.13654" y="222.55736" width="30.26802" height="1.00087" transform="translate(-61.80985 305.74425) rotate(-47.53076)" fill="#cfcfce"/><rect x="371.65802" y="265.66576" width="30.26802" height="1.00087" transform="translate(-70.70255 371.76557) rotate(-47.53076)" fill="#cfcfce"/><rect x="374.05255" y="281.74483" width="30.26802" height="1.99898" transform="translate(-82.14761 378.9453) rotate(-47.53426)" fill="#cfcfce"/><path d="M353.023,214.12771c-28.637-.424-52.214,23.597-52.659,53.652-.444,30.055,22.412,54.763,51.05,55.186,28.639.424,52.216-23.597,52.66-53.653.445-30.054-22.412-54.762-51.051-55.185m.144,83.742c-16.186-.239-29.116-13.084-28.886-28.691.232-15.604,13.536-28.061,29.722-27.822,16.181.24,29.115,13.085,28.885,28.689-.231,15.606-13.54,28.063-29.721,27.824" fill="#82c56d"/><path d="M379.10639,243.3384c-20.149-15.901-28.699-1.823-28.699-1.823l-.003.008a30.57212,30.57212,0,0,1,3.598-.166c16.181.239,29.116,13.085,28.885,28.688-.191,12.93-9.363,23.69-21.704,26.867.044-.002.085-.001.13-.003,35.03-1.641,37.943-37.669,17.793-53.571" fill="#4da258"/><path d="M324.28117,269.1783c-7.022-37.219,8.238-50.206,8.238-50.206-.255-.147-.506-.279-.759-.419-18.198,8.237-31.069,27.095-31.396,49.227-.418,28.262,19.77,51.794,45.994,54.852,3.762-16.902-9.43-16.866-17.905-38.511a27.39528,27.39528,0,0,1-4.172-14.943" fill="#4da258"/><path d="M333.93067,248.63241a1.63614,1.63614,0,0,0,.554.002,2.056,2.056,0,0,0,.491-.124,2.94966,2.94966,0,0,0,.812-.463,4.36467,4.36467,0,0,0,.655-.62,6.69949,6.69949,0,0,0,.563-.704,21.75222,21.75222,0,0,0,1.827-3.255c1.089-2.302,2.044-4.742,3.035-7.181q1.46851-3.669,3.021-7.374l.199-.459.243-.527c.173-.366.334-.734.524-1.097.368-.724.767-1.442,1.187-2.155q.648-1.059,1.379-2.091c.498-.681,1.023-1.348,1.583-2,.281-.325.569-.643.872-.955q.444-.471.921-.923c.631-.603,1.312-1.168,2.004-1.718a23.6061,23.6061,0,0,1,4.607-2.747,20.83113,20.83113,0,0,1,10.452-1.755,19.09247,19.09247,0,0,1,9.451,3.524,14.69789,14.69789,0,0,1,1.89,1.645,11.62358,11.62358,0,0,1,1.566,1.973,7.59874,7.59874,0,0,1,1.015,2.339,3.23646,3.23646,0,0,1-.272,2.428,2.98264,2.98264,0,0,0-1.199-1.579,7.62655,7.62655,0,0,0-1.661-.869,14.53491,14.53491,0,0,0-1.783-.54q-.912-.198-1.819-.308a19.64953,19.64953,0,0,0-6.888.406,17.03333,17.03333,0,0,0-5.623,2.506c-.411.289-.821.574-1.207.902-.396.308-.774.654-1.148,1-.373.356-.74.717-1.092,1.111-.181.188-.358.383-.53.588-.178.196-.343.411-.515.618-.345.413-.674.853-.998,1.302-.329.448-.645.913-.953,1.393q-.471.717-.911,1.475c-.156.245-.295.509-.443.763l-.502.886a50.5841,50.5841,0,0,1-5.015,7.343,36.28385,36.28385,0,0,1-3.132,3.361,26.6858,26.6858,0,0,1-3.723,2.97,14.95891,14.95891,0,0,1-4.596,2.091,9.50376,9.50376,0,0,1-1.321.207,6.27594,6.27594,0,0,1-1.362-.059,3.95747,3.95747,0,0,1-1.274-.441,2.16633,2.16633,0,0,1-.884-.889" fill="#f15b43"/><path d="M302.14057,254.4283a6.217,6.217,0,0,0,.882,2.703,4.71539,4.71539,0,0,0,.712.901,6.23606,6.23606,0,0,0,.773.675,13.09962,13.09962,0,0,0,1.668,1.012c.566.303,1.188.587,1.812.87,1.251.576,2.593,1.142,3.993,1.748.357.149.711.296,1.057.459.366.147.723.304,1.077.47.364.152.731.316,1.092.481l.586.271.638.302a34.21523,34.21523,0,0,1,9.629,6.671,21.8599,21.8599,0,0,1,2.114,2.499,13.55843,13.55843,0,0,1,1.738,3.206,6.54749,6.54749,0,0,1,.275,4.053,4.53016,4.53016,0,0,1-.875,1.632,5.75984,5.75984,0,0,1-1.25,1.102,13.61245,13.61245,0,0,0-.427-1.486,3.222,3.222,0,0,0-.622-1.064,4.22686,4.22686,0,0,0-1.665-.94c-.603-.229-1.31-.459-2.032-.689l-2.267-.713c-1.547-.493-3.16-1.012-4.759-1.59-1.601-.582-3.207-1.216-4.801-1.913l-.597-.264-.304-.136-.343-.165c-.456-.224-.914-.436-1.362-.683q-.678-.372-1.342-.77c-.445-.276-.88-.575-1.314-.869a20.63386,20.63386,0,0,1-4.786-4.621,15.178,15.178,0,0,1-1.8-3.177,11.086,11.086,0,0,1-.85-3.783c-.124-2.648,1.171-5.36,3.35-6.192" fill="#f15b43"/><path d="M328.06837,283.47811l-.014-.021.007.026.007-.005" fill="#cf2633"/><path d="M321.04878,278.59139l2.267.713c.722.23,1.429.46,2.032.689a6.0278,6.0278,0,0,1,1.237.582,27.285,27.285,0,0,1-2.303-11.221,35.93483,35.93483,0,0,0-7.851-5.034l-.638-.302-.586-.271c-.361-.165-.728-.329-1.093-.481q-.5295-.249-1.076-.47c-.346-.163-.7-.31-1.057-.459-1.4-.606-2.743-1.172-3.994-1.748-.624-.283-1.246-.567-1.811-.87a13.09962,13.09962,0,0,1-1.668-1.012,6.16484,6.16484,0,0,1-.773-.676,4.678,4.678,0,0,1-.712-.9,6.2273,6.2273,0,0,1-.88-2.685,56.9722,56.9722,0,0,0-1.721,11.556,17.59908,17.59908,0,0,0,1.019,1.578,20.65546,20.65546,0,0,0,4.786,4.621c.433.294.869.593,1.314.869q.663.399,1.342.77c.448.247.906.459,1.362.683l.343.165.304.136.596.264c1.595.697,3.201,1.331,4.802,1.913,1.599.578,3.212,1.097,4.759,1.59" fill="#cf2633"/><path d="M317.11228,308.6578a7.50281,7.50281,0,0,0,2.153,2.682,3.09466,3.09466,0,0,0,1.159.511,3.01039,3.01039,0,0,0,1.029,0,9.66682,9.66682,0,0,0,2.082-.658c.757-.321,1.574-.721,2.408-1.173,1.679-.909,3.423-1.987,5.222-3.109,1.873-1.162,3.733-2.294,5.603-3.415,1.872-1.124,3.751-2.231,5.699-3.337,1.954-1.098,3.958-2.213,6.183-3.256,1.108-.523,2.274-1.025,3.518-1.472a21.55935,21.55935,0,0,1,3.977-1.049,12.77622,12.77622,0,0,1,4.27.013,8.872,8.872,0,0,1,3.757,1.587,17.71339,17.71339,0,0,0-3.226,1.701,17.101,17.101,0,0,0-2.409,2.061c-1.448,1.46-2.836,3.125-4.427,4.796a55.651,55.651,0,0,1-5.207,4.908,46.70248,46.70248,0,0,1-6.079,4.253,46.14351,46.14351,0,0,1-6.714,3.258,29.75911,29.75911,0,0,1-7.802,2,18.21316,18.21316,0,0,1-4.495-.056,10.6843,10.6843,0,0,1-4.763-1.826,7.01223,7.01223,0,0,1-1.843-1.973,6.27608,6.27608,0,0,1-.095-6.446" fill="#f15b43"/><path d="M339.33979,301.96828q-1.293.759-2.571,1.527c-1.87,1.121-3.731,2.253-5.604,3.415-1.799,1.122-3.543,2.201-5.221,3.11-.834.452-1.652.851-2.409,1.173a9.74556,9.74556,0,0,1-2.082.658,3.09241,3.09241,0,0,1-.656.038,51.24646,51.24646,0,0,0,10.609,6.549,32.74782,32.74782,0,0,0,4.705-1.48,45.97883,45.97883,0,0,0,6.713-3.258q1.64551-.969,3.206-2.065c-1.308-3.435-3.794-6.204-6.69-9.667" fill="#cf2633"/><path d="M378.52149,254.65868a15.20667,15.20667,0,0,0,.747,1.876c.265.589.56,1.15.85,1.696.591,1.09,1.229,2.109,1.874,3.095,1.3,1.967,2.649,3.802,4.056,5.597,1.388,1.799,2.834,3.549,4.286,5.31l2.194,2.645.638.8.643.836c.413.579.829,1.153,1.217,1.753a30.80931,30.80931,0,0,1,3.729,7.946,22.719,22.719,0,0,1,.866,9.188,17.90429,17.90429,0,0,1-1.19,4.61,14.7908,14.7908,0,0,1-2.469,4.044,11.586,11.586,0,0,1-3.627,2.839,7.96675,7.96675,0,0,1-4.233.89,11.61745,11.61745,0,0,0,2.805-6.369,15.74238,15.74238,0,0,0-.476-5.839,36.45173,36.45173,0,0,0-5.296-10.767c-.304-.44-.618-.882-.917-1.331l-.485-.659-.493-.696q-1.19852-1.635-2.254-3.392a36.26944,36.26944,0,0,1-3.435-7.533,26.767,26.767,0,0,1-1.343-8.366,18.27871,18.27871,0,0,1,.528-4.274,13.576,13.576,0,0,1,.682-2.047,7.39492,7.39492,0,0,1,1.103-1.852" fill="#f15b43"/><path d="M390.334,272.233c-1.451-1.761-2.897-3.512-4.285-5.311-1.407-1.794-2.756-3.629-4.057-5.596q-.447-.68253-.885-1.392a27.33572,27.33572,0,0,1,.103,19.151c.64,1.044,1.313,2.059,2.03,3.038l.493.696.486.659c.299.448.612.891.917,1.331q.378.56547.741,1.132a26.363,26.363,0,0,0,5.423-12.543Z" fill="#cf2633"/><path d="M378.47068,254.7242c.052.08.104.16.155.241-.035-.101-.071-.201-.104-.306-.019.021-.033.044-.051.065" fill="#cf2633"/><path d="M391.832,245.20559a4.683,4.683,0,1,1-4.613-4.752,4.68248,4.68248,0,0,1,4.613,4.752" fill="#f15b43"/><path d="M319.31739,290.55718a4.68353,4.68353,0,1,1-4.614-4.752,4.68419,4.68419,0,0,1,4.614,4.752" fill="#cf2633"/><path d="M381.37107,303.00051a4.683,4.683,0,1,1-4.613-4.752,4.68246,4.68246,0,0,1,4.613,4.752" fill="#f15b43"/><path d="M329.38279,240.9927a4.68352,4.68352,0,1,1-4.614-4.752,4.68359,4.68359,0,0,1,4.614,4.752" fill="#f15b43"/><path d="M322.64549,245.1285a60.69,60.69,0,0,1,1.298-8.822,4.67728,4.67728,0,0,0-1.298,8.822" fill="#cf2633"/><path d="M363.07517,313.7271a2.99182,2.99182,0,1,1-2.947-3.035,2.99141,2.99141,0,0,1,2.947,3.035" fill="#ffcc5d"/><path d="M398.45307,267.28469a2.99182,2.99182,0,1,1-2.947-3.036,2.99142,2.99142,0,0,1,2.947,3.036" fill="#ffcc5d"/><path d="M374.81739,233.98879a2.99183,2.99183,0,1,1-2.947-3.036,2.99143,2.99143,0,0,1,2.947,3.036" fill="#ffcc5d"/><path d="M343.2646,222.12261a2.99183,2.99183,0,1,1-2.947-3.035,2.99143,2.99143,0,0,1,2.947,3.035" fill="#ffcc5d"/><path d="M315.16407,254.62069a2.99183,2.99183,0,1,1-2.947-3.036,2.9912,2.9912,0,0,1,2.947,3.036" fill="#f39821"/><path d="M331.374,296.46731a2.99183,2.99183,0,1,1-2.947-3.036,2.99144,2.99144,0,0,1,2.947,3.036" fill="#f39821"/><path d="M381.56449,291.3033a1.36331,1.36331,0,0,0,0-2.725,1.36331,1.36331,0,0,0,0,2.725" fill="#e9d495"/><path d="M349.31449,316.80329a1.3628,1.3628,0,0,0,0-2.724,1.3628,1.3628,0,0,0,0,2.724" fill="#fdeba9"/><path d="M365.08109,304.1216a1.36331,1.36331,0,0,0,0-2.725,1.36331,1.36331,0,0,0,0,2.725" fill="#fdeba9"/><path d="M400.44239,276.76909a1.36331,1.36331,0,0,0,0-2.725,1.36331,1.36331,0,0,0,0,2.725" fill="#fdeba9"/><path d="M386.94917,260.0367a1.36331,1.36331,0,0,0,0-2.725,1.36331,1.36331,0,0,0,0,2.725" fill="#e9d495"/><path d="M395.76267,248.23589a1.36332,1.36332,0,0,0,0-2.725,1.36332,1.36332,0,0,0,0,2.725" fill="#fdeba9"/><path d="M382.42088,233.37551a1.36332,1.36332,0,0,0,0-2.725,1.36332,1.36332,0,0,0,0,2.725" fill="#fdeba9"/><path d="M335.59467,242.4468a1.36281,1.36281,0,0,0,0-2.724,1.36281,1.36281,0,0,0,0,2.724" fill="#fdeba9"/><path d="M332.43159,226.317a1.36281,1.36281,0,0,0,0-2.724,1.36281,1.36281,0,0,0,0,2.724" fill="#fdeba9"/><path d="M347.91407,218.8062a1.36331,1.36331,0,0,0,0-2.725,1.36331,1.36331,0,0,0,0,2.725" fill="#fdeba9"/><path d="M315.43849,237.46538a1.36331,1.36331,0,0,0,0-2.725,1.36331,1.36331,0,0,0,0,2.725" fill="#e9d495"/><path d="M318.59467,261.49959a1.36331,1.36331,0,0,0,0-2.725,1.36331,1.36331,0,0,0,0,2.725" fill="#e9d495"/><path d="M305.25587,277.02788a1.36331,1.36331,0,0,0,0-2.725,1.36331,1.36331,0,0,0,0,2.725" fill="#e9d495"/><path d="M322.4727,286.44491a1.36281,1.36281,0,0,0,0-2.724,1.36281,1.36281,0,0,0,0,2.724" fill="#e9d495"/><path d="M319.08689,305.05129a1.36281,1.36281,0,0,0,0-2.724,1.36281,1.36281,0,0,0,0,2.724" fill="#e9d495"/><path d="M338.13868,299.7857a1.36281,1.36281,0,0,0,0-2.724,1.36281,1.36281,0,0,0,0,2.724" fill="#fdeba9"/><path d="M374.96677,314.28368a1.36331,1.36331,0,0,0,0-2.725,1.36331,1.36331,0,0,0,0,2.725" fill="#fdeba9"/><path d="M361.22068,238.14208a1.36332,1.36332,0,0,0,0-2.725,1.36332,1.36332,0,0,0,0,2.725" fill="#e9d495"/><path d="M330.46189,219.1617l.448.667,1.61-.856a3.462,3.462,0,0,1,1.15-1.235q-1.63052.6585-3.208,1.424" fill="#4da258"/><path d="M384.2451,264.54549c-.767-1.043-1.519-2.109-2.253-3.22-.644-.986-1.283-2.005-1.874-3.094-.29-.546-.585-1.108-.85-1.697a15.21315,15.21315,0,0,1-.747-1.876,7.40979,7.40979,0,0,0-1.102,1.852,13.55524,13.55524,0,0,0-.683,2.048,18.31664,18.31664,0,0,0-.527,4.273,26.73791,26.73791,0,0,0,1.343,8.366,36.29934,36.29934,0,0,0,3.434,7.534c.403.671.826,1.325,1.261,1.969,1.821-1.471,3.897-10.041,3.897-10.041s-.832-2.716-1.899-6.114" fill="#cf2633"/><path d="M285.084,159.99859c6.598-7.917,0-19.212,0-19.212s-6.599,11.295,0,19.212" fill="#516eb5"/><path d="M285.09568,142.274a2.52076,2.52076,0,0,1,.833.144l-.104-1.748h-1.481l-.104,1.755a2.54663,2.54663,0,0,1,.856-.151" fill="#1b202b"/><path d="M308.7422,151.21248c6.599-7.918,0-19.213,0-19.213s-6.599,11.295,0,19.213" fill="#82c56d"/><path d="M308.75388,133.4869a2.54672,2.54672,0,0,1,.833.144l-.104-1.748h-1.481l-.104,1.755a2.55087,2.55087,0,0,1,.856-.151" fill="#1b202b"/><path d="M318.98237,138.13338c6.599-7.918,0-19.212,0-19.212s-6.599,11.294,0,19.212" fill="#f15b43"/><path d="M318.99409,120.40868a2.52076,2.52076,0,0,1,.833.144l-.104-1.749h-1.481l-.104,1.755a2.549,2.549,0,0,1,.856-.15" fill="#1b202b"/><path d="M333.10639,152.42049c6.599-7.918,0-19.213,0-19.213s-6.598,11.295,0,19.213" fill="#ffcb5d"/><path d="M333.11817,134.69491a2.52766,2.52766,0,0,1,.834.145l-.105-1.749h-1.48l-.105,1.755a2.55512,2.55512,0,0,1,.856-.151" fill="#1b202b"/><path d="M356.05958,160.05819c6.598-7.918,0-19.213,0-19.213s-6.599,11.295,0,19.213" fill="#516eb5"/><path d="M356.07127,142.3326a2.52172,2.52172,0,0,1,.833.145l-.104-1.749h-1.481l-.104,1.755a2.54663,2.54663,0,0,1,.856-.151" fill="#1b202b"/><path d="M379.71778,151.21248c6.598-7.918,0-19.213,0-19.213s-6.599,11.295,0,19.213" fill="#82c56d"/><path d="M379.72947,133.4869a2.54677,2.54677,0,0,1,.833.144l-.104-1.748h-1.481l-.104,1.755a2.54663,2.54663,0,0,1,.856-.151" fill="#1b202b"/><path d="M262.13178,152.42049c6.598-7.918,0-19.213,0-19.213s-6.599,11.295,0,19.213" fill="#ffcb5d"/><path d="M262.14259,134.69491a2.52765,2.52765,0,0,1,.834.145l-.105-1.749h-1.48l-.104,1.755a2.54489,2.54489,0,0,1,.855-.151" fill="#1b202b"/><path d="M248.00678,136.52981c6.599-7.918,0-19.212,0-19.212s-6.598,11.294,0,19.212" fill="#f15b43"/><path d="M248.01849,118.8052a2.52052,2.52052,0,0,1,.833.144l-.104-1.749h-1.481l-.104,1.756a2.52607,2.52607,0,0,1,.856-.151" fill="#1b202b"/><path d="M427.47947,159.99859c6.599-7.917,0-19.212,0-19.212s-6.598,11.295,0,19.212" fill="#516eb5"/><path d="M427.49119,142.274a2.52076,2.52076,0,0,1,.833.144l-.104-1.748h-1.481l-.104,1.755a2.55537,2.55537,0,0,1,.856-.151" fill="#1b202b"/><path d="M451.13868,151.21248c6.598-7.918,0-19.213,0-19.213s-6.599,11.295,0,19.213" fill="#82c56d"/><path d="M451.14939,133.4869a2.55267,2.55267,0,0,1,.834.144l-.105-1.748h-1.48l-.105,1.755a2.55537,2.55537,0,0,1,.856-.151" fill="#1b202b"/><path d="M461.65717,136.58941c6.598-7.918,0-19.213,0-19.213s-6.599,11.295,0,19.213" fill="#f15b43"/><path d="M461.668,118.86379a2.55266,2.55266,0,0,1,.834.144l-.105-1.748h-1.48l-.105,1.755a2.55537,2.55537,0,0,1,.856-.151" fill="#1b202b"/><path d="M404.52729,152.42049c6.599-7.918,0-19.213,0-19.213s-6.598,11.295,0,19.213" fill="#ffcb5d"/><path d="M404.53907,134.69491a2.52181,2.52181,0,0,1,.833.145l-.104-1.749h-1.481l-.104,1.755a2.55068,2.55068,0,0,1,.856-.151" fill="#1b202b"/><path d="M390.40327,138.52981c6.598-7.918,0-19.212,0-19.212s-6.599,11.294,0,19.212" fill="#f15b43"/><path d="M390.415,120.8052a2.52045,2.52045,0,0,1,.833.144l-.104-1.749h-1.481l-.104,1.756a2.52183,2.52183,0,0,1,.856-.151" fill="#1b202b"/><path d="M461.02149,118.4507c-3.77,5.322-7.518,10.363-13.03,14.067a38.2802,38.2802,0,0,1-29.796,5.437c-11.871-2.77-19.483-10.402-27.717-18.672a.74848.74848,0,0,0-1.156.148c-3.77,5.324-7.507,10.373-13.03,14.068a38.33082,38.33082,0,0,1-27.17,5.965c-13.208-2.108-21.241-10.754-29.62-20.181a.74479.74479,0,0,0-1.155.148c-3.77,5.324-7.508,10.373-13.03,14.068a38.28718,38.28718,0,0,1-28.048,5.803c-12.856-2.361-20.648-11.064-28.742-20.372-.623-.716-1.659.329-1.041,1.041,4.325,4.972,8.423,10.357,13.848,14.192a39.51858,39.51858,0,0,0,54.628-8.858c.799-1.068,1.557-2.168,2.328-3.256a8.43135,8.43135,0,0,1,1.218-1.72c-.155.116-1.48-.153-.75.328,2.359,1.556,4.407,4.997,6.319,7.108,14.044,15.503,38.04,18.246,54.646,5.04a42.97831,42.97831,0,0,0,8.088-8.705c.8-1.111,1.605-2.923,2.673-3.771-.089.069-1.43-.12-.772.27a11.53724,11.53724,0,0,1,1.804,1.812c5.429,5.451,10.552,10.886,17.725,14.111a41.3509,41.3509,0,0,0,32.362,1.026c9.219-3.721,15.114-10.485,20.689-18.355.548-.773-.727-1.51-1.271-.742" fill="#303443"/><path d="M506.52006,508.66277H206.08647a1.5,1.5,0,1,1,0-3H506.52006a1.5,1.5,0,0,1,0,3Z" fill="#303443"/><path d="M195.67436,508.66277h-1.72754a1.5,1.5,0,0,1,0-3h1.72754a1.5,1.5,0,0,1,0,3Z" fill="#303443"/><path d="M184.57865,508.66277H172.47416a1.5,1.5,0,1,1,0-3h12.10449a1.5,1.5,0,1,1,0,3Z" fill="#303443"/><path d="M527.57768,508.66277H515.47416a1.5,1.5,0,0,1,0-3h12.10352a1.5,1.5,0,0,1,0,3Z" fill="#303443"/></svg>