<svg id="Layer_1" data-name="Layer 1" xmlns="http://www.w3.org/2000/svg" viewBox="0 0 700 550"><title>christmas gnome</title><path d="M310.8784,158.84269c-5.71662,11.50882,35.843,55.427,89.76609,61.60451,28.399,3.25372,66.71233-3.21858,67.765-14.08131,2.13295-21.999-148.10411-66.50052-157.531-47.5232" fill="#edf2fa"/><path d="M522.97264,231.88778C548.9023,254.2125,544.73319,303.412,534.69639,332.1622c-2.67042,7.64629-18.52177,53.04926-56.60735,64.29624-39.82472,11.76211-57.79093-27.457-110.54645-28.64268-58.79994-1.32193-70.429,46.63336-120.893,45.684-55.67715-1.04946-130.68181-61.1-126.56808-139.11037,3.20474-60.7775,53.591-116.52062,101.47179-118.71318,53.93163-2.46929,62.60714,64.92846,137.62667,83.62374,77.79645,19.38711,127.95493-38.26653,163.79263-7.41214" fill="#edf2fa"/><path d="M483.76025,470.6595c-.12349,11.40663-76.07965,19.83308-169.654,18.82089-93.57433-1.01327-169.33148-11.07988-169.208-22.48543.12346-11.40663,76.07964-19.83308,169.654-18.82089s169.33149,11.07881,169.208,22.48543" fill="#e4ebf1"/><path d="M364.44864,195.22365a.47467.47467,0,0,0-.199-.64076l-5.03224-2.65447-1.2783-4.3,4.21163,2.22237a.47486.47486,0,0,0,.69289-.36827l.03833-.35869a.46684.46684,0,0,0-.0064-.149l-.94514-4.51816,4.01791,2.17657,1.10907,5.30473a.44648.44648,0,0,0,.09686.2033.47385.47385,0,0,0,.83123-.397l-.94407-4.51816,1.41346.76526a1.29853,1.29853,0,0,0,.29483,1.13036,1.42474,1.42474,0,0,0,2.20425-1.803,1.3497,1.3497,0,0,0-1.99991-.13623l-1.49008-.80784,4.50646-1.39326a.47467.47467,0,0,0-.281-.90681l-5.393,1.66782L362.353,183.6052l4.50646-1.39215a.47536.47536,0,0,0,.22883-.75142l-.22565-.27993-.00211-.00321a.51892.51892,0,0,0-.10751-.09686l-3.88061-2.53845,4.549-1.35174,4.64483,2.80564a.47441.47441,0,1,0,.49066-.8121l-3.90617-2.35967,1.85943-.55134c.01383.01705.02127.03725.03618.05535a1.42439,1.42439,0,0,0,2.20428-1.80194,1.4429,1.4429,0,0,0-2.52039.8387l-1.98289.58967,2.07231-4.29573a.47438.47438,0,0,0-.85468-.41189l-2.44695,5.07268-4.42129,1.31448,2.19148-4.15309a.47975.47975,0,0,0-.001-.4449.46669.46669,0,0,0-.36827-.24907l-.35869-.03833a.48826.48826,0,0,0-.14688.00747l-4.52667.94622,2.17658-4.01687,5.31323-1.11119a.47468.47468,0,0,0-.19476-.92916l-4.5267.94725.82487-1.52308a1.44378,1.44378,0,0,0,1.20912-2.31813,1.42475,1.42475,0,0,0-2.20429,1.803,1.756,1.756,0,0,0,.12561.12557l-.80145,1.47946-1.39-4.498a.47469.47469,0,0,0-.90685.281l1.66571,5.38453-2.13721,3.94343-1.39111-4.498a.47039.47039,0,0,0-.36931-.32677l-.36613-.066a.47163.47163,0,0,0-.49067.2214l-2.43844,4.03707-1.291-4.34256,2.88545-4.77573a.47469.47469,0,0,0-.8121-.49174l-2.43844,4.03815-.47257-1.58909a1.34856,1.34856,0,0,0,.27141-1.99244,1.42482,1.42482,0,0,0-2.20532,1.80194,1.30068,1.30068,0,0,0,1.03986.51408l.43638,1.47092-4.1552-2.00524a.47413.47413,0,1,0-.413.85361l4.9343,2.381,1.29107,4.34149-4.15735-2.00524a.47515.47515,0,0,0-.479.0394l-.30013.21074a.47276.47276,0,0,0-.18839.50236l1.1197,4.53839-3.98173-2.15851-1.32725-5.376a.47421.47421,0,0,0-.92065.22779l1.11862,4.53732-1.3379-.72379a1.29736,1.29736,0,0,0-.297-1.11969,1.424,1.424,0,0,0-2.20321,1.802,1.34851,1.34851,0,0,0,2.00738.12879l1.36981.74292-4.39681,1.5337a.47421.47421,0,0,0-.29272.60458.45261.45261,0,0,0,.08091.14366.47329.47329,0,0,0,.52366.148l5.21212-1.819,3.98277,2.15744-4.39573,1.53481a.47123.47123,0,0,0-.31186.36506l-.06389.36294a.47627.47627,0,0,0,.22139.48852l3.98387,2.40544-4.17758,1.24209-4.62564-3.027a.4744.4744,0,1,0-.51941.794l3.95405,2.58743-1.67207.49707c-.02342-.03515-.04047-.06919-.06708-.10219a1.4248,1.4248,0,0,0-2.20532,1.80193,1.44312,1.44312,0,0,0,2.51718-.78335l1.58483-.47043-2.14787,4.07a.47457.47457,0,0,0,.05321.52155.47581.47581,0,0,0,.78657-.07984l2.581-4.89068,4.22439-1.25593-2.03287,4.21374a.47228.47228,0,0,0,.03936.479l.21074.3012.02128.02768a.47514.47514,0,0,0,.48111.16071l4.52985-1.11862-2.15744,3.9828-5.36855,1.32511a.47384.47384,0,0,0-.347.57368.479.479,0,0,0,.0926.18628.47274.47274,0,0,0,.48216.16069l4.52988-1.11756-.69186,1.27723a1.4428,1.4428,0,0,0-1.323,2.30326,1.42517,1.42517,0,0,0,2.20532-1.803c-.016-.01809-.033-.02982-.04791-.04684l.69185-1.27934,1.53692,4.40531a.47443.47443,0,0,0,.89616-.31185l-1.82217-5.22063,2.15745-3.98276,1.538,4.40427a.4741.4741,0,0,0,.75035.20967l.27567-.22883a.5268.5268,0,0,0,.09475-.10537l2.50441-3.82955,1.30169,4.38089-2.94506,4.5011a.476.476,0,0,0,.02982.55985.46486.46486,0,0,0,.10748.09578.47308.47308,0,0,0,.65671-.13729l2.50548-3.82845.47683,1.60718a1.34624,1.34624,0,0,0-.2544,1.98181,1.424,1.424,0,0,0,2.20321-1.802,1.29488,1.29488,0,0,0-1.05691-.513l-.48533-1.63164,4.21163,2.22234a.47551.47551,0,0,0,.64179-.199m-2.61936-6.616-4.268-2.25216-1.51139-5.0844,4.78746,2.59276Zm3.9232-7.04705-4.56711,1.41238-4.68316-2.53633,5.17808-1.54011Zm-2.20747-7.757-2.2213,4.20949-5.09184,1.5135,2.5619-4.7289Zm-7.12686-4.185,1.49008,4.82043-2.5108,4.63525-1.54651-5.20468Zm-7.92515,2.31921,4.42769,2.13616,1.56674,5.27065-4.80766-2.60445Zm-3.95617,7.26526,4.67992-1.63378,4.81831,2.60978-5.28234,1.571Zm2.33837,7.93578,2.16381-4.48408,5.26639-1.56567-2.63638,4.86619Zm7.17691,3.705-1.54757-4.4362,2.63531-4.8662,1.56141,5.25256Z" fill="#fff"/><path d="M190.89886,358.66544a.99829.99829,0,0,0-.41617-1.34746l-10.57856-5.58038-2.68641-9.03952,8.85218,4.67249a.99833.99833,0,0,0,1.4571-.77484l.08088-.75356a1.04892,1.04892,0,0,0-.01489-.31079l-1.985-9.49932,8.44348,4.57565,2.332,11.15224a.99052.99052,0,0,0,.20328.42573.99733.99733,0,0,0,1.74979-.83444l-1.98608-9.49932,2.97167,1.61036a2.73691,2.73691,0,0,0,.61946,2.37564c2.43735,2.98016,7.07578-.80146,4.63416-3.788a2.83628,2.83628,0,0,0-4.20418-.28844l-3.13449-1.69764,9.47589-2.92908a.99784.99784,0,1,0-.59072-1.90625l-11.33743,3.50595-8.29022-4.49155,9.47377-2.92908a.99806.99806,0,0,0,.48214-1.57844l-.4747-.58965-.00531-.00531a.983.983,0,0,0-.22671-.2033l-8.15717-5.33663,9.56211-2.84181,9.76327,5.89755a.99783.99783,0,0,0,1.03348-1.70722l-8.21038-4.95986,3.90722-1.16014c.02874.03831.04576.07877.07769.11708,2.43737,2.98231,7.07473-.80146,4.63312-3.788-1.89561-2.31815-5.10675-.54282-5.29939,1.76362l-4.168,1.2389,4.35638-9.02992a.99731.99731,0,1,0-1.79663-.86638L196.30042,318.929l-9.29283,2.762,4.60651-8.73086a.99277.99277,0,0,0-.0032-.93343.972.972,0,0,0-.77272-.52259l-.75249-.0809a1.01517,1.01517,0,0,0-.31078.01491l-9.51636,1.98927,4.57458-8.44455,11.17033-2.3341a.9977.9977,0,1,0-.40869-1.95309l-9.51528,1.98927,1.73275-3.2005c2.22023.05748,4.37447-2.63213,2.54273-4.87259-2.43736-2.98231-7.07473.80146-4.6331,3.78695a3.12955,3.12955,0,0,0,.265.26609l-1.68485,3.11-2.92378-9.45675a.99784.99784,0,1,0-1.90625.59072l3.50065,11.32041-4.49156,8.28915-2.92376-9.45568a.99457.99457,0,0,0-.77484-.68651l-.77273-.14048a.99651.99651,0,0,0-1.03135.46511l-5.12589,8.48925-2.713-9.12679,6.06467-10.04213a.99756.99756,0,0,0-1.70722-1.03242L164.371,299.477l-.993-3.33992a2.83451,2.83451,0,0,0,.56943-4.18821c-2.43735-2.98231-7.07473.80146-4.6331,3.78695a2.72865,2.72865,0,0,0,2.184,1.07926l.91853,3.09193-8.73724-4.21588a.9973.9973,0,0,0-.86638,1.79662l10.37208,5.00562,2.713,9.12573-8.73724-4.21483a.99521.99521,0,0,0-1.00581.082l-.63329.44382a.99893.99893,0,0,0-.39593,1.05691l2.3554,9.53869-8.37111-4.53519-2.79179-11.30233a.99708.99708,0,1,0-1.936.4779l2.35542,9.5387-2.81308-1.52308a2.73077,2.73077,0,0,0-.62371-2.35328c-2.43842-2.98125-7.0758.80145-4.63418,3.788a2.83855,2.83855,0,0,0,4.22122.27247l2.878,1.55928-9.2428,3.226a.99722.99722,0,1,0,.65777,1.88285l10.95639-3.82421,8.37324,4.53519-9.24387,3.226a1.001,1.001,0,0,0-.65458.76953l-.1341.76207a1.00045,1.00045,0,0,0,.46619,1.0271l8.37535,5.05778-8.78088,2.60872-9.726-6.36269a.99766.99766,0,0,0-1.092,1.67l8.31363,5.43776-3.51766,1.04519c-.049-.07131-.08409-.14368-.14157-.21394-2.43735-2.98016-7.07366.80146-4.63311,3.788,1.86369,2.27984,5.00244.60349,5.292-1.64654l3.33141-.98985-4.515,8.55524a.99874.99874,0,0,0,.1107,1.09734,1.01076,1.01076,0,0,0,.30652.25012.99832.99832,0,0,0,1.34853-.41722l5.42286-10.28055,8.882-2.63958L151.6478,341.869a.995.995,0,0,0,.0809,1.0058l.44489.63329c.01384.02129.02873.03938.04364.0596a1.00056,1.00056,0,0,0,1.0122.33635l9.52272-2.35009-4.53625,8.3711-11.28528,2.78647a.997.997,0,0,0-.7291,1.207,1.014,1.014,0,0,0,.19585.39168.99749.99749,0,0,0,1.0122.3374l9.52166-2.35008-1.4539,2.68322c-2.29794-.26609-4.67676,2.5225-2.779,4.84279,2.43737,2.98124,7.07473-.80253,4.63311-3.788-.03193-.03831-.06812-.06493-.10112-.10112l1.45605-2.68642,3.23135,9.25984a.99754.99754,0,0,0,1.8839-.6567L159.971,350.87547l4.53518-8.37109,3.23137,9.25983a.99654.99654,0,0,0,1.57949.43851l.58007-.48108a1.00327,1.00327,0,0,0,.1969-.22139l5.26534-8.04968,2.73751,9.20876-6.19132,9.46206a.99812.99812,0,0,0,.06279,1.17717.96838.96838,0,0,0,.22672.20328.99671.99671,0,0,0,1.38046-.28843l5.26532-8.05075,1.00369,3.37826a2.831,2.831,0,0,0-.53643,4.16586c2.43735,2.98124,7.07471-.80146,4.63311-3.78695a2.72021,2.72021,0,0,0-2.22236-1.07713l-1.01965-3.43146,8.85326,4.67143a.99653.99653,0,0,0,1.3464-.41723M185.393,344.75761l-8.97033-4.73317-3.17708-10.68925,10.06235,5.45159Zm8.2487-14.81255-9.60043,2.96847-9.84415-5.33346,10.884-3.23561Zm-4.64056-16.30689-4.66824,8.84794-10.70521,3.18133,5.3856-9.941Zm-14.98178-8.8,3.13239,10.13473-5.27918,9.74519L168.621,313.77547Zm-16.65918,4.87792,9.30667,4.48943,3.29309,11.07985-10.10706-5.475Zm-8.319,15.27234,9.83992-3.43466,10.1294,5.48672L157.90405,330.341Zm4.91731,16.68154,4.549-9.42588,11.07029-3.291-5.541,10.22946Zm15.08714,7.78782-3.25479-9.32581,5.541-10.22839,3.28245,11.04261Z" fill="#fff"/><path d="M270.69634,228.34179a.63738.63738,0,0,0-.26608-.86l-6.7469-3.55917-1.71358-5.76453,5.64636,2.98016a.63622.63622,0,0,0,.92812-.496l.05213-.48a.62564.62564,0,0,0-.00958-.199L267.3213,213.906l5.38453,2.91738,1.488,7.11409a.61945.61945,0,0,0,.12986.27142.63613.63613,0,0,0,1.11544-.53218l-1.26658-6.05933,1.89561,1.0271a1.73991,1.73991,0,0,0,.39488,1.51564,1.90948,1.90948,0,0,0,2.9546-2.41609,1.807,1.807,0,0,0-2.68-.18307l-1.99887-1.08351,6.04127-1.8679a.63612.63612,0,1,0-.37574-1.21549l-7.23116,2.23511-5.28663-2.8631,6.04231-1.869a.63661.63661,0,0,0,.3076-1.00689l-.30335-.37571-.00214-.00318a.60558.60558,0,0,0-.14581-.12986l-5.20253-3.40272,6.09873-1.81259,6.22644,3.76034a.63659.63659,0,1,0,.65989-1.08881l-5.23661-3.16219,2.49057-.7408c.01917.02449.03089.05.05.07558a1.90992,1.90992,0,0,0,2.9557-2.41606,1.93453,1.93453,0,0,0-3.37929,1.125l-2.65876.78975,2.778-5.75917a.636.636,0,0,0-1.14526-.55349l-3.28136,6.80225-5.92632,1.76149,2.93654-5.56759a.63525.63525,0,0,0-.001-.596.62035.62035,0,0,0-.4928-.33313l-.48108-.0511a.61264.61264,0,0,0-.19691.00959l-6.06891,1.26869,2.91738-5.38561,7.12368-1.49008a.63615.63615,0,1,0-.26076-1.2453l-6.06892,1.26979,1.10586-2.04145a1.9363,1.9363,0,0,0,1.62206-3.10788c-1.555-1.90094-4.51283.5109-2.95571,2.415a1.954,1.954,0,0,0,.16819.16923l-1.07286,1.985-1.86475-6.03062a.63663.63663,0,0,0-1.21656.37575l2.233,7.21946-2.86521,5.28663-1.86369-6.03061a.63771.63771,0,0,0-.49384-.4385l-.49281-.08835a.63486.63486,0,0,0-.65882.29587l-3.26967,5.41435-1.72956-5.82092,3.86784-6.40418a.63559.63559,0,0,0-1.08777-.65778l-3.2697,5.41328-.63329-2.12974a1.81011,1.81011,0,0,0,.36295-2.6726,1.90983,1.90983,0,0,0-2.95463,2.41713,1.74779,1.74779,0,0,0,1.39325.68757l.58538,1.97227-5.57185-2.68962a.6367.6367,0,0,0-.76955.976.62992.62992,0,0,0,.21607.16922l6.61492,3.193,1.73064,5.81988-5.57185-2.68751a.637.637,0,0,0-.64287.05217l-.40339.2831a.63787.63787,0,0,0-.25225.67269l1.50178,6.08382-5.33877-2.89184-1.77958-7.20778a.63581.63581,0,1,0-1.23465.30442l1.50181,6.08382-1.79343-.97178a1.74269,1.74269,0,0,0-.39913-1.5007,1.90948,1.90948,0,0,0-2.95463,2.41606,1.81037,1.81037,0,0,0,2.69173.17348l1.836.99409-5.89435,2.05741a.63618.63618,0,1,0,.41826,1.20164l6.98852-2.43948,5.33877,2.89289-5.89436,2.05633a.63963.63963,0,0,0-.41722.49066l-.08514.48641a.63939.63939,0,0,0,.29695.65564l5.33983,3.225-5.59848,1.66357-6.203-4.05728a.63632.63632,0,1,0-.69607,1.06542l5.3015,3.46764-2.24257.66629c-.03193-.04472-.05428-.09049-.09046-.13519a1.90915,1.90915,0,0,0-2.95464,2.415,1.93472,1.93472,0,0,0,3.374-1.05052l2.12444-.63117-2.878,5.45585a.637.637,0,0,0,.06918.6993.61979.61979,0,0,0,.1969.16068.63459.63459,0,0,0,.85787-.26609l3.45913-6.55636,5.66553-1.6838-2.72581,5.64848a.6326.6326,0,0,0,.05217.64183l.28418.40442a.36651.36651,0,0,0,.02767.03726.63724.63724,0,0,0,.64391.214L252.745,217.428l-2.89288,5.3388-7.19819,1.77637a.63587.63587,0,0,0-.46407.77059.618.618,0,0,0,.12454.24906.63392.63392,0,0,0,.645.215l6.0732-1.49859-.92705,1.71254a1.93357,1.93357,0,0,0-1.77322,3.08768,1.9095,1.9095,0,0,0,2.95463-2.41609c-.01916-.02446-.04362-.04044-.06386-.06386l.92812-1.71359,2.06163,5.905a.63569.63569,0,1,0,1.20061-.41826l-2.44163-6.99918,2.89185-5.33984,2.06162,5.90609a.63655.63655,0,0,0,1.00689.281l.36931-.30867a.632.632,0,0,0,.12561-.14048l3.358-5.13338,1.74551,5.872-3.94872,6.03484a.63554.63554,0,0,0,.04044.75038.58571.58571,0,0,0,.14477.12983.63478.63478,0,0,0,.88021-.18414l3.358-5.13335.64073,2.15319a1.807,1.807,0,0,0-.34379,2.65769,1.90991,1.90991,0,0,0,2.95571-2.41609,1.73972,1.73972,0,0,0-1.41664-.6865l-.65138-2.18722,5.64636,2.97909a.637.637,0,0,0,.86-.26609m-3.51233-8.87027-5.72088-3.01849-2.02544-6.81822,6.417,3.47722Zm5.26-9.44716-6.12323,1.89347-6.2775-3.40057,6.94165-2.06484Zm-2.95893-10.39975-2.977,5.64318-6.82777,2.02865,3.43572-6.34032Zm-9.55571-5.61232,1.99886,6.46379-3.3676,6.21475-2.07335-6.97894Zm-10.62326,3.11109,5.9348,2.86311,2.101,7.06729-6.44673-3.49321Zm-5.30472,9.73986,6.27436-2.19041,6.46057,3.4985-7.08324,2.10528ZM247.137,217.5014l2.90035-6.01038,7.05982-2.09888-3.53364,6.52339Zm9.62172,4.96731-2.07549-5.94756,3.53364-6.52339,2.09355,7.0428Z" fill="#fff"/><path d="M471.89358,332.29461a.63645.63645,0,0,0-.26608-.85893l-6.7469-3.56025-1.71358-5.76452,5.64636,2.98018a.63517.63517,0,0,0,.92812-.49491l.05213-.48a.62577.62577,0,0,0-.00958-.199l-1.2655-6.05722,5.38453,2.9174,1.488,7.113a.618.618,0,0,0,.12986.27247.63627.63627,0,0,0,1.11544-.53325l-1.26658-6.05827,1.89561,1.0271a1.73778,1.73778,0,0,0,.39488,1.51456,1.90912,1.90912,0,0,0,2.9546-2.415,1.80715,1.80715,0,0,0-2.68-.18414l-1.99886-1.0835,6.04127-1.86793a.63561.63561,0,1,0-.37575-1.21442l-7.23116,2.23513-5.28663-2.86416L475.126,314.851a.6366.6366,0,0,0,.3076-1.00687l-.30334-.37571-.00215-.00426a.6241.6241,0,0,0-.14581-.12878l-5.20253-3.40379,6.09873-1.81259,6.22644,3.76141a.63705.63705,0,0,0,.65989-1.0899l-5.23661-3.16112,2.49058-.74184c.01916.02555.03089.05108.05.07557a1.90991,1.90991,0,0,0,2.9557-2.41608,1.935,1.935,0,0,0-3.37929,1.125l-2.65876.78973,2.778-5.75811a.636.636,0,0,0-1.14526-.55347l-3.28136,6.80225-5.92632,1.76149,2.93654-5.56759a.63739.63739,0,0,0-.001-.59711.61923.61923,0,0,0-.4928-.33207l-.48108-.05217a.61428.61428,0,0,0-.19691.01066l-6.06891,1.26763,2.91738-5.38453,7.12368-1.4901a.63614.63614,0,1,0-.26076-1.24528l-6.06891,1.2687,1.10586-2.04036a1.93645,1.93645,0,0,0,1.62205-3.1079c-1.555-1.90092-4.51283.5109-2.95571,2.415a1.81956,1.81956,0,0,0,.16923.16923l-1.0739,1.985-1.86475-6.03164a.63663.63663,0,0,0-1.21656.37571l2.233,7.21947-2.86521,5.28769-1.86369-6.03168a.63475.63475,0,0,0-.49384-.43744l-.49281-.0894a.638.638,0,0,0-.65882.29694l-3.26863,5.41328-1.7306-5.81985,3.86784-6.40418a.63559.63559,0,0,0-1.08777-.65778l-3.2697,5.41327-.63329-2.13082a1.808,1.808,0,0,0,.363-2.67151,1.9095,1.9095,0,0,0-2.95463,2.41608,1.74483,1.74483,0,0,0,1.39325.68756l.58538,1.97331-5.57185-2.68962a.636.636,0,1,0-.55348,1.14524l6.61492,3.192,1.73064,5.82093-5.57185-2.68749a.63449.63449,0,0,0-.64287.05216l-.40339.28206a.64011.64011,0,0,0-.25225.67372L450.58,306.6949l-5.33876-2.89291-1.77959-7.20777a.63594.63594,0,1,0-1.23465.30547l1.50181,6.08382-1.79343-.97281a1.74352,1.74352,0,0,0-.39913-1.50074,1.90983,1.90983,0,0,0-2.95463,2.41713,1.81119,1.81119,0,0,0,2.69173.1735l1.836.993-5.89435,2.05844a.63618.63618,0,1,0,.41826,1.20164l6.98852-2.43947,5.33877,2.8929-5.89436,2.05631a.638.638,0,0,0-.41722.49066l-.08514.48641a.63939.63939,0,0,0,.29695.65565l5.34091,3.225-5.59956,1.66356-6.203-4.05729a.63588.63588,0,1,0-.69607,1.06435l5.3015,3.46871-2.24257.66629c-.03193-.04471-.05428-.09154-.09046-.13624a1.90915,1.90915,0,0,0-2.95464,2.415,1.93448,1.93448,0,0,0,3.374-1.04944l2.12445-.63117-2.878,5.45585a.63724.63724,0,0,0,.06918.69929.64913.64913,0,0,0,.1969.1607.63462.63462,0,0,0,.85787-.26609l3.45913-6.55637,5.66553-1.6838-2.7258,5.64743a.63427.63427,0,0,0,.05216.64287l.28418.40339a.22413.22413,0,0,0,.02767.03724.63574.63574,0,0,0,.64391.215l6.07424-1.49861-2.89288,5.33878-7.19819,1.77639a.63535.63535,0,0,0-.46406.77058.618.618,0,0,0,.12453.24907.634.634,0,0,0,.645.215l6.0732-1.49861-.927,1.71254a1.93344,1.93344,0,0,0-1.77322,3.08768,1.9095,1.9095,0,0,0,2.95463-2.41608c-.01916-.02447-.04362-.04151-.06386-.06385l.92813-1.71361,2.06162,5.905a.63569.63569,0,1,0,1.20061-.41828l-2.44163-6.99916,2.89185-5.33984,2.06162,5.90607a.63558.63558,0,0,0,1.00689.27992l.36932-.30759a.65659.65659,0,0,0,.1256-.14049l3.358-5.13442,1.74551,5.87308-3.94765,6.03486a.6338.6338,0,0,0,.03937.75037.608.608,0,0,0,.14477.12984.63412.63412,0,0,0,.88021-.18519l3.358-5.1323.64073,2.15317a1.806,1.806,0,0,0-.34379,2.65662,1.90956,1.90956,0,0,0,2.95571-2.415,1.73673,1.73673,0,0,0-1.41664-.68651l-.65138-2.1883,5.64636,2.97912a.63707.63707,0,0,0,.86-.26609m-3.51233-8.86922-5.72088-3.01957-2.02544-6.81715,6.41695,3.47723Zm5.26-9.44715-6.12322,1.89346-6.27751-3.40165,6.94165-2.06377Zm-2.95892-10.40082-2.977,5.64318-6.82778,2.02971,3.43572-6.34033Zm-9.55572-5.61125,1.99887,6.46273-3.3676,6.21472-2.07335-6.97787Zm-10.62325,3.11109,5.93479,2.862,2.101,7.06728-6.44673-3.49319Zm-5.30473,9.73879,6.27436-2.19043,6.46057,3.49957-7.08324,2.1053Zm3.13559,10.63923,2.90036-6.01038,7.05982-2.0989-3.53365,6.52339Zm9.62172,4.96731-2.07549-5.94758,3.53364-6.52445,2.09356,7.04279Z" fill="#fff"/><polygon points="349.165 464.165 453.668 464.165 432.783 337.859 370.048 337.859 349.165 464.165" fill="#f15b43"/><path d="M407.10532,363.02724l33.54508,22.40454,13.017,78.73307H385.2521c36.78814-22.57271,21.85322-101.13761,21.85322-101.13761" fill="#cf2633"/><path d="M399.93848,449.39453l-.92188-.5332a68.20365,68.20365,0,0,0,6.57813-16.30762,113.40346,113.40346,0,0,0,3.293-18.94922l1.06054.09961a114.51652,114.51652,0,0,1-3.32617,19.12793A69.33591,69.33591,0,0,1,399.93848,449.39453Z" fill="#303443"/><path d="M462.13544,389.24513l13.95785-4.35211c-2.73856-8.78408-16.987-53.13761-28.582-63.71192l-9.85055,10.79995c6.38291,5.82305,18.15674,36.9925,24.47472,57.26408" fill="#f15b43"/><path d="M341.14786,388.84185c3.061-12.24957,12.869-46.52267,21.38169-57.87608l-11.694-8.76917c-11.82171,15.762-22.67276,58.304-23.87015,63.102Z" fill="#f15b43"/><path d="M455.6724,319.56456s16.03867-30.57448-9.52275-63.65442c0,0-17.29141-33.08-6.76713-45.10925,10.52642-12.0282,19.95975-36.83924,21.25719-51.87527,1.29851-15.03711,38.88913-17.29249,62.19625-29.32176,23.30608-12.0282,54.13068-27.81673,67.66384-69.16668,0,0-33.08,55.63456-88.71558,52.6267-55.63457-3.00677-87.96309,24.811-99.99236,36.08781s-31.576,37.59173-32.32852,55.6346a93.68567,93.68567,0,0,1-12.78069,44.35779c-6.76606,11.27781-12.78177,30.07317-10.52643,54.88312,0,0,21.80427-50.37241,57.13956-49.621,35.33532.75249,50.62256,52.879,52.37662,65.15834" fill="#ffcc5d"/><path d="M457.49551,387.06961a11.619,11.619,0,1,0,11.61842-11.61949,11.61874,11.61874,0,0,0-11.61842,11.61949" fill="#e9a48a"/><path d="M322.43659,387.06961a11.619,11.619,0,1,0,11.61949-11.61949,11.619,11.619,0,0,0-11.61949,11.61949" fill="#e9a48a"/><path d="M322.85742,387.06934h-.84179a12.054,12.054,0,0,1,12.04-12.04v.84179A11.21084,11.21084,0,0,0,322.85742,387.06934Z" fill="#303443"/><path d="M346.15678,304.02762l.12771-.28736c1.73275-3.86359,23.15277-50.05419,57.01184-49.33362,26.878.57154,42.14607,30.8576,48.69288,50.73324l3.68371,14.42511s7.76869,38.59328-8.77237,62.65182c-16.54,24.05747-64.656,34.58388-87.962,9.02142-23.30709-25.56139-12.78173-87.21061-12.78173-87.21061" fill="#fff"/><path d="M455.6724,319.56456l-3.68374-14.42511c-4.53732-13.77481-13.26814-32.54352-27.14619-42.96136,7.87511,10.07724,13.26071,22.47264,16.5027,32.31787l3.68374,14.42511s7.76974,38.59435-8.77132,62.65182c-14.97644,21.783-55.83465,32.469-80.72975,15.3245a39.50908,39.50908,0,0,0,3.41015,4.3404c23.30712,25.56248,71.42417,15.0382,87.96308-9.02141,16.54106-24.05747,8.77133-62.65182,8.77133-62.65182" fill="#f3f8fd"/><path d="M385.25181,257.30742c0,7.7059,7.99749,13.95363,17.86188,13.95363,9.8665,0,17.86295-6.24773,17.86295-13.95363,0-7.70695-7.99645-13.9536-17.86295-13.9536-9.86439,0-17.86188,6.24665-17.86188,13.9536" fill="#e9a48a"/><path d="M403.115,243.35346a22.58052,22.58052,0,0,0-4.24038.41193c7.81339,1.489,13.62154,6.97787,13.62154,13.5417,0,6.56276-5.80815,12.05376-13.62154,13.5417a22.58,22.58,0,0,0,4.24038.413c9.86543,0,17.86081-6.24772,17.86081-13.95467s-7.99538-13.95363-17.86081-13.95363" fill="#c58877"/><path d="M430.66235,198.41488c-4.03071,0-4.03814-6.26582,0-6.26582,4.03175,0,4.03811,6.26582,0,6.26582" fill="#f15b43"/><path d="M387.80877,223.22442c-4.03178,0-4.03814-6.26582,0-6.26582,4.03068,0,4.03812,6.26582,0,6.26582" fill="#f15b43"/><path d="M423.89584,249.28946c2.74386,0,2.74811-4.26376,0-4.26376-2.74286,0-2.74815,4.26376,0,4.26376" fill="#f15b43"/><path d="M399.08629,167.5893c-4.03177,0-4.03814-6.26474,0-6.26474,4.03068,0,4.03812,6.26474,0,6.26474" fill="#f15b43"/><path d="M362.24677,264.3255c2.74282,0,2.74811-4.26376,0-4.26376-2.7439,0-2.74815,4.26376,0,4.26376" fill="#f15b43"/><path d="M451.71335,286.88054c2.74386,0,2.74811-4.26376,0-4.26376-2.7439,0-2.74815,4.26376,0,4.26376" fill="#f15b43"/><path d="M435.92478,156.31285c-4.0307,0-4.03814-6.26581,0-6.26581,4.03175,0,4.03812,6.26581,0,6.26581" fill="#f15b43"/><path d="M478.7794,135.26185c-4.03178,0-4.03814-6.26581,0-6.26581,4.03068,0,4.03812,6.26581,0,6.26581" fill="#f15b43"/><path d="M447.20231,124.73575a2.91652,2.91652,0,0,1-2.99936-2.80668q2.70773-1.06486,5.57295-2.04249c1.076,1.84881.22243,4.84917-2.57359,4.84917" fill="#f15b43"/><path d="M537.79667,119.599a2.89878,2.89878,0,0,1,2.07861.79933q-2.5464,1.49276-5.05987,2.87587a3.02308,3.02308,0,0,1,2.98126-3.6752" fill="#f15b43"/><path d="M562.74345,91.479a3.10385,3.10385,0,0,1-2.76839,4.43624,2.90464,2.90464,0,0,1-2.01592-.7408c1.6583-1.20909,3.24417-2.44695,4.78431-3.69544" fill="#f15b43"/><path d="M499.372,112.97384c.80567.03089,1.59756.04683,2.41285.09049,1.1729.06386,2.32027.06493,3.474.07555a3.00482,3.00482,0,0,1-5.88686-.166" fill="#f15b43"/><path d="M441.55734,350.19162l-.4779-8.16781-.27781-4.08389-.47043-4.06475c-.33209-2.70878-.59392-5.42713-.98454-8.1295a207.50953,207.50953,0,0,0-7.38869-31.87512c-3.35377-10.36673-7.45259-20.57812-13.20539-29.82517a229.92907,229.92907,0,0,1,10.08789,30.72987l1.00475,3.9051.89937,3.92956c.611,2.61725,1.22614,5.23128,1.68595,7.87939.46831,2.647,1.12181,5.25469,1.51564,7.91236l1.27187,7.956c.40661,2.65449.70141,5.32493,1.059,7.98687l.513,3.99769.34911,4.01686.76419,8.03158c.12028,2.68534.27674,5.37069.44915,8.05924l.248,4.03494c.06919,1.34427.04363,2.69175.09579,4.0392l.20756,8.09439c.11813,5.40156-.1,10.80313.04788,16.24941.77591-5.36433,1.54546-10.75951,2.002-16.18024.26823-5.42605.80891-10.86807.65778-16.31646.00425-2.7258-.0064-5.45265-.05428-8.17953" fill="#e4ebf1"/><path d="M419.9783,336.22833c-.298-5.56867-.7323-11.12775-1.24956-16.6794-.629-5.541-1.21763-11.08413-2.10317-16.59a234.19114,234.19114,0,0,0-7.05875-32.65208c1.53585,11.0256,2.77794,22.02989,3.83592,33.05016,1.01858,11.02025,1.919,22.0416,2.40648,33.08634q.89088,16.55594.942,33.15446c.15006,11.07349-.24693,22.13207-.39274,33.2758a261.27914,261.27914,0,0,0,3.65071-33.20236c.39273-5.56867.331-11.14479.43425-16.72091.02341-2.78861-.11281-5.57507-.16179-8.3626-.05428-2.78859-.1373-5.57505-.30331-8.3594" fill="#e4ebf1"/><path d="M395.77161,338.44015c-.62585,11.2491-1.13143,22.50991-1.13461,33.79094a310.64311,310.64311,0,0,0,1.423,33.8016c.54176-11.2704,1.19418-22.48011,1.83386-33.69836l2.04354-33.64406,1.88073-33.67172c.57794-11.23421,1.076-22.47586,1.29529-33.75689-1.9403,11.1182-3.341,22.30129-4.532,33.5025-1.21016,11.2012-2.10528,22.43116-2.80986,33.676" fill="#e4ebf1"/><path d="M370.38627,331.69335c-.496,2.76519-1.04733,5.51866-1.48586,8.29341l-1.18885,8.34556c-.42577,2.77583-.54923,5.59422-.83978,8.38706-.25225,2.79819-.5375,5.5921-.5588,8.40729l-.24053,8.42113c.02446,2.80883.166,5.61871.25225,8.42006l.18839,4.19992c.115,1.39857.2746,2.795.43532,4.18715q.463,4.18131,1.01965,8.33386.10856-4.20684.13623-8.38282l.02767-4.17118.24267-4.16906c.15646-2.77688.22883-5.5495.43424-8.31681l.75572-8.28809c1.18673-11.02027,2.66616-22.00859,4.91939-32.866,2.1-10.883,4.68209-21.67759,7.58245-32.402,2.95034-10.71478,6.19663-21.35723,9.81755-31.94a209.59166,209.59166,0,0,0-12.92546,30.99595,268.35228,268.35228,0,0,0-8.57225,32.54459" fill="#e4ebf1"/><path d="M386.40035,262.19469a181.60183,181.60183,0,0,0-16.20579,21.59883c-2.48632,3.76247-4.77573,7.64841-7.029,11.561-2.20854,3.93809-4.27231,7.95919-6.26474,12.01969-1.90838,4.102-3.7082,8.26039-5.3324,12.49439a125.79611,125.79611,0,0,0-4.09457,12.9861,81.556,81.556,0,0,0-2.32027,13.43422,51.25257,51.25257,0,0,0,.52048,13.55021c.15221-9.015,2.21383-17.66818,4.93-26.0808a210.68257,210.68257,0,0,1,10.06555-24.58857c3.79759-8.03264,7.98687-15.89286,12.30705-23.703,4.35-7.79423,8.84262-15.52459,13.4236-23.272" fill="#e4ebf1"/><path d="M460.63971,158.92487c-1.29747,15.03714-10.73077,39.84711-21.25719,51.87638-10.52428,12.02927,6.76713,45.10921,6.76713,45.10921,25.56139,33.081,9.52272,63.65442,9.52272,63.65442v-.00105c1.45286-27.33354-8.97138-37.82268-19.74791-51.41229-10.77546-13.58961-18.79533-51.5677-12.0282-57.58234,6.76606-6.01568,17.29245-27.5677,20.30669-38.093,3.0153-10.52535-.50876-14.53475,9.46418-26.564,9.974-12.02927,69.16883-16.30794,69.16883-16.30794-23.30712,12.02927-60.89778,14.28568-62.19625,29.32065" fill="#f39821"/><path d="M424.249,210.96777l-.707-.79589c6.77637-6.02442,17.19531-27.52881,20.14844-37.8418a47.23765,47.23765,0,0,0,1.51367-8.38672c.60449-5.37354,1.127-10.01416,8.05371-18.37061l.82032.67969c-6.72559,8.11133-7.207,12.39111-7.81641,17.80957a48.7656,48.7656,0,0,1-1.54785,8.561C441.72852,183.05078,431.15039,204.83154,424.249,210.96777Z" fill="#303443"/><path d="M440.68555,344.3877c-.31055-19.98145-7.53028-44.73633-7.60352-44.98438l1.02149-.30078c.07324.249,7.333,25.14062,7.64648,45.26953Z" fill="#303443"/><path d="M403.11426,271.79346V270.729c9.55566,0,17.33008-6.021,17.33008-13.42138h1.06445C421.50879,265.29492,413.25684,271.79346,403.11426,271.79346Z" fill="#303443"/><path d="M369.06445,378.73242l-1.06054-.084c.02441-.30664,2.46972-30.85645,6.40722-48.5459l1.03907.23047C371.5293,347.95117,369.08887,378.42676,369.06445,378.73242Z" fill="#303443"/><path d="M179.1081,320.42413s-34.5839,21.552-36.83924,49.36982c0,0,11.528-9.27261,18.41962-10.77653,0,0-5.63892,7.01725-11.65356,41.09981,0,0,8.27105-15.53842,11.65356-18.04389,0,0-3.13239,18.54521,4.88641,32.57865,0,0,0-21.05069,2.00524-26.06271,0,0,1.50392,44.60791,22.5546,56.63718,21.05176,12.02927,63.15314,24.05747,88.21321-28.56924,0,0,6.01571-15.53842,8.01987-25.06116,0,0,5.51335,14.03451,4.51179,21.05069,0,0,11.528-12.0282,4.0094-30.07211,0,0,10.024,7.01619,10.024,19.04546,0,0,6.01463-22.55355-9.02144-42.10243,0,0,4.0094-4.50965,14.03344,2.00521,0,0-13.84183-36.009-31.5771-41.09875-17.73416-5.09077-16.0376-24.05853-16.0376-24.05853s-83.70356,16.03867-83.20224,24.05853" fill="#fff"/><path d="M253.89105,298.04066a20.27431,20.27431,0,0,0,10.61685,10.585,27.62144,27.62144,0,0,1-2.19892-12.26023s-3.23563.62051-8.41793,1.67527" fill="#f3f8fd"/><path d="M294.26978,390.97778c0-12.03033-10.02511-19.04758-10.02511-19.04758,7.51963,18.045-4.0094,30.07318-4.0094,30.07318,1.0026-7.01618-4.51072-21.05069-4.51072-21.05069-2.00523,9.52273-8.0188,25.06116-8.0188,25.06116-24.98133,52.45854-66.89217,40.67514-88.00886,28.68418A30.799,30.799,0,0,0,190.135,445.22657c21.05069,12.02927,63.1531,24.05747,88.21428-28.56923,0,0,6.01356-15.53845,8.0188-25.06116,0,0,5.51332,14.0345,4.51072,21.05068,0,0,11.04047-11.5354,4.44364-28.95348a42.9279,42.9279,0,0,1-1.05262,7.2844" fill="#f3f8fd"/><path d="M309.9253,361.52321s-10.89148-28.30954-25.72747-38.26652c9.11829,12.1027,15.084,27.623,15.084,27.623-10.024-6.51486-14.03451-2.00416-14.03451-2.00416,9.44928,12.28259,10.58493,25.75085,10.12408,34.06554,1.98822,1.57418,9.54188,8.23168,9.54188,18.68039,0,0,6.01464-22.55568-9.02247-42.10244,0,0,4.01044-4.5107,14.03451,2.00416" fill="#f3f8fd"/><path d="M142.79883,369.83691l-1.06055-.08593c2.251-27.76368,36.74024-49.56153,37.08887-49.77832l.5625.90234C179.0459,321.08984,145.00684,342.60938,142.79883,369.83691Z" fill="#303443"/><path d="M179.1081,320.42413s7.51748-59.645,21.05069-93.47641c13.53318-33.83247,6.76711-64.65707-33.08-62.40169-39.846,2.25534-9.77286,74.431-9.77286,74.431s-9.77391,10.52428-19.5489-10.52642c-9.77284-21.05067-12.77962-70.67167,37.59173-81.94845,50.37245-11.27678,74.42992,44.35779,80.44562,66.91241,6.01357,22.55459,6.76606,77.18656,22.55352,107.0096,0,0-47.36455-19.29771-99.23984,0" fill="#f15b43"/><path d="M245.15074,213.4145c5.76235,21.61266,6.70431,72.66418,20.6622,103.13114a104.113,104.113,0,0,1,12.53588,3.87849c-15.78853-29.822-16.541-84.455-22.55459-107.00963-5.70174-21.38169-27.62305-72.48108-72.80039-68.13319,38.01746,3.82844,56.9224,48.50449,62.1569,68.13319" fill="#cf2633"/><path d="M165.64154,164.66958c-7.17479-.2235-11.75042,1.70618-14.63906,3.606-14.44428,9.49719-17.01893,38.14628-4.3404,70.70045a7.58984,7.58984,0,0,1-.8185.71842,8.53582,8.53582,0,0,0,11.462-.71842s-29.326-70.39285,8.336-74.30647" fill="#cf2633"/><path d="M179.58929,316.83823c-.31825,2.29475-.4811,3.5858-.4811,3.5858a138.47217,138.47217,0,0,1,43.50738-8.48179,143.24692,143.24692,0,0,0-43.02628,4.896" fill="#cf2633"/><path d="M265.79218,279.0247q-.40074-2.22075-.77273-4.45215c-30.20833-6.63516-61.30329-3.06533-78.1168-.09367-.30653,1.47627-.60668,2.945-.89724,4.39576,16.28134-3.01,48.7067-7.10026,79.78677.15006" fill="#82c56d"/><path d="M252.95559,204.39459a206.18856,206.18856,0,0,0-46.78452-.563c-.14581,1.39326-.32995,2.8035-.56943,4.23719,13.94617-1.39325,31.27269-1.87752,48.85465.76526-.44383-1.40387-.95044-2.89821-1.5007-4.43942" fill="#82c56d"/><path d="M270.70541,300.64427q-.65779-2.29419-1.26022-4.65545c-34.13045-8.6904-70.36833-3.56558-86.53579-.40339-.2597,1.51137-.51088,2.98656-.745,4.40108,15.22445-3.11,53.36323-9.00971,88.541.65776" fill="#82c56d"/><path d="M254.0542,272.59814q.35119,2.1633.73119,4.32233c3.66776.5588,7.34722,1.25062,11.00643,2.10423-.00532-.02874-.00851-.0596-.01491-.08834q-.39274-2.17608-.75675-4.36384c-3.65285-.80145-7.31525-1.45175-10.966-1.97438" fill="#4da258"/><path d="M243.40243,207.56675c3.655.29909,7.34611.70995,11.05324,1.26658-.017-.05106-.033-.1043-.05-.15643-.43213-1.35918-.91958-2.79713-1.44964-4.28188-3.71246-.50558-7.40253-.87171-11.0522-1.13143.546,1.48905,1.0484,2.92911,1.49862,4.30316" fill="#4da258"/><path d="M270.70232,300.63076q-.65619-2.28782-1.257-4.64162c-3.72733-.9494-7.47915-1.72424-11.22672-2.365q.54443,2.24631,1.13672,4.44046c3.79548.70035,7.59092,1.54543,11.35021,2.58l-.00318-.01384" fill="#4da258"/><path d="M196.20836,267.20575c4.03174,0,4.03812-6.26474,0-6.26474-4.0307,0-4.03815,6.26474,0,6.26474" fill="#82c56d"/><path d="M212.74833,265.078c2.74387,0,2.74813-4.26376,0-4.26376-2.74284,0-2.74815,4.26376,0,4.26376" fill="#82c56d"/><path d="M231.16869,265.45328c2.74282,0,2.74812-4.26376,0-4.26376-2.74389,0-2.74815,4.26376,0,4.26376" fill="#82c56d"/><path d="M250.33944,267.33356c2.74386,0,2.74812-4.26483,0-4.26483-2.74285,0-2.74815,4.26483,0,4.26483" fill="#82c56d"/><path d="M212.37315,198.03861c4.03068,0,4.03813-6.26581,0-6.26581-4.03176,0-4.03814,6.26581,0,6.26581" fill="#82c56d"/><path d="M226.65768,196.28618c2.74282,0,2.74812-4.26376,0-4.26376-2.74389,0-2.74815,4.26376,0,4.26376" fill="#82c56d"/><path d="M242.44621,197.414c2.74283,0,2.74812-4.26376,0-4.26376-2.74389,0-2.74814,4.26376,0,4.26376" fill="#4da258"/><path d="M172.53905,339.32366c2.76943-2.22023,5.48565-4.51816,8.41048-6.52127,2.78646-2.21915,5.87839-3.94339,8.81813-5.95076a113.92337,113.92337,0,0,1,19.40946-9.06825,64.0363,64.0363,0,0,0-20.973,6.20833,94.01541,94.01541,0,0,0-9.51208,5.56443c-3.10469,1.98182-5.92948,4.32444-8.83409,6.567a127.42747,127.42747,0,0,0-15.37451,15.60867,103.15981,103.15981,0,0,0-12.21447,18.062q7.13966-8.22688,14.6284-15.89072c5.03544-5.0844,10.19859-10.00489,15.64168-14.57946" fill="#e4ebf1"/><path d="M181.10994,342.7381c1.44857-1.64655,3.04829-3.143,4.6033-4.68952,1.637-1.45284,3.2186-2.978,4.92793-4.35638a104.99236,104.99236,0,0,1,22.395-14.1718,71.88755,71.88755,0,0,0-24.39274,11.59608A88.21811,88.21811,0,0,0,169.368,350.36522a110.14579,110.14579,0,0,0-13.25859,23.71583,101.321,101.321,0,0,0-7.07472,26.03609,186.35338,186.35338,0,0,1,10.03468-24.7014,144.783,144.783,0,0,1,13.65239-22.56526,100.00049,100.00049,0,0,1,8.38815-10.11238" fill="#e4ebf1"/><path d="M221.3951,320.42413a210.98316,210.98316,0,0,0-18.40792,27.34844,214.81235,214.81235,0,0,0-14.26865,29.84433,161.31426,161.31426,0,0,0-5.09184,15.81835,113.06617,113.06617,0,0,0-3.01424,16.39524,71.79071,71.79071,0,0,0,.22564,16.6943,43.65121,43.65121,0,0,0,5.16742,15.70872c-3.89765-10.34653-3.72842-21.39233-2.15957-31.99a159.703,159.703,0,0,1,8.77449-31.14391c1.86687-5.08866,4.019-10.07831,6.24027-15.03713,2.184-4.98009,4.57778-9.86757,6.98958-14.75718q7.33921-14.613,15.54482-28.88111" fill="#e4ebf1"/><path d="M212.2151,350.64376c-1.59334,5.56123-2.95464,11.18632-4.29147,16.81991-1.29636,5.64211-2.39371,11.33318-3.4272,17.03809a207.55806,207.55806,0,0,0-3.26116,34.67436,98.586,98.586,0,0,0,1.37833,17.43295c1.06434,5.72194,2.70558,11.47262,5.8156,16.38459a53.90183,53.90183,0,0,1-3.78269-16.65493,119.77839,119.77839,0,0,1-.15327-17.08386c.35337-5.69638.78761-11.39278,1.56991-17.06364.71844-5.673,1.52841-11.34381,2.547-16.98381,1.89879-11.30551,4.28294-22.54183,6.75436-33.77178,2.51825-11.22248,5.19614-22.41731,7.91022-33.65257a307.71864,307.71864,0,0,0-11.05962,32.86069" fill="#e4ebf1"/><path d="M189.15385,360.82882c.46511-1.08031,1.08136-2.08291,1.61461-3.12811l3.325-6.2126c2.48632-3.98067,4.78957-8.09756,7.61967-11.86429,5.24617-7.86341,11.70039-14.77424,18.178-21.84044A128.12659,128.12659,0,0,0,206.722,329.06121a73.9689,73.9689,0,0,0-19.67236,12.869,75.85664,75.85664,0,0,0-8.85431,9.874,80.66583,80.66583,0,0,0-6.881,11.37362,83.48642,83.48642,0,0,0-4.67569,12.42415,80.21479,80.21479,0,0,0-2.52038,12.97654,74.81709,74.81709,0,0,0,1.4571,26.07334,115.52239,115.52239,0,0,1,1.7551-25.6029,95.13922,95.13922,0,0,1,7.74207-24.05216,84.46192,84.46192,0,0,1,14.26972-20.74947,108.02123,108.02123,0,0,1,15.46393-13.21495,81.8446,81.8446,0,0,0-5.69958,6.63516c-3.21647,3.63367-5.65915,7.82295-8.41582,11.80362-1.23783,2.07548-2.3554,4.22439-3.53788,6.335a71.99544,71.99544,0,0,0-3.23563,6.49146,139.47382,139.47382,0,0,0-5.33451,13.48l-2.06484,6.94275c-.60242,2.3373-1.12288,4.69483-1.65718,7.04492a105.755,105.755,0,0,0-2.2692,28.66823,181.75639,181.75639,0,0,1,5.425-27.90935,166.05131,166.05131,0,0,1,9.693-26.481Z" fill="#e4ebf1"/><path d="M226.43522,320.42413c-.29376,11.32574-.35126,22.62168-.38851,33.91015-.067,11.28955-.02979,22.56846-.15432,33.83883q-.02553,8.45359-.20541,16.89867c-.07133,5.63147-.25865,11.25762-.45981,16.87951-.248,5.61762-.52152,11.23738-1.0484,16.83054a87.3357,87.3357,0,0,1-2.78324,16.61768c2.46928-5.12591,3.72627-10.768,4.814-16.3335,1.01433-5.6006,1.73808-11.24272,2.27025-16.89334,1.0867-11.30551,1.45815-22.644,1.58694-33.96656.04151-11.32679-.17455-22.64614-.77377-33.9474-.5769-11.30231-1.42518-22.59186-2.85777-33.83458" fill="#e4ebf1"/><path d="M255.4533,423.23979c.03723-2.73962-.18946-5.45584-.38425-8.17631-.25651-5.46225-1.09413-10.84892-1.73064-16.26645-.89723-5.36964-1.754-10.75206-2.87372-16.07593-1.07926-5.33451-2.35753-10.62112-3.6422-15.90242-1.40813-5.25044-2.76838-10.51152-4.38511-15.70022a303.46626,303.46626,0,0,0-10.89363-30.69474l7.75911,31.5441c2.51718,10.50726,4.962,21.02088,7.07259,31.58987,2.21812,10.54556,4.1084,21.15606,5.44946,31.823,1.28789,10.66583,2.30007,21.40191,1.47628,32.24443q.76629-3.98333,1.45922-8.038c.29587-2.70558.41934-5.43031.63755-8.16037a40.72606,40.72606,0,0,0,.08195-4.09135Z" fill="#e4ebf1"/><path d="M296.79549,344.90522c-2.56722-2.47567-5.4186-4.58309-8.19975-6.78735-2.88759-2.04142-5.77729-4.09986-8.77769-5.96142-2.99507-1.87963-6.06252-3.622-9.14061-5.34409-3.13666-1.61356-6.23921-3.28352-9.45889-4.72038A137.61657,137.61657,0,0,0,241.51,314.5351l18.21421,10.43913c6.02847,3.49106,12.03778,6.97894,17.8715,10.71692,5.88159,3.656,11.63969,7.50367,17.10405,11.71A94.42626,94.42626,0,0,1,309.9253,361.5229c-3.04406-6.41269-7.93792-11.8164-13.12981-16.61768" fill="#e4ebf1"/><path d="M289.92926,361.4421a141.13152,141.13152,0,0,0-9.791-10.82017A170.52461,170.52461,0,0,0,257.69439,332.23c-4.74381-3.26649-9.61747-6.34776-14.63587-9.15764-2.85034-2.95464-5.79431-5.81986-8.88306-8.53716,1.009,1.38792,2.02654,2.75881,3.04087,4.13819.26076.56518.51619,1.12821.77588,1.69233-1.7551-.89619-3.5251-1.7647-5.32067-2.58318,2.07975,1.44645,4.10733,2.93973,6.1594,4.41172,3.42932,7.44831,6.82674,14.88386,10.12515,22.34813,1.93605,4.4841,3.92105,8.94053,5.74748,13.46188,1.86579,4.50219,3.71671,9.00758,5.38667,13.5779,1.74019,4.54158,3.38674,9.11828,4.85769,13.7418q2.28939,6.91456,4.0626,13.96745a124.98991,124.98991,0,0,1,2.713,14.25908,61.16631,61.16631,0,0,1,.27141,14.57093,47.98652,47.98652,0,0,0,1.77319-14.7093,94.4968,94.4968,0,0,0-1.571-14.80509,167.97753,167.97753,0,0,0-8.20294-28.50006,259.34878,259.34878,0,0,0-12.10911-26.96633c-3.48788-6.72242-7.2131-13.32458-11.30445-19.69471.099.07131.198.14155.29591.2118q3.59856,4.85821,7.20244,9.68983c2.29793,3.13451,4.63737,6.22963,6.89911,9.38116l3.43678,4.69166,3.35269,4.74593c2.24791,3.15153,4.48305,6.318,6.616,9.54188l3.24947,4.80981c1.02176,1.63909,2.07438,3.26008,3.142,4.87684,4.10626,6.55851,8.03371,13.20856,11.59288,20.20134a101.36013,101.36013,0,0,0-8.77451-21.83724,186.21118,186.21118,0,0,0-12.42093-20.00551q-6.82512-9.58713-14.56561-18.442c-.36934-.42255-.74931-.83445-1.12077-1.25487,2.0957,1.59227,4.21378,3.15792,6.27754,4.78319,3.71671,2.98549,7.43872,5.95183,10.99153,9.10762,3.57834,3.12173,7.11835,6.285,10.45191,9.64619a128.56754,128.56754,0,0,1,18.09711,21.66589c5.04289,7.90279,8.82771,16.722,9.60892,26.36072.99731-9.66-2.07227-19.5276-6.80757-28.02536a93.491,93.491,0,0,0-8.1763-12.15275" fill="#e4ebf1"/><path d="M241.50971,314.53487c0,6.02-7.40574,10.90106-16.54,10.90106-9.13529,0-16.54-4.8811-16.54-10.90106,0-6.021,7.40468-10.901,16.54-10.901,9.13425,0,16.54,4.88,16.54,10.901" fill="#e9a48a"/><path d="M219.48683,314.53487c0-4.7406,4.599-8.76277,11.01174-10.26458a24.31367,24.31367,0,0,0-5.5293-.63754c-9.1353,0-16.54,4.8811-16.54,10.90212,0,6.02,7.40467,10.90106,16.54,10.90106a24.31435,24.31435,0,0,0,5.5293-.63647c-6.4127-1.50181-11.01174-5.524-11.01174-10.26459" fill="#c58877"/><path d="M172.59205,402.12226a7.518,7.518,0,1,1-7.5175-7.51856,7.51789,7.51789,0,0,1,7.5175,7.51856" fill="#e9a48a"/><path d="M295.39022,402.12226a7.52493,7.52493,0,1,1-7.51751-7.51856,7.51859,7.51859,0,0,1,7.51751,7.51856" fill="#e9a48a"/><path d="M295.39022,402.12226a7.52493,7.52493,0,1,1-7.51751-7.51856,7.51859,7.51859,0,0,1,7.51751,7.51856" fill="#e9a48a"/><path d="M281.60254,406.99219a7.9403,7.9403,0,0,1,3.83105-12.42774l.25782.80078a7.10062,7.10062,0,0,0-3.42481,11.11133Z" fill="#303443"/><path d="M208.42964,461.95238c0,11.97286-43.35519,11.97286-43.35519,0a21.6776,21.6776,0,0,1,43.35519,0" fill="#82c56d"/><path d="M205.79492,452.49707a21.14915,21.14915,0,0,0-19.043-11.80078v-.8418a21.98468,21.98468,0,0,1,19.79493,12.26758Z" fill="#303443"/><path d="M284.86425,461.95238c0,11.97286-43.35412,11.97286-43.35412,0a21.67706,21.67706,0,0,1,43.35412,0" fill="#82c56d"/><path d="M378.72543,461.95238c0,11.97286-43.35519,11.97286-43.35519,0a21.6776,21.6776,0,0,1,43.35519,0" fill="#82c56d"/><path d="M465.80353,461.95238c0,11.97286-43.35412,11.97286-43.35412,0a21.67706,21.67706,0,0,1,43.35412,0" fill="#82c56d"/><path d="M255.2793,213.55127c-7.8877-29.58057-33.56934-76.88184-79.81446-66.52979l-.23242-1.03906c47.02344-10.52344,73.08985,37.34668,81.07617,67.29444Z" fill="#303443"/><rect x="239.20823" y="338.20978" width="1.06401" height="32.02086" transform="translate(-75.62771 65.27316) rotate(-13.41282)" fill="#303443"/><path d="M184.37109,410.33008l-1.05078-.17383c.03614-.2168,3.667-21.79883,10.43067-35.48437l.95507.4707C188.01172,388.68652,184.40625,410.11523,184.37109,410.33008Z" fill="#303443"/><path d="M447.325,440.53652a21.64576,21.64576,0,0,1,9.96336,18.22271c0,7.92408-18.99119,10.602-31.83682,8.03584,9.81652,6.81928,40.35161,5.20573,40.35161-4.84279A21.66244,21.66244,0,0,0,447.325,440.53652" fill="#4da258"/><path d="M360.04843,440.53652a21.64576,21.64576,0,0,1,9.96336,18.22271c0,7.92408-18.99119,10.602-31.83682,8.03584,9.81651,6.81928,40.35161,5.20573,40.35161-4.84279a21.66244,21.66244,0,0,0-18.47815-21.41576" fill="#4da258"/><path d="M266.38574,440.53652a21.64573,21.64573,0,0,1,9.96336,18.22271c0,7.92408-18.99119,10.602-31.83681,8.03584,9.81651,6.81928,40.3516,5.20573,40.3516-4.84279a21.66244,21.66244,0,0,0-18.47815-21.41576" fill="#4da258"/><path d="M189.75254,440.53652a21.64571,21.64571,0,0,1,9.96336,18.22271c0,7.92408-18.99117,10.602-31.8368,8.03584,9.8165,6.81928,40.35159,5.20573,40.35159-4.84279a21.66244,21.66244,0,0,0-18.47815-21.41576" fill="#4da258"/><path d="M302.017,175.40015a1.59746,1.59746,0,0,0,0-3.193,1.59746,1.59746,0,0,0,0,3.193" fill="#e4ebf1"/><path d="M151.92611,426.5249a1.59747,1.59747,0,0,0,0-3.19305,1.59747,1.59747,0,0,0,0,3.19305" fill="#e4ebf1"/><path d="M505.25889,167.59074a1.59747,1.59747,0,0,0,0-3.193,1.59747,1.59747,0,0,0,0,3.193" fill="#e4ebf1"/><path d="M249.306,127.9288c4.10944,0,4.1158-6.38609,0-6.38609-4.10841,0-4.11585,6.38609,0,6.38609" fill="#e4ebf1"/><path d="M384.40819,138.4549c4.10945,0,4.11581-6.38609,0-6.38609-4.1084,0-4.11584,6.38609,0,6.38609" fill="#e4ebf1"/><path d="M113.73919,431.31447c4.10944,0,4.11581-6.38609,0-6.38609-4.1084,0-4.11584,6.38609,0,6.38609" fill="#e4ebf1"/><path d="M548.65421,378.0998c4.10944,0,4.11581-6.38609,0-6.38609-4.1084,0-4.11584,6.38609,0,6.38609" fill="#e4ebf1"/><path d="M505.25869,268.64633c4.10944,0,4.11581-6.38609,0-6.38609-4.10841,0-4.11584,6.38609,0,6.38609" fill="#fff"/><path d="M318.30456,248.21875c4.10944,0,4.11581-6.38609,0-6.38609-4.1084,0-4.11584,6.38609,0,6.38609" fill="#fff"/><path d="M135.05262,278.11151c4.10944,0,4.11581-6.3861,0-6.3861-4.10841,0-4.11584,6.3861,0,6.3861" fill="#fff"/><path d="M280.35289,271.34585c4.10944,0,4.11581-6.38609,0-6.38609-4.1084,0-4.11584,6.38609,0,6.38609" fill="#fff"/><path d="M454.52111,250.35063c4.10944,0,4.11581-6.38609,0-6.38609-4.10841,0-4.11584,6.38609,0,6.38609" fill="#fff"/><path d="M176.55217,239.02435c4.10837,0,4.11583-6.38609,0-6.38609-4.10838,0-4.11584,6.38609,0,6.38609" fill="#fff"/><path d="M436.3385,206.83823c4.10837,0,4.11581-6.38609,0-6.38609-4.1084,0-4.11584,6.38609,0,6.38609" fill="#fff"/><path d="M305.10146,109.39275c4.10837,0,4.11581-6.38609,0-6.38609-4.10948,0-4.11584,6.38609,0,6.38609" fill="#e4ebf1"/><path d="M522.83617,216.60735c4.10837,0,4.11581-6.38609,0-6.38609-4.10947,0-4.11584,6.38609,0,6.38609" fill="#e4ebf1"/><path d="M113.73959,352.6508c4.10837,0,4.11581-6.38609,0-6.38609-4.10947,0-4.11584,6.38609,0,6.38609" fill="#e4ebf1"/><path d="M322.4368,412.8328c4.10837,0,4.11581-6.38609,0-6.38609-4.10947,0-4.11584,6.38609,0,6.38609" fill="#e4ebf1"/><path d="M112.5847,239.02435c4.10837,0,4.1158-6.38609,0-6.38609-4.10948,0-4.11584,6.38609,0,6.38609" fill="#e4ebf1"/><path d="M506.85985,416.02585c4.10837,0,4.11581-6.38609,0-6.38609-4.10947,0-4.11584,6.38609,0,6.38609" fill="#e4ebf1"/><path d="M324.47312,165.99422c4.10837,0,4.11581-6.3861,0-6.3861-4.10947,0-4.11584,6.3861,0,6.3861" fill="#fff"/><path d="M187.28092,397.655c4.10837,0,4.11583-6.38609,0-6.38609-4.10838,0-4.11584,6.38609,0,6.38609" fill="#fff"/><path d="M503.776,366.23583c4.10837,0,4.11474-6.38609,0-6.38609-4.10947,0-4.11584,6.38609,0,6.38609" fill="#fff"/><path d="M321.38884,298.79837c4.10837,0,4.11581-6.38609,0-6.38609-4.1084,0-4.11584,6.38609,0,6.38609" fill="#fff"/></svg>