<svg id="Layer_1" data-name="Layer 1" xmlns="http://www.w3.org/2000/svg" viewBox="0 0 700 550"><title>christmas Llama</title><path d="M482.62624,184.693a134.00079,134.00079,0,1,0-268.00158,0l1.37466,292.5757H484.00089Z" fill="#eef2fa"/><path d="M338.53275,432.0978a3.05171,3.05171,0,0,1-3.04079-2.83515L333.953,407.72612a3.05221,3.05221,0,0,1,6.08894-.43455l1.53892,21.53654a3.053,3.053,0,0,1-2.82772,3.26227c-.07314.0053-.14733.00742-.22043.00742" fill="#bfcbd7"/><path d="M360.80027,433.02825a3.0517,3.0517,0,0,1-3.04078-2.83514l-1.53786-21.53758a3.05221,3.05221,0,1,1,6.08894-.43455l1.53786,21.53652a3.05225,3.05225,0,0,1-2.82666,3.26228c-.0742.0053-.1484.00847-.2215.00847" fill="#bfcbd7"/><path d="M382.34749,431.19627a3.0517,3.0517,0,0,1-3.04079-2.83514l-1.53892-21.53653a3.05225,3.05225,0,1,1,6.08894-.43561l1.53893,21.53759a3.05375,3.05375,0,0,1-2.82773,3.26228c-.07313.00529-.14837.00741-.22043.00741" fill="#bfcbd7"/><path d="M400.30636,431.68063a3.05194,3.05194,0,0,1-3.04185-2.83513L395.72558,407.309a3.05221,3.05221,0,1,1,6.08894-.43455l1.539,21.53654a3.052,3.052,0,0,1-2.8267,3.26121c-.07419.00635-.14836.00847-.22042.00847" fill="#bfcbd7"/><path d="M440.65479,336.93315c-6.51926-11.79421-16.62831.513-16.62831.513-.22043-8.57116-11.86841-7.25161-11.86841-7.25161-7.0322-8.57117-17.14229-2.638-17.14229-2.638-4.61467-7.03222-19.4486-4.72489-19.4486-4.72489,0-3.62686-4.68991-6.373-4.68991-6.373,4.65174-6.15359-.91467-11.8684-.91467-11.8684,4.39528-5.4933-1.20826-13.73483-1.20826-13.73483,8.46093-6.48322,2.63589-15.49317,2.63589-15.49317,3.62687-10.11009-4.61361-13.73589-4.61361-13.73589,4.61361-6.81178-4.50551-17.69134-4.50551-17.69134,7.14247-8.13131-2.96762-15.60337-2.96762-15.60337,23.40613-16.15242,13.29607-25.16341,10.54888-26.37271-2.74719-1.20827-5.93314-.65925-7.80168,6.48425-1.86752,7.14247-9.56,10.54888-9.56,10.54888-3.84626-6.92411-10.658-3.39052-10.658-3.39052-5.9342-7.78474-10.76827.4229-10.76827.4229-6.92411-1.97771-8.462,3.62687-8.462,3.62687-7.28873-3.22308-8.3878-8.79163-9.12018-10.109-.73238-1.3185-4.6878-17.14233-10.69514-3.95649s12.89331,24.32079,12.89331,24.32079c-10.6962,2.78429-3.81023,11.72108-3.81023,11.72108-3.80916,3.51667-1.02593,8.05818-1.02593,8.05818-4.248,4.6878-.14523,9.96279-.14523,9.96279-8.64427,3.95542-4.10276,12.30613-4.10276,12.30613-4.54151,6.30092.43986,14.79789.43986,14.79789-2.4907,11.28229,4.248,12.89328,4.248,12.89328-6.73865,3.37039-2.78216,10.31889-2.78216,10.31889-2.78426,3.87063-.14733,8.1419-.14733,8.1419-4.8351,3.51665-1.31846,9.37666-1.31846,9.37666-3.22305,9.08415,1.31846,11.57483,1.31846,11.57483-5.71478,3.95544-.87861,9.37666-.87861,9.37666-4.249,9.37666,3.6629,19.04584,3.6629,19.04584-7.03327,12.60077,4.83407,20.07285,4.83407,20.07285-2.92949,13.47941,4.249,15.23773,4.249,15.23773-1.026,10.109,4.54155,15.82278,10.25636,15.67652a6.64738,6.64738,0,0,0,1.63537-.25543l.3328,4.67084a6.10522,6.10522,0,0,0,6.08363,5.66924c.1452,0,.29253-.00529.442-.01483a6.10675,6.10675,0,0,0,5.65335-6.52561l-.78219-10.93467a20.3792,20.3792,0,0,0,9.49642-1.22626l.02756,12.64a6.71506,6.71506,0,0,0,6.71532,6.69943h.01485a6.71482,6.71482,0,0,0,6.69944-6.73017l-.02438-11.13179a28.09377,28.09377,0,0,0,9.62042,1.36722l.63806,8.92516a6.10508,6.10508,0,0,0,6.08257,5.67029c.14626,0,.29359-.00424.44092-.01483a6.10422,6.10422,0,0,0,5.65439-6.52349l-.7239-10.14083a35.72452,35.72452,0,0,0,3.382-1.22839,13.94262,13.94262,0,0,0,2.35928,1.50185l.02542,11.60344a6.10643,6.10643,0,0,0,6.10589,6.091h.01275a6.10505,6.10505,0,0,0,6.091-6.11861l-.02332-10.75661c.51936-.15369.81188-.27027.81188-.27027,12.45346-5.12765,6.3009-20.21805,6.3009-20.21805,21.68386-11.135,9.23041-25.2005,9.23041-25.2005,19.92552-8.64428,7.1785-23.07545,7.1785-23.07545,12.81911,1.611,10.69514-6.00735,10.69514-6.00735" fill="#fff"/><path d="M350.84958,410.61786l-.00107-.47375a20.41418,20.41418,0,0,1-3.63747,1.009,20.11794,20.11794,0,0,0,3.63854-.53524" fill="#f0efef"/><path d="M339.34207,215.89487a9.15175,9.15175,0,0,1,2.15154-.71116c-2.54265-3.10224-4.868-3.31526-6.674-2.57337,1.37679.23848,2.9083,1.16693,4.52249,3.28453" fill="#f0efef"/><path d="M350.00086,219.28465a17.47883,17.47883,0,0,0,1.99042-1.1033,7.40765,7.40765,0,0,0-8.47895-3.18278c2.12821.05615,4.6475.97189,6.48853,4.28608" fill="#f0efef"/><path d="M409.66712,330.487s11.64794-1.31847,11.86734,7.25268a20.54464,20.54464,0,0,1,2.20981-2.21088c-1.78481-6.4387-11.58542-5.33431-11.58542-5.33431a12.14479,12.14479,0,0,0-12.41849-4.33805,11.87239,11.87239,0,0,1,9.92676,4.63056" fill="#f0efef"/><path d="M328.57264,216.31723s.16321-.27661.46421-.6783a6.92777,6.92777,0,0,0-2.76521.27027,10.55783,10.55783,0,0,1,2.301.408" fill="#f0efef"/><path d="M367.36235,202.25223c2.74716,1.20934,12.85618,10.22032-10.54887,26.37274,0,0,10.109,7.47206,2.96655,15.60231,0,0,9.12018,10.87956,4.50551,17.69241,0,0,8.24047,3.6258,4.61467,13.73589,0,0,5.824,9.01-2.637,15.49314,0,0,5.60458,8.24049,1.2093,13.7359,0,0,5.56431,5.71375.91467,11.86629,0,0,4.68887,2.74718,4.68887,6.374,0,0,14.835-2.30733,19.44964,4.72491a14.59228,14.59228,0,0,1,2.02965-.92422c-5.0651-6.25852-18.98859-4.09321-18.98859-4.09321,0-3.62687-4.68994-6.374-4.68994-6.374,4.65178-6.1536-.91467-11.86736-.91467-11.86736,4.39635-5.49435-1.20823-13.73484-1.20823-13.73484,8.46093-6.48425,2.637-15.49421,2.637-15.49421,3.62687-10.11008-4.61467-13.73482-4.61467-13.73482,4.61467-6.81284-4.50551-17.69241-4.50551-17.69241,7.1435-8.13131-2.96762-15.60337-2.96762-15.60337,23.40612-16.15239,13.296-25.16341,10.54991-26.37164a4.43441,4.43441,0,0,0-3.80279-.12721,6.21681,6.21681,0,0,1,1.31212.4197" fill="#f0efef"/><path d="M440.65479,336.93315c-2.73658-4.94959-6.10486-5.65334-9.09263-4.80437,2.27448.13883,4.60724,1.488,6.60193,5.098,0,0,1.30045,4.66979-4.28718,5.92254,8.426-.284,6.77788-6.21613,6.77788-6.21613" fill="#f0efef"/><path d="M427.46856,343.23332s12.74595,14.43118-7.1785,23.07546c0,0,12.45346,14.06551-9.23041,25.20051,0,0,6.15256,15.0904-6.30089,20.21911,0,0-.29253.11552-.81189.27025l.02332,10.75556a6.10349,6.10349,0,0,1-4.1621,5.79748c.18126.017.36355.02756.549.02756h.01378a6.10422,6.10422,0,0,0,6.09108-6.11756l-.02439-10.75661c.51933-.15369.81292-.27028.81292-.27028,12.45345-5.12764,6.29986-20.21911,6.29986-20.21911,21.68387-11.13392,9.23041-25.19943,9.23041-25.19943,17.70933-7.683,9.61088-19.93613,7.5897-22.56779a27.17138,27.17138,0,0,1-2.9019-.21515" fill="#f0efef"/><path d="M310.99162,209.83485c.73235,1.31849,1.83145,6.886,9.12015,10.10905a5.532,5.532,0,0,1,.584-1.26445c-5.58549-3.26651-6.55-7.94371-7.21346-9.1371-.59353-1.06837-3.30148-11.648-7.49962-8.62948,2.77261,1.37785,4.54364,8.08257,5.009,8.922" fill="#f0efef"/><path d="M388.4852,410.6116c.55536-.17487,1.04926-.34233,1.48061-.495-.19711-.13991-.39531-.2851-.59032-.43984a35.80209,35.80209,0,0,1-3.382,1.22732l.72494,10.14188a6.10287,6.10287,0,0,1-4.15891,6.21932c.1823.017.3667.02544.55429.02544.1452,0,.2936-.00425.44093-.01378a6.10653,6.10653,0,0,0,5.65439-6.52456Z" fill="#f0efef"/><path d="M343.87246,411.48a20.77477,20.77477,0,0,1-2.51933-.11022l.78113,10.93572a6.1008,6.1008,0,0,1-4.15787,6.22037c.18229.017.36672.02649.55325.02649.14626,0,.29253-.00423.442-.01483a6.105,6.105,0,0,0,5.65335-6.52455Z" fill="#f0efef"/><path d="M364.28214,411.62177l.02436,11.13181a6.71733,6.71733,0,0,1-4.67827,6.41433c.1505.00954.301.02225.45364.02225h.01588a6.7139,6.7139,0,0,0,6.69944-6.72911l-.02118-10.14293a24.2417,24.2417,0,0,1-2.49387-.69635" fill="#f0efef"/><path d="M321.05009,225.05594c.15577-1.87806-2.99521-2.14623-5.275-5.42122-1.983-2.85-.93479-4.57014-3.51557-7.76459-.82139-1.01643-1.91626-2.37306-3.07681-2.19924-1.56435.23634-2.6783,3.16373-2.638,5.56855.06783,4.0805,3.45835,6.84571,6.73968,9.52294,3.70107,3.01849,5.25167,2.64223,5.71378,2.49069a2.9193,2.9193,0,0,0,2.05191-2.19713" fill="#f6978f"/><path d="M346.74049,252.1519c0,8.25322-4.06673,14.94522-9.08309,14.94522-5.01742,0-9.08521-6.692-9.08521-14.94522s4.06779-14.94412,9.08521-14.94412c5.01636,0,9.08309,6.69094,9.08309,14.94412" fill="#f0efef"/><path d="M340.7378,258.42785c-1.27,0-2.34744-1.16855-2.97467-2.04107-.59928,1.26894-1.35175,1.951-2.245,2.03279-1.95413.19873-3.56567-2.61345-3.74473-2.9312l.92428-.51958c.36744.65206,1.64777,2.51511,2.7242,2.395.63861-.058,1.23789-.856,1.73263-2.306l.39228-1.14888.57651,1.06918c.33949.6293,1.53391,2.38988,2.61552,2.38988a.58181.58181,0,0,0,.06-.00207c.86528-.05278,1.5277-1.29585,1.93136-2.32985l.98742.385c-.7504,1.92412-1.71194,2.93431-2.85565,3.00366C340.8206,258.42682,340.77817,258.42785,340.7378,258.42785Z" fill="#303443"/><rect x="337.12762" y="249.0743" width="1.05987" height="6.15531" fill="#303443"/><path d="M321.47956,246.19949a3.83991,3.83991,0,1,1-3.83992-3.83882,3.83983,3.83983,0,0,1,3.83992,3.83882" fill="#f6978f"/><path d="M360.59848,246.19949a3.83991,3.83991,0,1,1-3.83993-3.83882,3.83983,3.83983,0,0,1,3.83993,3.83882" fill="#f6978f"/><path d="M325.17979,235.136l.01164-.00424c-.0371-.02011-.08478-.0392-.12718-.05828-.02332-.00954-.04557-.02119-.06889-.0318-1.34286-.549-4.73762-.37306-4.73762-.37306l1.84523,1.41705.01165-.00106a2.26059,2.26059,0,0,0-.28085,1.07895,2.29358,2.29358,0,1,0,3.346-2.02756" fill="#303443"/><path d="M324.74514,237.48873a.91681.91681,0,0,0,0-1.83249.91681.91681,0,0,0,0,1.83249" fill="#fff"/><path d="M349.63032,235.136l-.01168-.00424c.0371-.02011.08478-.0392.12718-.05828.02332-.00954.04451-.02119.06889-.0318,1.34286-.549,4.73762-.37306,4.73762-.37306l-1.84523,1.41705-.01164-.00106a2.26058,2.26058,0,0,1,.28084,1.07895,2.29358,2.29358,0,1,1-3.346-2.02756" fill="#303443"/><path d="M350.065,237.48873a.91684.91684,0,0,0,0-1.83249.91684.91684,0,0,0,0,1.83249" fill="#fff"/><path d="M317.63967,287.84384s-5.0609,15.97753-3.83992,24.32929H330.4047l1.83042-23.7347s4.54258,28.51577,4.54258,32.27937c0,0,14.70037-1.73183,16.14074-4.58923,0,0-3.24743-21.44751-6.17795-27.865-2.93056-6.41857-29.10082-.41974-29.10082-.41974" fill="#ef403a"/><path d="M317.63967,287.84384s-5.0609,15.97753-3.83992,24.32929H330.4047l1.83042-23.7347s4.54258,28.51577,4.54258,32.27937c0,0,14.70037-1.73183,16.14074-4.58923,0,0-3.24743-21.44751-6.17795-27.865-2.93056-6.41857-29.10082-.41974-29.10082-.41974" fill="#ef403a"/><path d="M348.17607,292.41973a31.183,31.183,0,0,0-1.43507-4.1568c-2.93055-6.41856-29.10188-.41864-29.10188-.41864s-.51829,1.63855-1.18281,4.13772c4.37513.32008,9.48794.54585,15.45711.63486l.32222-4.17905s.26176,1.64492.66028,4.19283c1.55484.01908,3.16266.02969,4.83513.02969,3.80493,0,7.27492-.08584,10.445-.24061" fill="#c72932"/><path d="M362.0154,231.71838h-50.454a4.79919,4.79919,0,0,1-4.7991-4.798v-.00214a4.80032,4.80032,0,0,1,4.7991-4.80013h50.454a4.79963,4.79963,0,0,1,4.79907,4.80013v.00214a4.7985,4.7985,0,0,1-4.79907,4.798" fill="#fff"/><path d="M363.73982,233.596c-.00744-.01271-.01485-.02435-.02122-.03706-.09538-.18974-.19607-.37413-.301-.55539-.02542-.04558-.053-.09008-.08054-.13459q-.13036-.21939-.265-.43138c-.03393-.053-.06783-.10279-.10283-.15474-.08691-.13038-.17382-.25859-.26283-.38474-.036-.05191-.07313-.10385-.11023-.15473-.089-.12188-.17806-.24165-.26814-.35825-.03606-.04661-.07209-.09432-.10919-.13989-.09325-.11977-.1876-.23528-.283-.34871-.03072-.03813-.06252-.0763-.09325-.11233-.10706-.12508-.21091-.24589-.31584-.36249-.018-.02118-.03817-.04344-.05725-.06466-.25222-.27871-.49707-.53417-.727-.75883l-.02546-.02546c-.10175-.10069-.20138-.195-.29676-.28405-.02649-.02542-.052-.04767-.07737-.07206-.07523-.07-.1505-.13883-.21939-.20031-.02756-.02439-.053-.04664-.07844-.07-.06359-.05615-.125-.11023-.18122-.159-.02546-.02118-.04982-.0424-.0742-.06252-.05088-.04451-.09962-.08584-.1452-.12191l-.05935-.04981q-.0636-.05085-.11447-.09218c-.01164-.00954-.02649-.02015-.0371-.02969-.03286-.02439-.05828-.04558-.07947-.06149l-.01805-.01375-.03283-.02438c.42394-.29146.83411-.58188,1.23473-.8691.11767-.08374.23107-.16745.3487-.25012.28616-.20986.57021-.41654.84578-.62215q.17806-.132.35295-.2639c.29039-.21833.57337-.43669.85212-.65184.08054-.06146.16217-.125.24271-.18654q.54213-.42762,1.0588-.84681l.00214-.00107H315.1872a4.79024,4.79024,0,0,0-3.95328,2.08157c.15366.12615.3063.248.4568.36779h.00107a40.36774,40.36774,0,0,0,3.89287,2.75991l.01591.00954c.01908.01057.03393.02118.04664.02859l.018.00954a.05889.05889,0,0,0,.01484.00954c-3.60358.938-5.20716,2.57548-5.754,4.33276h54.11479c-.09435-.21836-.194-.43348-.301-.64337" fill="#f0efef"/><path d="M333.70124,244.826s2.78319,4.249,3.95542,4.249,3.95649-4.249,3.95649-4.249Z" fill="#f6978f"/><path d="M417.69731,358.92389a7.403,7.403,0,0,1-6.8612-4.6421,7.38947,7.38947,0,0,1-14.24923-2.749h1.05987a6.32971,6.32971,0,1,0,12.65942,0H411.366a6.33834,6.33834,0,0,0,6.33127,6.33127Z" fill="#303443"/><path d="M390.25665,358.92389a4.01268,4.01268,0,0,1-1.418-.27324l.37468-.99156a2.96279,2.96279,0,0,0,1.04331.20494,6.33812,6.33812,0,0,0,6.33023-6.33127h1.05987A7.3987,7.3987,0,0,1,390.25665,358.92389Z" fill="#303443"/><path d="M387.67529,393.29614a7.40172,7.40172,0,0,1-6.86017-4.64107,7.38972,7.38972,0,0,1-14.24923-2.749h1.05987a6.32972,6.32972,0,1,0,12.65943,0h1.05986a6.3379,6.3379,0,0,0,6.33024,6.33023Z" fill="#303443"/><path d="M360.23566,393.29717a4.03122,4.03122,0,0,1-1.419-.27324l.37468-.99156a2.977,2.977,0,0,0,1.04435.20494,6.33812,6.33812,0,0,0,6.33023-6.33127h1.05987A7.3987,7.3987,0,0,1,360.23566,393.29717Z" fill="#303443"/><path d="M340.005,329.51668a7.403,7.403,0,0,1-6.8612-4.6421,7.38947,7.38947,0,0,1-14.24923-2.748h1.05987a6.32972,6.32972,0,1,0,12.65943,0h1.05986a6.33812,6.33812,0,0,0,6.33127,6.33023Z" fill="#303443"/><path d="M312.56434,329.51668a4.02575,4.02575,0,0,1-1.418-.27325l.37468-.99156a2.97159,2.97159,0,0,0,1.04331.20494,6.33811,6.33811,0,0,0,6.33126-6.33023h1.05987A7.3987,7.3987,0,0,1,312.56434,329.51668Z" fill="#303443"/><path d="M373.18749,283.99143A13.41352,13.41352,0,0,0,371.391,275.362c1.64386-4.58284.84682-7.82924-.514-10.01467-5.8971,7.01843-8.82659,6.82873-38.64173,7.488-29.811.65921-25.69228-9.79852-25.69124-9.80062-2.58395,4.06142.05194,8.92091.05194,8.92091-4.54154,6.29986.43986,14.79682.43986,14.79682-.00317.01592-.00531.0297-.00848.04347a230.75161,230.75161,0,0,0,30.70333,1.64172c18.69714,0,29.37212-2.03283,35.45686-4.44616" fill="#ef403a"/><path d="M373.187,283.99162l.00207-.01022a13.12488,13.12488,0,0,0-1.40453-7.91719l-.001-.00265c-.11282-.21982-.20908-.39092-.27739-.50949l-.01656-.028c-.02381-.04036-.04451-.07387-.059-.09884l-.0207-.03338-.01035-.01572-.00828-.01417.001-.00271c.19045-.5333.3426-1.04454.46991-1.54207.01449-.05479.03208-.11139.04554-.16573.11592-.47165.20079-.92512.265-1.36494.01035-.06721.0207-.1352.03-.20177a12.43475,12.43475,0,0,0,.1004-1.24643c.00207-.05919.00207-.11761.0031-.17615a10.76239,10.76239,0,0,0-.0445-1.17088c-.00311-.03286-.00725-.06456-.01035-.09716a9.44946,9.44946,0,0,0-1.37452-4.04683c-.58583.69729-1.14267,1.3207-1.69952,1.88362a11.81324,11.81324,0,0,1-.27738,8.42468s2.836,4.39512,1.66639,9.25444Q371.99927,284.46385,373.187,283.99162Z" fill="#c72932"/><path d="M309.82007,277.26689a.91684.91684,0,0,0,0-1.83249.91684.91684,0,0,0,0,1.83249" fill="#fff"/><path d="M318.90344,282.83427a.91683.91683,0,0,0,0-1.83248.91683.91683,0,0,0,0,1.83248" fill="#fff"/><path d="M329.15947,279.90414a.91683.91683,0,0,0,0-1.83248.91683.91683,0,0,0,0,1.83248" fill="#fff"/><path d="M341.46605,295.72661a.91627.91627,0,0,0,0-1.83145.91627.91627,0,0,0,0,1.83145" fill="#fff"/><path d="M325.05662,301.00115a.91627.91627,0,0,0,0-1.83145.91627.91627,0,0,0,0,1.83145" fill="#fff"/><path d="M331.50381,287.522a.9163.9163,0,0,0,0-1.83145.9163.9163,0,0,0,0,1.83145" fill="#fff"/><path d="M308.35437,286.35026a.91628.91628,0,0,0,0-1.83145.91628.91628,0,0,0,0,1.83145" fill="#fff"/><path d="M339.70844,275.80129a.9163.9163,0,0,0,0-1.83145.9163.9163,0,0,0,0,1.83145" fill="#fff"/><path d="M339.70844,283.12722a.91684.91684,0,0,0,0-1.83249.91684.91684,0,0,0,0,1.83249" fill="#fff"/><path d="M318.0247,294.55493a.9163.9163,0,0,0,0-1.83145.9163.9163,0,0,0,0,1.83145" fill="#fff"/><path d="M316.852,308.91287a.91627.91627,0,0,0,0-1.83145.91627.91627,0,0,0,0,1.83145" fill="#fff"/><path d="M327.10811,310.37845a.91684.91684,0,0,0,0-1.8325.91684.91684,0,0,0,0,1.8325" fill="#fff"/><path d="M326.22937,291.62483a.9163.9163,0,0,0,0-1.83145.9163.9163,0,0,0,0,1.83145" fill="#f0efef"/><path d="M337.36414,303.05253a.9163.9163,0,0,0,0-1.83145.9163.9163,0,0,0,0,1.83145" fill="#fff"/><path d="M344.68909,289.28049a.91627.91627,0,0,0,0-1.83145.91627.91627,0,0,0,0,1.83145" fill="#fff"/><path d="M348.20605,305.68981a.9163.9163,0,0,0,0-1.83145.9163.9163,0,0,0,0,1.83145" fill="#fff"/><path d="M342.05184,312.72278a.91681.91681,0,0,0,0-1.8325.91681.91681,0,0,0,0,1.8325" fill="#fff"/><path d="M347.91321,315.0671a.91684.91684,0,0,0,0-1.8325.91684.91684,0,0,0,0,1.8325" fill="#fff"/><path d="M350.25648,278.14563a.91627.91627,0,0,0,0-1.83145.91627.91627,0,0,0,0,1.83145" fill="#fff"/><path d="M319.48923,274.04381a.9168.9168,0,0,0,0-1.83248.9168.9168,0,0,0,0,1.83248" fill="#fff"/><path d="M359.048,285.17871a.91684.91684,0,0,0,0-1.83249.91684.91684,0,0,0,0,1.83249" fill="#fff"/><path d="M357.5824,273.457a.91627.91627,0,0,0,0-1.83145.91627.91627,0,0,0,0,1.83145" fill="#fff"/><path d="M366.66578,279.31731a.91627.91627,0,0,0,0-1.83145.91627.91627,0,0,0,0,1.83145" fill="#fff"/><path d="M368.42432,269.35517a.91682.91682,0,0,0,0-1.83249.91682.91682,0,0,0,0,1.83249" fill="#fff"/><path d="M354.06638,288.6946a.91683.91683,0,0,0,0-1.83248.91683.91683,0,0,0,0,1.83248" fill="#fff"/><path d="M370.47572,285.76447a.91684.91684,0,0,0,0-1.83249.91684.91684,0,0,0,0,1.83249" fill="#fff"/><path d="M348.499,283.713a.9163.9163,0,0,0,0-1.83145.9163.9163,0,0,0,0,1.83145" fill="#fff"/><path d="M315.15353,231.50005s30.84639-4.337,43.50336,0c0,0-1.90141-14.14181,6.92094-13.21126,8.82236.93163,17.20379,13.87158,20.58584,16.22449,0,0-2.66559-9.3258-11.17526-24.26251-8.49487-14.90706-29.55549-23.67323-50.28758-11.32153-16.22025,9.6639-15.71257,24.41091-9.5473,32.57081" fill="#ef403a"/><path d="M357.009,206.68112c-15.879-6.61674-22.64305,16.17467-22.64305,16.17467l24.11942,5.42759c.02439-4.11336,1.01006-10.63579,7.09266-9.99455,8.82235.93162,17.20271,13.87154,20.58583,16.22445-5.54843-10.693-13.27488-21.21646-29.15486-27.83216" fill="#c72932"/><path d="M362.0154,231.71838h-50.454a4.79919,4.79919,0,0,1-4.7991-4.798v-.00214a4.80032,4.80032,0,0,1,4.7991-4.80013h50.454a4.79963,4.79963,0,0,1,4.79907,4.80013v.00214a4.7985,4.7985,0,0,1-4.79907,4.798" fill="#fff"/><path d="M391.23631,234.513a5.07255,5.07255,0,1,1-5.07254-5.07358,5.07287,5.07287,0,0,1,5.07254,5.07358" fill="#fff"/><path d="M316.68738,218.14509a2.91042,2.91042,0,0,1-2.38791-2.94537,11.47458,11.47458,0,0,1,1.83359-6.16631c2.79593-4.20875,8.41322-5.99462,9.4095-4.85208.43242.495-.27557,1.23262-1.61736,5.4403-1.05563,3.31209-.87013,3.65126-1.61736,4.85208-.25119.40383-2.62742,4.11867-5.58763,3.67668-.01058-.0021-.02225-.00424-.03283-.0053" fill="#f6978f"/><path d="M386.16367,239.58569a5.0464,5.0464,0,0,0,3.30148-1.22625c-6.00523-1.79542-5.75932-8.25532-5.75828-8.28394a5.07239,5.07239,0,0,0,2.4568,9.51019" fill="#bfcbd7"/><path d="M350.01842,226.3777s-2.142-2.44192,2.47265-7.38622c0,0,7.69252-3.40641,9.56-10.54888s5.05449-7.69252,7.80168-6.48318,12.85725,10.22028-10.54887,26.3727" fill="#fff"/><path d="M359.30362,228.3318l-9.28552-1.95439a2.88415,2.88415,0,0,1-.47375-2.124c-2.45043,3.62157-.88182,5.41595-.88182,5.41595l9.2855,1.95332c9.67977-6.68036,13.62462-12.13868,14.73113-16.32937-2.01481,3.63427-6.05611,7.98715-13.37554,13.03847" fill="#f0efef"/><path d="M355.09213,222.8741c-.15687-1.877,2.99411-2.14623,5.27495-5.42122,1.983-2.85.9348-4.57013,3.51557-7.76459.82036-1.01643,1.91626-2.37306,3.07575-2.19817,1.56542.23528,2.6783,3.16266,2.638,5.56748-.06786,4.0805-3.45835,6.84571-6.73972,9.524-3.7,3.01743-5.25166,2.64223-5.71374,2.48963a2.91641,2.91641,0,0,1-2.05084-2.19714" fill="#f6978f"/><path d="M341.90738,210.54124l-.82906-.66034c.05279-.06728,5.44218-6.68318,14.14366-4.38231l-.27118,1.02468A12.798,12.798,0,0,0,341.90738,210.54124Z" fill="#303443"/><path d="M342.06316,117.973c4.09108,0,4.09849-6.35921,0-6.35921-4.09111,0-4.09851,6.35921,0,6.35921" fill="#fff"/><path d="M407.69012,209.546c4.09107,0,4.09848-6.35921,0-6.35921-4.09111,0-4.09852,6.35921,0,6.35921" fill="#fff"/><path d="M237.68688,269.49179c4.09214,0,4.0985-6.35921,0-6.35921-4.09109,0-4.09747,6.35921,0,6.35921" fill="#fff"/><path d="M390.902,97.36974c4.09107,0,4.09848-6.35921,0-6.35921-4.09111,0-4.09852,6.35921,0,6.35921" fill="#fff"/><path d="M298.56614,149.2608c4.09108,0,4.09849-6.35921,0-6.35921-4.09111,0-4.09851,6.35921,0,6.35921" fill="#fff"/><path d="M331.37957,74.476c4.09108,0,4.09849-6.35921,0-6.35921-4.09111,0-4.09852,6.35921,0,6.35921" fill="#fff"/><path d="M380.21844,175.96867c4.09107,0,4.09848-6.35922,0-6.35922-4.09111,0-4.09852,6.35922,0,6.35922" fill="#fff"/><path d="M402.54713,139.43531c4.09214,0,4.09848-6.35921,0-6.35921-4.09111,0-4.09852,6.35921,0,6.35921" fill="#fff"/><path d="M465.68594,253.04306c4.09214,0,4.09848-6.35921,0-6.35921-4.09111,0-4.09852,6.35921,0,6.35921" fill="#fff"/><path d="M397.00665,265.25232c4.09215,0,4.09849-6.35922,0-6.35922-4.09111,0-4.09851,6.35922,0,6.35922" fill="#fff"/><path d="M266.51553,354.53587c4.09215,0,4.09849-6.35921,0-6.35921-4.09111,0-4.09852,6.35921,0,6.35921" fill="#fff"/><path d="M456.529,346.14181c4.09108,0,4.09848-6.35921,0-6.35921-4.09111,0-4.09852,6.35921,0,6.35921" fill="#fff"/><path d="M442.03031,284.33c4.09108,0,4.09848-6.35921,0-6.35921-4.09218,0-4.09852,6.35921,0,6.35921" fill="#fff"/><path d="M235.90661,309.23687a1.59074,1.59074,0,0,0,0-3.17961,1.59074,1.59074,0,0,0,0,3.17961" fill="#fff"/><path d="M264.98983,296.54016c4.09108,0,4.09849-6.35919,0-6.35919-4.09217,0-4.09851,6.35919,0,6.35919" fill="#fff"/><path d="M455.7662,382.77045c4.09107,0,4.09848-6.35921,0-6.35921-4.09218,0-4.09852,6.35921,0,6.35921" fill="#fff"/><path d="M228.23285,417.78852c4.09215,0,4.0985-6.35921,0-6.35921-4.09109,0-4.09746,6.35921,0,6.35921" fill="#fff"/><path d="M462.63361,417.11051c4.09214,0,4.09848-6.35921,0-6.35921-4.09111,0-4.09852,6.35921,0,6.35921" fill="#fff"/><path d="M288.64537,410.24214c4.09214,0,4.09848-6.35921,0-6.35921-4.09111,0-4.09748,6.35921,0,6.35921" fill="#fff"/><path d="M426.005,406.427c4.09108,0,4.09848-6.35921,0-6.35921-4.09218,0-4.09852,6.35921,0,6.35921" fill="#fff"/><path d="M341.14406,169.19651c4.09214,0,4.09848-6.35921,0-6.35921-4.09111,0-4.09852,6.35921,0,6.35921" fill="#f0efef"/><path d="M312.55665,107.79865c4.09108,0,4.09848-6.35921,0-6.35921-4.09218,0-4.09852,6.35921,0,6.35921" fill="#f0efef"/><path d="M447.37215,110.34171c4.09108,0,4.09849-6.35921,0-6.35921-4.09218,0-4.09852,6.35921,0,6.35921" fill="#f0efef"/><path d="M356.81642,77.27357c4.09108,0,4.09848-6.35921,0-6.35921-4.09111,0-4.09852,6.35921,0,6.35921" fill="#f0efef"/><path d="M365.97338,135.27033c4.09214,0,4.09848-6.35921,0-6.35921-4.09111,0-4.09748,6.35921,0,6.35921" fill="#f0efef"/><path d="M236.50067,165.45488c4.09108,0,4.0985-6.35921,0-6.35921-4.09216,0-4.09851,6.35921,0,6.35921" fill="#fff"/><path d="M227.555,216.1806a1.59074,1.59074,0,0,0,0-3.1796,1.59074,1.59074,0,0,0,0,3.1796" fill="#fff"/><path d="M391.91949,240.57825c4.09108,0,4.09849-6.35921,0-6.35921-4.09111,0-4.09852,6.35921,0,6.35921" fill="#f0efef"/><path d="M472.809,223.28193c4.09108,0,4.09848-6.35921,0-6.35921-4.09218,0-4.09852,6.35921,0,6.35921" fill="#f0efef"/><path d="M431.09213,231.51141c4.09108,0,4.09849-6.35922,0-6.35922-4.09111,0-4.09852,6.35922,0,6.35922" fill="#f0efef"/><path d="M426.005,288.61393c4.09108,0,4.09848-6.35921,0-6.35921-4.09218,0-4.09852,6.35921,0,6.35921" fill="#f0efef"/><path d="M371.56981,290.43448c4.09214,0,4.09848-6.35921,0-6.35921-4.09111,0-4.09852,6.35921,0,6.35921" fill="#f0efef"/><path d="M469.75667,312.81911c4.09108,0,4.09745-6.35921,0-6.35921-4.09218,0-4.09852,6.35921,0,6.35921" fill="#f0efef"/><path d="M429.0573,366.745c4.09108,0,4.09848-6.35921,0-6.35921-4.09111,0-4.09852,6.35921,0,6.35921" fill="#f0efef"/><path d="M236.41577,389.06649a1.59076,1.59076,0,0,0,0-3.17961,1.59076,1.59076,0,0,0,0,3.17961" fill="#fff"/><path d="M274.90958,324.01186c4.09214,0,4.09848-6.35921,0-6.35921-4.09111,0-4.09852,6.35921,0,6.35921" fill="#f0efef"/><path d="M225.43522,335.88154c4.09108,0,4.0985-6.35921,0-6.35921-4.09109,0-4.09852,6.35921,0,6.35921" fill="#fff"/><path d="M299.85783,192.09033c4.09214,0,4.09848-6.35922,0-6.35922-4.09111,0-4.09852,6.35922,0,6.35922" fill="#f0efef"/><path d="M422.65568,180.644c4.09108,0,4.09849-6.35921,0-6.35921-4.09111,0-4.09851,6.35921,0,6.35921" fill="#f0efef"/><path d="M268.99232,369.16183l-1.29518-190.97348A133.795,133.795,0,0,1,322.53687,74.41557a134.01636,134.01636,0,0,0-76.03708,116.4912L247.795,381.88026h21.19737Z" fill="#fff"/><rect x="247.79537" y="392.47938" width="21.19737" height="11.65856" fill="#fff"/><rect x="247.79537" y="413.67676" width="21.19737" height="31.79606" fill="#fff"/><rect x="215.99931" y="433.77186" width="268.00158" height="29.75475" fill="#bc6a3b"/><rect x="215.99931" y="452.08639" width="268.00158" height="11.44022" fill="#9f5325"/><path d="M489.09717,499.30831H210.90283a7.41908,7.41908,0,0,1-7.41908-7.41908V466.37289a7.41909,7.41909,0,0,1,7.41908-7.41908H489.09717a7.41975,7.41975,0,0,1,7.41908,7.41908v25.51634a7.41975,7.41975,0,0,1-7.41908,7.41908" fill="#bc6a3b"/><path d="M462.35412,186.15134a153.36265,153.36265,0,0,0-8.14723-33.63916,129.8793,129.8793,0,0,0-15.86837-29.98052,131.51818,131.51818,0,0,0-23.0871-24.86875,151.765,151.765,0,0,0-29.05418-18.81267A90.83527,90.83527,0,0,1,418.75958,93.0016a102.78748,102.78748,0,0,1,40.98617,57.74589,91.80732,91.80732,0,0,1,2.60837,35.40385" fill="#fff"/></svg>