<svg id="Layer_1" data-name="Layer 1" xmlns="http://www.w3.org/2000/svg" viewBox="0 0 700 550"><title>christmas tree on the way</title><path d="M293.9947,192.32964c-73.09082,4.47279-100.24029-32.46669-136.1105-9.19972-50.69052,32.88015-55.941,145.22122-13.65614,175.15229,25.87405,18.314,51.30071-7.13961,113.59075-13.40082,128.03977-12.86676,172.68577,79.4,251.97455,53.6103,65.341-21.25252,120.55935-111.73791,100.04584-190.13539-10.871-41.54817-45.72-90.045-94.77781-100.31644-76.47907-16.01258-108.56281,77.40432-221.06669,84.28978" fill="#edf2fa"/><path d="M466.23131,165.77979c4.52079,0,4.529-7.02717,0-7.02717-4.522,0-4.529,7.02717,0,7.02717" fill="#fff"/><path d="M302.638,91.34013c4.522,0,4.529-7.02718,0-7.02718-4.52083,0-4.529,7.02718,0,7.02718" fill="#edf2fa"/><path d="M192.17154,375.75093c4.5208,0,4.529-7.02717,0-7.02717-4.522,0-4.529,7.02717,0,7.02717" fill="#fff"/><path d="M645.84518,202.39113a5.27038,5.27038,0,1,0-5.27038-5.27038,5.32891,5.32891,0,0,0,5.27038,5.27038" fill="#edf2fa"/><path d="M339.74217,266.97038c4.5208,0,4.529-7.02718,0-7.02718-4.522,0-4.529,7.02718,0,7.02718" fill="#fff"/><path d="M148.00118,424.4825V399.13783a63.3181,63.3181,0,0,1,58.80807-63.15789l74.64614-5.33246,21.75265-54.621a19.47983,19.47983,0,0,1,18.7239-12.2636l116.56793,3.749a58.63309,58.63309,0,0,1,56.72332,56.8276l.71445,23.58554,24.75673,27.36263a35.60621,35.60621,0,0,1,9.20208,23.88889v25.306Z" fill="#ef403a"/><path d="M529.89681,399.176a35.60327,35.60327,0,0,0-9.20212-23.8877L495.938,347.92449l-.71442-23.58436a58.635,58.635,0,0,0-56.72335-56.82876l-40.56906-1.30355s32.12593,24.79539,48.21228,82.70515c10.33582,37.20889,33.95295,62.34978,49.51815,75.56907h34.23525Z" fill="#c72932"/><rect x="516.42616" y="372.22106" width="17.27749" height="22.04307" fill="#c72932"/><path d="M537.64258,418.5093h-396.791a2.06934,2.06934,0,0,1,0-4.13867h396.791a2.06934,2.06934,0,0,1,0,4.13867Z" fill="#fff"/><path d="M390.02127,333.62559H307.671a54.21631,54.21631,0,0,1,54.21584-54.21582h27.30643a2.48171,2.48171,0,0,1,2.48175,2.483v50.07916a1.65345,1.65345,0,0,1-1.65372,1.65371" fill="#f0efef"/><path d="M470.31916,333.62559H405.84131a1.65445,1.65445,0,0,1-1.65489-1.65371V281.89272a2.48272,2.48272,0,0,1,2.48293-2.483h9.434a54.21707,54.21707,0,0,1,54.21584,54.21582" fill="#f0efef"/><path d="M470.31916,333.62559a54.21707,54.21707,0,0,0-54.21584-54.21582h-5.18721c9.06037,10.81366,21.13071,28.54674,30.36792,54.217h29.03513Z" fill="#e4ebf1"/><path d="M389.19324,406.31176H310.15276a2.48245,2.48245,0,0,1-2.48179-2.48293V342.662a2.48245,2.48245,0,0,1,2.48179-2.48293h79.04048A2.48169,2.48169,0,0,1,391.675,342.662v61.16686a2.48169,2.48169,0,0,1-2.48175,2.48293" fill="#f6978f"/><path d="M278.47743,413.16278a51.53554,51.53554,0,1,1-51.53613-51.53495,51.5354,51.5354,0,0,1,51.53613,51.53495" fill="#4c4c4b"/><path d="M249.28338,413.16278a22.34174,22.34174,0,1,1-22.34174-22.34171,22.34081,22.34081,0,0,1,22.34174,22.34171"/><path d="M236.17605,413.16278a9.23488,9.23488,0,1,1-9.23489-9.23487,9.23454,9.23454,0,0,1,9.23489,9.23487" fill="#4c4c4b"/><path d="M501.00118,413.16278a51.53495,51.53495,0,1,1-51.535-51.53495,51.53441,51.53441,0,0,1,51.535,51.53495" fill="#4c4c4b"/><path d="M471.80821,413.16278a22.34174,22.34174,0,1,1-22.34175-22.34171,22.34081,22.34081,0,0,1,22.34175,22.34171"/><path d="M458.70088,413.16278a9.23489,9.23489,0,1,1-9.23489-9.23487,9.2353,9.2353,0,0,1,9.23489,9.23487" fill="#4c4c4b"/><rect x="318.94387" y="349.62753" width="15.19277" height="4.17063" fill="#c72932"/><path d="M226.94141,451.60891a38.44581,38.44581,0,1,1,38.44629-38.44629A38.49,38.49,0,0,1,226.94141,451.60891Zm0-75.23731a36.79151,36.79151,0,1,0,36.792,36.791A36.83354,36.83354,0,0,0,226.94141,376.3716Z" fill="#303443"/><path d="M449.4668,451.60891a38.44581,38.44581,0,1,1,38.44531-38.44629A38.49,38.49,0,0,1,449.4668,451.60891Zm0-75.23731a36.79151,36.79151,0,1,0,36.791,36.791A36.83354,36.83354,0,0,0,449.4668,376.3716Z" fill="#303443"/><rect x="391.08887" y="353.79738" width="1.17188" height="32.04395" fill="#303443"/><rect x="210.36269" y="332.59714" width="71.1838" height="1.17098" transform="translate(-23.26285 18.49819) rotate(-4.11285)" fill="#303443"/><path d="M440.73047,333.81789c-1.90723-5.53516-6.82031-16.58887-10.27832-23.65527-3.46192-7.0791-14.5791-23.499-14.69043-23.66309l.96875-.6582c.1123.166,11.27637,16.6543,14.77441,23.80664,3.47266,7.09766,8.41114,18.21094,10.333,23.78906Z" fill="#303443"/><rect x="283.64258" y="413.64602" width="45.95801" height="1.17188" fill="#303443"/><rect x="516.71195" y="181.30275" width="54.00186" height="19.84409" transform="translate(-29.7015 133.03059) rotate(-13.58192)" fill="#d27c2a"/><path d="M534.1287,183.33286a10.60669,10.60669,0,0,0,7.85871.94166c-4.99162,1.20515-8.31081,5.19543-7.41251,8.91046.89713,3.71621,5.67213,5.75057,10.66375,4.54424a10.31606,10.31606,0,0,0-6.88431,4.99867l-25.32475,6.11833-4.66019-19.28845Z" fill="#9f5325"/><path d="M539.31441,263.24527c-.89834-3.715,2.41966-7.70527,7.41247-8.91042-4.99281,1.20515-9.76659-.828-10.66371-4.54425-.89834-3.71621,2.42084-7.70531,7.41247-8.91282-4.99163,1.20751-9.76659-.828-10.66489-4.54306-.89713-3.715,2.422-7.70531,7.41247-8.91164-4.99045,1.20633-9.76541-.828-10.66253-4.54421-.89831-3.71506,2.41966-7.70531,7.41247-8.91046-4.99281,1.20515-9.76659-.828-10.66371-4.54424-.89831-3.71621,2.42084-7.70531,7.41247-8.91164-4.99163,1.20633-9.76659-.82922-10.66489-4.54307-.89713-3.7162,2.422-7.70648,7.41251-8.91281-4.99049,1.20633-9.76545-.828-10.66257-4.54421-.89831-3.715,2.41966-7.70531,7.41247-8.91046-4.99281,1.20515-9.76659-.82922-10.66489-4.54425-.89713-3.7162,2.422-7.7053,7.41251-8.91163-4.99049,1.20633-9.76427-.828-10.66257-4.54425-.89831-3.715,2.41966-7.70527,7.41247-8.9116-4.99281,1.20633-9.76659-.828-10.66371-4.5431-.89831-3.71618,2.42084-7.70645,7.41247-8.91278-4.99163,1.20633-9.76659-.828-10.66489-4.54307-.89713-3.71621,7.30356-9.36957,7.30356-9.36957l-184.037,122.0222s222.00834,27.85454,220.13206,27.3638c-.014.00354-9.98676-1.74625-10.88506-5.46246" fill="#82c56d"/><path d="M468.32214,166.22929c.89713,3.71506,5.67209,5.74943,10.66254,4.5431-4.99045,1.20633-8.30964,5.19539-7.41247,8.9116.8983,3.71621,5.67208,5.7494,10.66489,4.54424-4.99281,1.20516-8.31082,5.19661-7.41251,8.91164.89716,3.715,5.67212,5.75058,10.66257,4.54307-4.99045,1.20751-8.30964,5.19657-7.41247,8.91278.8983,3.715,5.67326,5.7494,10.66489,4.54425-4.99163,1.20515-8.31082,5.19424-7.41251,8.91045.89716,3.71621,5.67094,5.7494,10.66375,4.54425-4.99281,1.20515-8.31082,5.19661-7.41251,8.91046.89716,3.71621,5.67212,5.75175,10.66257,4.54424-4.99045,1.20751-8.30963,5.19658-7.41247,8.91278.8983,3.715,5.67326,5.7494,10.66489,4.54425-4.99163,1.20515-8.31081,5.19543-7.41251,8.91046a2.767,2.767,0,0,0,.60436,1.13138c-65.21688-8.10938-161.618-20.20431-161.618-20.20431l135.28246-89.696c-.04682,7.05413,5.7494,6.78942,10.385,5.66976-4.99281,1.20515-8.31082,5.19543-7.41248,8.91161" fill="#4da258"/><polygon points="263.2 280.115 263.188 280.07 263.716 279.931 263.2 280.115" fill="#0b1436"/><polygon points="259.946 266.655 259.936 266.609 260.467 266.484 259.946 266.655" fill="#0b1436"/><path d="M426.04583,159.416c-1.06229,8.8531,5.28089,8.63174,10.27256,7.42541-4.99167,1.20633-8.31082,5.1954-7.41369,8.91161.8983,3.715,5.67212,5.74939,10.66493,4.54424-4.99281,1.20515-8.31082,5.19661-7.41369,8.91046.89712,3.71621,5.67326,5.75058,10.66375,4.54425-4.99049,1.20633-8.30964,5.1966-7.41251,8.91278.8983,3.715,5.67212,5.74939,10.66493,4.54306-4.99281,1.20633-8.31082,5.19543-7.41251,8.91164.89712,3.71621,5.67094,5.7494,10.66257,4.54425-4.99163,1.20515-8.31082,5.19543-7.41251,8.91045.8983,3.71621,5.67326,5.75058,10.66375,4.54425-4.99049,1.20633-8.30964,5.19657-7.41251,8.91278.8983,3.71389,5.67208,5.7494,10.66489,4.54192-4.99281,1.20748-8.31078,5.19658-7.41247,8.91278.89712,3.71621,5.67091,5.7494,10.66257,4.54425-4.99166,1.20515-8.31082,5.19543-7.41251,8.91046.89831,3.71621,10.67311,4.58406,10.67311,4.58406.00233.00818-180.76233-20.695-180.76233-20.695L426.57053,157.692l6.49544-4.30531s-6.85268,4.64143-7.02014,6.02929" fill="#82c56d"/><path d="M403.55525,238.77361c.89359,3.69748,5.644,5.72249,10.61218,4.522-4.96822,1.20047-8.271,5.1708-7.3762,8.86828.89248,3.69862,5.644,5.72245,10.61107,4.522-4.96708,1.20047-8.26982,5.17084-7.3762,8.86832.39584,1.64084,2.54148,2.77687,4.80892,3.53581-50.482-5.77984-124.19006-14.22183-132.488-15.17168l52.47541-35.39349,58.30212-38.6565c-1.5694,1.635-2.92685,3.62367-2.51224,5.34415.89362,3.69748,5.64635,5.7213,10.61339,4.522-4.967,1.19929-8.271,5.17081-7.37738,8.86829s5.644,5.7213,10.61221,4.522c-4.96821,1.19933-8.26981,5.17084-7.37619,8.86829.89248,3.69748,5.644,5.72248,10.61221,4.522-4.96822,1.20047-8.26982,5.1708-7.37734,8.8671.89362,3.69981,5.64513,5.72363,10.61217,4.52316-4.967,1.20047-8.26978,5.17084-7.37616,8.86828" fill="#4da258"/><path d="M389.26293,277.995c1.17234.30686-139.01273-16.04186-139.01273-16.04186L365.56145,184.1787s-7.29424,4.93544-6.40062,8.63406c.89363,3.69748,5.64517,5.7213,10.61221,4.5208-4.967,1.2005-8.26982,5.17084-7.37619,8.86832.89248,3.69744,5.644,5.72244,10.61221,4.52316-4.96822,1.19928-8.26982,5.17083-7.37734,8.86828.89362,3.69748,5.64513,5.72248,10.61335,4.52083-4.96822,1.20165-8.271,5.17081-7.37734,8.86829.89362,3.69862,5.644,5.72244,10.611,4.52315-4.967,1.19929-8.26864,5.17084-7.375,8.86829.89244,3.69748,5.644,5.72248,10.611,4.52083-4.967,1.20165-8.26982,5.1708-7.3762,8.86946.89362,3.69745,5.64517,5.72127,10.61221,4.522-4.967,1.19929-8.271,5.17084-7.37738,8.86828.89481,3.69746,10.6813,4.84291,10.68952,4.84055" fill="#82c56d"/><path d="M331.61361,270.675a2.2411,2.2411,0,0,0,.40639.78471c-38.31917-4.43884-81.77054-9.5066-81.77054-9.5066l68.31819-46.07833a2.71577,2.71577,0,0,0,.041.97676c.8538,3.53467,5.22116,5.55263,9.95048,4.69182.23657-.04218.47315-.089.71209-.14758-.23894.05855-.47083.123-.70158.19326-4.59926,1.39254-7.56474,5.18252-6.70975,8.7172.85495,3.54054,5.22234,5.55263,9.9493,4.69182.23776-.04335.47315-.09017.71323-.14876-.24008.05859-.472.12417-.70154.19444-4.59926,1.39255-7.56474,5.18135-6.70975,8.72188.85495,3.53468,5.22234,5.55264,9.95044,4.69183.23662-.04336.47319-.09021.71327-.14876-.24008.05855-.472.12413-.70272.19326-4.59929,1.39372-7.56474,5.17784-6.70861,8.71838.85263,3.53467,5.22238,5.55263,9.9493,4.69179.23662-.04332.47319-.09136.71327-.14755-.24008.05619-.472.123-.70272.19322-4.59811,1.39141-7.56356,5.18139-6.70975,8.71721" fill="#4da258"/><path d="M319.98636,280.27446c-.94984.00705-7.31647-2.62814-7.86343-4.8909-.85381-3.53464,2.11168-7.32466,6.711-8.716.23072-.07145.46143-.13586.70155-.19444-.24012.05858-.47551.1054-.71327.14876-4.727.86081-9.09549-1.15715-9.9493-4.69183-.85613-3.5405,2.1105-7.32583,6.70978-8.7172.23072-.07027.46261-.137.70155-.19326-.23894.05623-.47551.10426-.71327.14758-4.727.86085-9.0955-1.15715-9.95048-4.69178-.855-3.54054,2.1105-7.32938,6.70978-8.7231.23072-.06909.46147-.13468.70273-.19323-.24126.05855-.47669.10541-.71327.14755-4.7281.862-9.0955-1.15011-9.95048-4.69179-.85381-3.53467,2.11168-7.32348,6.70978-8.71606.23072-.07027.46261-.13585.70273-.1944-.24012.05855-.47669.1054-.71327.14872-4.72692.86085-9.09668-1.156-9.9493-4.69178-.855-3.53468,6.57393-9.27589,6.57393-9.27589l-83.44651,56.28184L317.25745,279.95c.00118.00468.007.00352.014.00234Z" fill="#82c56d"/><path d="M546.727,254.33435c-4.9928,1.20518-8.31081,5.1966-7.4125,8.91045.8983,3.71621,10.871,5.466,10.8851,5.46246.99548.26121-61.08489-7.46519-119.56154-14.77226,19.86468-4.912,39.4939-10.32527,42.56128-13.20994,0,0,20.565-6.09606,67.11886,1.40427-3.13761,1.79075-4.946,4.80427-4.255,7.66081.89713,3.71621,5.671,5.74939,10.66375,4.54421" fill="#4da258"/><path d="M461.5477,274.43561c.51765.05858.78937.089.78937.089s-.29866-.02695-.78937-.089" fill="#4da258"/><path d="M461.5477,274.43561c-7.47341-.85263-66.661-7.62915-115.15314-13.183a115.27922,115.27922,0,0,1,39.556,3.03339s41.8597-9.04867,67.72787-16.39438a12.30663,12.30663,0,0,0,2.14681-.31857c-4.99163,1.20748-8.30963,5.19658-7.41251,8.91278.89831,3.71621,5.67212,5.7494,10.66375,4.54425-4.99163,1.20515-8.31081,5.19543-7.41251,8.91046.74136,3.072,7.54486,4.1964,9.88375,4.495" fill="#4da258"/><path d="M318.822,266.62161s27.27011-9.50893,57.9566-4.324c1.9676,2.00041,5.50813,2.87412,9.17162,1.98869-4.967,1.19932-8.26982,5.17084-7.37619,8.86828s10.68133,4.8429,10.68952,4.84056c.94866.24829-90.78525-10.42365-125.72669-14.49352,24.09151-1.55421,55.28514,3.12,55.28514,3.12" fill="#4da258"/><path d="M318.83343,266.66621c-4.59929,1.39258-7.56477,5.18256-6.70979,8.71724.54579,2.26272,6.91355,4.89791,7.86222,4.89089l-2.71482-.32207c-.007.00116-.01287.00234-.01405-.00234l-93.26114-11.172c2.97251.14522,10.39086-.14872,27.01363-3.67872,18.08559-3.84034,47.72387-.9838,61.0029.62306a10.55261,10.55261,0,0,0,6.80933.89948c.23775-.04332.47433-.09017.71441-.14872-.24008.05855-.472.123-.70269.19322" fill="#4da258"/><polygon points="403.723 284.664 392.138 298.28 394.082 179.233 405.568 171.618 403.723 284.664" fill="#ef403a"/><path d="M551.292,467.44387H409.042a1.75683,1.75683,0,0,1,0-3.51367h142.25a1.75684,1.75684,0,1,1,0,3.51367Z" fill="#303443"/><path d="M399.03613,467.44387H386.78906a1.75684,1.75684,0,0,1,0-3.51367h12.24707a1.75683,1.75683,0,1,1,0,3.51367Z" fill="#303443"/><path d="M566.51758,467.44387h-5.2207a1.75684,1.75684,0,1,1,0-3.51367h5.2207a1.75684,1.75684,0,0,1,0,3.51367Z" fill="#303443"/><path d="M270.20508,467.44387h-4.04883a1.75684,1.75684,0,1,1,0-3.51367h4.04883a1.75684,1.75684,0,0,1,0,3.51367Z" fill="#303443"/><path d="M258.49316,467.44387H113.90039a1.75684,1.75684,0,1,1,0-3.51367H258.49316a1.75684,1.75684,0,1,1,0,3.51367Z" fill="#303443"/><path d="M377.95508,467.44387H280.21a1.75684,1.75684,0,0,1,0-3.51367h97.74512a1.75684,1.75684,0,0,1,0,3.51367Z" fill="#303443"/><path d="M225.78626,306.37363c4.5208,0,4.529-7.02717,0-7.02717-4.522,0-4.529,7.02717,0,7.02717" fill="#fff"/><path d="M96.74088,199.581c4.5208,0,4.529-7.02718,0-7.02718-4.52082,0-4.529,7.02718,0,7.02718" fill="#edf2fa"/><path d="M372.32871,239.57881a5.27038,5.27038,0,1,0-5.27038-5.27038,5.32965,5.32965,0,0,0,5.27038,5.27038" fill="#edf2fa"/><path d="M288.08954,230.58557a5.27038,5.27038,0,1,0-5.27038-5.27038,5.32885,5.32885,0,0,0,5.27038,5.27038" fill="#fff"/><path d="M81.63082,430.54777a5.27038,5.27038,0,1,0-5.27038-5.27038,5.32962,5.32962,0,0,0,5.27038,5.27038" fill="#edf2fa"/><path d="M107.31935,350.42148c4.5208,0,4.52783-7.02717,0-7.02717-4.522,0-4.529,7.02717,0,7.02717" fill="#edf2fa"/><path d="M381.55073,446.4149c4.5208,0,4.529-7.02717,0-7.02717-4.52084,0-4.529,7.02717,0,7.02717" fill="#edf2fa"/><path d="M168.00766,158.606a5.27038,5.27038,0,1,0-5.27038-5.27038,5.32962,5.32962,0,0,0,5.27038,5.27038" fill="#edf2fa"/><path d="M185.046,243.92161a5.27038,5.27038,0,1,0-5.27038-5.27038,5.33039,5.33039,0,0,0,5.27038,5.27038" fill="#fff"/><path d="M559.03945,228.19854c4.5208,0,4.529-7.02717,0-7.02717-4.52084,0-4.529,7.02717,0,7.02717" fill="#fff"/><path d="M478.77484,292.80872a5.27038,5.27038,0,1,0-5.27038-5.27038,5.32888,5.32888,0,0,0,5.27038,5.27038" fill="#fff"/><path d="M633.47442,345.41309a5.27038,5.27038,0,1,0-5.27038-5.27038,5.32892,5.32892,0,0,0,5.27038,5.27038" fill="#edf2fa"/><path d="M281.593,368.46645a5.27038,5.27038,0,1,0-5.27038-5.27038,5.33044,5.33044,0,0,0,5.27038,5.27038" fill="#edf2fa"/><path d="M382.77185,139.84729a5.27038,5.27038,0,1,0-5.27038-5.27038,5.32964,5.32964,0,0,0,5.27038,5.27038" fill="#edf2fa"/><path d="M495.60162,172.44329a5.27038,5.27038,0,1,0-5.27038-5.27038,5.33041,5.33041,0,0,0,5.27038,5.27038" fill="#fff"/><path d="M555.22849,324.232a5.27038,5.27038,0,1,0-5.27038-5.27038,5.32888,5.32888,0,0,0,5.27038,5.27038" fill="#fff"/><path d="M587.18817,437.02367c4.52195,0,4.529-7.02718,0-7.02718-4.52087,0-4.52787,7.02718,0,7.02718" fill="#edf2fa"/><path d="M563.7643,106.66906c4.522,0,4.529-7.02718,0-7.02718-4.52084,0-4.52788,7.02718,0,7.02718" fill="#edf2fa"/><path d="M259.25341,164.01892c4.522,0,4.529-7.02717,0-7.02717-4.52082,0-4.52786,7.02717,0,7.02717" fill="#edf2fa"/><rect x="504.52684" y="334.24972" width="23.77293" height="1.1712" fill="#303443"/><polygon points="596.264 230.664 573.157 236.248 572.881 235.109 595.99 229.525 596.264 230.664" fill="#303443"/><rect x="513.72656" y="345.87736" width="47.19685" height="1.1712" fill="#303443"/><polygon points="640.105 205.759 581.659 218.206 581.495 217.046 639.941 204.6 640.105 205.759" fill="#303443"/><polygon points="638.579 125.695 556.71 143.997 556.546 142.838 638.415 124.535 638.579 125.695" fill="#303443"/><rect x="281.70337" y="442.80551" width="35.48489" height="1.1712" fill="#303443"/><rect x="272.00937" y="449.06321" width="23.77293" height="1.1712" fill="#303443"/><rect x="567.77963" y="407.95658" width="15.57456" height="1.1712" fill="#303443"/><rect x="543.56396" y="417.07318" width="12.06098" height="1.1712" fill="#303443"/><rect x="540.53761" y="402.6944" width="35.48489" height="1.1712" fill="#303443"/></svg>