<svg id="Layer_1" data-name="Layer 1" xmlns="http://www.w3.org/2000/svg" viewBox="0 0 700 550"><title>living room with gifts</title><rect x="205.80114" y="189.58554" width="274.40097" height="239.54681" fill="#d07c2a"/><path d="M566.72816,158.26027c28.70288,24.71238,24.08672,79.17386,12.97763,110.99891-2.956,8.46406-20.5027,58.72295-62.66158,71.1728-44.08522,13.02008-63.97294-30.39356-122.37069-31.70606-65.08871-1.4633-77.96033,51.622-133.82266,50.56993-61.63071-1.16169-144.6572-67.63473-140.10469-153.9884C124.29366,138.02972,180.07,76.3248,233.07168,73.89775c59.6985-2.73339,69.30305,71.87264,152.346,92.56741,86.1157,21.46058,141.63987-42.35919,181.31046-8.20489" fill="#edf2fa"/><rect x="205.80114" y="189.58554" width="274.40097" height="239.54681" fill="#d07c2a"/><path d="M430.999,409.69624H414.50446v-43.568a80.47339,80.47339,0,0,0-160.94677,0v43.568H237.06316v-43.568a96.96792,96.96792,0,0,1,193.93585,0Z" fill="#bf6d2b"/><path d="M331.95006,77.40292c-6.328,12.73971,39.67646,61.355,99.36669,68.19319,31.43627,3.60171,73.84611-3.56281,75.0125-15.58733,2.36108-24.35185-163.944-73.61283-174.37919-52.60586" fill="#edf2fa"/><path d="M604.51621,470.33692c-.165,15.22212-114.24951,26.33-254.81371,24.809C209.136,493.62605,95.32,480.05339,95.48378,464.83127c.165-15.22211,114.24951-26.32883,254.8149-24.8078,140.5642,1.521,254.38243,15.09251,254.21753,30.31345" fill="#e4ebf1"/><path d="M431.72157,409.69624H254.28025V366.92a88.72,88.72,0,0,1,88.71947-88.72066h.00119A88.72022,88.72022,0,0,1,431.72157,366.92Z" fill="#3d1a0c"/><path d="M430.999,409.69624H253.55769V366.92a88.72066,88.72066,0,0,1,177.44132,0Z" fill="#3d1a0c"/><path d="M430.999,410.09211H253.55769v-43.568a88.72066,88.72066,0,0,1,177.44132,0Z" fill="#a05325"/><path d="M480.20211,213.85136v-2.16785H459.84668v-22.098H457.68v22.098H416.50487v-22.098h-2.16666v22.098H373.16429v-22.098h-2.16785v22.098H329.82367v-22.098h-2.16786v22.098H286.48189v-22.098H284.314v22.098H243.14127v-22.098h-2.16785v22.098H205.80114v2.16785H213.933v22.5469h-8.13182v2.16785h35.17228v22.54805H205.80114V263.282H213.933v22.54686h-8.13182v2.16669h35.17228v22.548H205.80114v2.16785H213.933v22.548h-8.13182v2.16668h35.17228v22.548H205.80114v2.16785H213.933v22.548h-8.13182V386.858h35.17228v22.54688H205.80114v2.16786H213.933v17.55962h2.16785V411.57273h41.17275v17.55962h2.16785V411.57273h41.17277v17.55962H302.782V411.57273h41.17392v17.55962h2.16786V411.57273h41.17277v17.55962h2.16785V411.57273h41.17392v17.55962h2.1667V411.57273H473.979v17.55962h2.16666V411.57273h4.05648v-2.16786H459.84668V386.858h20.35543v-2.16785h-4.05648v-22.548h4.05648v-2.16785H459.84668v-22.548h20.35543v-2.16668h-4.05648v-22.548h4.05648v-2.16785H459.84668v-22.548h20.35543v-2.16669h-4.05648V263.282h4.05648v-2.16785H459.84668V238.56611h20.35543v-2.16785h-4.05648v-22.5469Zm-90.73768,0H430.6372v22.548H389.46443Zm0,49.43065H430.6372v22.54686H389.46443Zm0,49.42945H430.6372v22.548H389.46443Zm0,49.43063H430.6372v22.548H389.46443Zm-88.85025,22.548H259.44145v-22.548h41.17273Zm0-49.43063H259.44145v-22.548h41.17273Zm0-49.43064H259.44145V263.282h41.17273Zm45.50963-71.97751h41.17277v22.548H346.12381Zm0,49.43065h41.17277v22.54686H346.12381Zm0,49.42945h41.17277v22.548H346.12381Zm0,49.43063h41.17277v22.548H346.12381Zm-43.34178,0h41.17392v22.548H302.782Zm27.04164-24.7159H370.9964v22.548H329.82367Zm14.13228-2.16668H302.782v-22.548h41.17392Zm-14.13228-47.26395H370.9964v22.548H329.82367Zm14.13228-2.16669H302.782V263.282h41.17392Zm-14.13228-47.26276H370.9964v22.54805H329.82367Zm14.13228-2.16785H302.782v-22.548h41.17392Zm-43.34177,0H259.44145v-22.548h41.17273Zm27.04163,24.7159H286.48189V238.56611h41.17392Zm0,49.42945H286.48189v-22.548h41.17392Zm0,49.43063H286.48189v-22.548h41.17392Zm0,49.43063H286.48189v-22.548h41.17392Zm2.16786-22.54688H370.9964V409.406H329.82367Zm43.34062,0H414.337V409.406H373.16429Zm0-49.4318H414.337v22.548H373.16429Zm0-49.43063H414.337v22.548H373.16429Zm0-49.42945H414.337v22.54805H373.16429ZM216.10081,213.85136h41.17275v22.548H216.10081Zm27.04046,24.71475H284.314v22.54805H243.14127ZM216.10081,263.282h41.17275v22.54686H216.10081Zm27.04046,24.71355H284.314v22.548H243.14127Zm-27.04046,24.7159h41.17275v22.548H216.10081Zm27.04046,24.71473H284.314v22.548H243.14127Zm-27.04046,24.7159h41.17275v22.548H216.10081Zm27.04046,24.7159H284.314V409.406H243.14127ZM457.68,409.40487H416.50606v-22.548H457.68Zm16.299-24.71473H432.80623v-22.548H473.979Zm-16.299-24.7159H416.50606v-22.548H457.68Zm16.299-24.71473H432.80623v-22.548H473.979Zm-16.299-24.7159H416.50606v-22.548H457.68Zm16.299-24.71474H432.80623V263.282H473.979ZM457.68,261.11416H416.50606V238.56611H457.68Zm16.299-24.7159H432.80623v-22.548H473.979Z" fill="#bc6a3b"/><path d="M253.65844,362.14209c.03534-.72692.10247-1.44562.15784-2.16785H243.14081v-22.548h15.72636c.278-.72576.55846-1.45151.85534-2.16666H259.441V312.71146h14.47041c.65625-.73637,1.329-1.455,2.01-2.16785H254.64692c-.50427.71752-1.005,1.43621-1.49042,2.16785h4.11659v22.54807H242.12992q-.61326,1.81851-1.157,3.6665v21.04821h-3.69475c-.04478.71988-.086,1.44328-.11428,2.16785Z" fill="#a55c36"/><polygon points="243.141 386.858 253.557 386.858 253.557 384.69 237.063 384.69 237.063 386.858 240.973 386.858 240.973 409.406 237.063 409.406 237.063 409.697 253.557 409.697 253.557 409.406 243.141 409.406 243.141 386.858" fill="#a55c36"/><path d="M387.297,285.15755v.67039H346.12427V269.94136c-.72342-.09072-1.43972-.20265-2.16785-.27689v16.16347h-4.8883A80.201,80.201,0,0,1,353.27,287.99581h17.72692v6.68735c.72813.3782,1.45151.76229,2.16785,1.16287v-7.85022h18.21q-1.99881-1.47216-4.07769-2.83826" fill="#a55c36"/><path d="M413.41488,310.54371H392.13925c.68218.71163,1.3549,1.43151,2.00878,2.16787h20.75723c-.4854-.73165-.98615-1.45034-1.49038-2.16787" fill="#a55c36"/><path d="M284.31426,302.92007c.714-.56434,1.43382-1.1228,2.16785-1.66241V287.996h28.31053a80.21549,80.21549,0,0,1,14.20179-2.16785H302.78225v-11.472c-.72223.24626-1.4527.47716-2.16785.74108v10.73088H279.7323c-1.0321.701-2.04179,1.42913-3.04563,2.16785h7.62759Z" fill="#a55c36"/><path d="M416.50534,409.40511v-22.548h14.494V366.12813c0-2.06889-.08715-4.11774-.21677-6.15366H416.50534v-22.548h10.15592c-.22623-.73048-.48543-1.44446-.72931-2.16787H408.33817c.29807.71634.57849,1.4421.85653,2.16787h5.14275v22.548h-.0919c.05541.72224.12254,1.44093.15788,2.16787h16.2342v22.54687H414.50475v25.00692H430.9993v-.291Z" fill="#a55c36"/><path d="M316.64984,409.69624h51.63852c9.06259-9.98627,14.0946-18.177,10.73915-33.2695-3.80083-17.11192-18.37612-20.91273-18.37612-20.91273.89072,3.564-.44653,5.3183-2.11838,6.176a5.65582,5.65582,0,0,1-6.54361-1.1935c-8.55832-8.57835-1.47862-18.92514-1.47862-18.92514a16.40468,16.40468,0,0,0-11.47786,2.51306c-9.87436,6.62846-7.66055,18.55283-4.999,26.00484,3.16817,8.87171-2.53427,8.87171-2.53427,8.87171-13.9414,0-13.9414-13.94261-13.9414-13.94261-12.041,2.53544-12.67491,12.67488-12.67491,12.67488-.86358,18.12281,6.791,27.72027,11.76654,32.003" fill="#f39821"/><path d="M335.93559,409.69624h21.18722c16.85863-12.78681,13.9226-24.94093,11.72293-29.79032a1.57291,1.57291,0,0,0-2.61438-.3841c-7.40488,8.46878-16.58175-.04124-20.15753-1.82854-2.94779-1.47508-2.84766,6.20313-2.65325,9.72119a9.30921,9.30921,0,0,1-1.33135,5.47973c-1.66243,2.64147-5.085,4.9-11.85722.00823-8.199-5.92036-10.17714-3.33071-10.64136-1.40439a4.77247,4.77247,0,0,0-.03653,1.96758c2.77111,15.3034,16.38147,16.23062,16.38147,16.23062" fill="#ffcb5d"/><path d="M342.58735,393.2087l-.99639-.62821a8.66672,8.66672,0,0,0,1.24146-5.13383c-.32331-5.87711.23012-9.32881,1.64417-10.25617a1.7661,1.7661,0,0,1,1.86162-.02416c.6167.30835,1.36917.79274,2.24015,1.35307,4.24905,2.7326,11.35727,7.30611,17.21021.6144l.88594.77548c-6.52143,7.45684-14.4661,2.346-18.73356-.39924-.84337-.54192-1.57053-1.0102-2.1297-1.28979-.43262-.21746-.611-.09665-.688-.04487-.75593.49589-1.44627,3.17556-1.1149,9.20684A9.83352,9.83352,0,0,1,342.58735,393.2087Z" fill="#303443"/><path d="M323.89493,346.00771s-4.84235-7.86907,1.44443-10.59185a1.00394,1.00394,0,0,1,.91193.073c.01529.00825.02945.01767.04477.02709a4.1445,4.1445,0,0,1,.63033,6.63907,16.29951,16.29951,0,0,0-3.03146,3.85265" fill="#ffcb5d"/><path d="M370.936,339.15952s6.50827,2.56374,3.93984,7.07147a.75954.75954,0,0,1-.58557.36994l-.04005.00352a3.13725,3.13725,0,0,1-3.39907-3.73483,12.42267,12.42267,0,0,0,.08485-3.7101" fill="#ffcb5d"/><path d="M385.82432,366.65005s8.44635,3.3272,5.1133,9.1757a.98791.98791,0,0,1-.76114.47952c-.01646.00235-.03415.00471-.05181.00589a4.072,4.072,0,0,1-4.41113-4.84587,16.01291,16.01291,0,0,0,.11078-4.81524" fill="#ffcb5d"/><path d="M298.83206,386.72863s-8.36039-3.28358-5.32893-9.04372a.91833.91833,0,0,1,.72223-.47246c.01647-.00117.033-.00352.05066-.00471a4.17063,4.17063,0,0,1,4.483,4.77754,15.89859,15.89859,0,0,0,.07306,4.74335" fill="#ffcb5d"/><rect x="205.80114" y="183.48138" width="274.40097" height="15.33639" fill="#a05325"/><rect x="370.99644" y="189.58554" width="2.16785" height="9.23342" fill="#843f1d"/><rect x="414.33821" y="189.58554" width="2.16785" height="9.23342" fill="#843f1d"/><rect x="327.65581" y="189.58554" width="2.16785" height="9.23342" fill="#843f1d"/><rect x="240.97342" y="189.58554" width="2.16785" height="9.23342" fill="#843f1d"/><rect x="284.31401" y="189.58554" width="2.16785" height="9.23342" fill="#843f1d"/><rect x="457.67998" y="189.58554" width="2.16785" height="9.23342" fill="#843f1d"/><rect x="183.8528" y="409.69588" width="318.29651" height="29.4734" fill="#bc6a3b"/><rect x="183.8528" y="429.51408" width="318.29651" height="29.47223" fill="#a05325"/><rect x="161.80075" y="438.77224" width="362.40057" height="29.4734" fill="#bc6a3b"/><rect x="354.16092" y="438.18328" width="147.98727" height="1.17818" fill="#303443"/><path d="M342.27871,277.8031h0A88.88974,88.88974,0,0,0,322.53,280.037a88.73445,88.73445,0,0,1,68.972,86.48681v43.568h39.49736v-43.568a88.721,88.721,0,0,0-88.72063-88.72066" fill="#843f1d"/><path d="M416.50534,409.40511v-22.548h14.494V366.524c0-1.34784-.0412-2.68626-.10132-4.02-.02118-.44418-.0471-.886-.07421-1.329-.0224-.4006-.06127-.79882-.09072-1.20059H416.50534v-22.548h9.58686c-.09543-.27687-.1838-.55729-.28279-.83416-.119-.33108-.2368-.66213-.35815-.99321-.04358-.1131-.0919-.225-.13433-.33931H389.46367V312.71171h23.33626c-.55727-.7293-1.12281-1.45506-1.70248-2.16668H373.16472V287.997h10.39862c-.25212-.13315-.5078-.26037-.75873-.39-1.00383-.51605-2.01587-1.01795-3.04206-1.49749-.20384-.09542-.41238-.18614-.61739-.28039H346.12309V277.9c-.71986-.03063-1.44328-.04124-2.1667-.0542v7.98337h-4.33571q2.2427,1.025,4.41585,2.16785h26.96034v21.84q1.177,1.41382,2.29391,2.87477H387.297v22.54805h-1.48215q.40648,1.078.787,2.16668h27.73557v22.548H391.24626c.05185.72107.106,1.44212.14141,2.16787h39.25v22.54687H391.50194v2.16785h22.83551v22.548H391.50194v.68689H430.9993v-.68689Z" fill="#6d3316"/><path d="M439.24629,409.69624H422.75174v-43.568a80.47339,80.47339,0,0,0-160.94677,0v43.568H245.31042v-43.568a96.96794,96.96794,0,0,1,193.93587,0Z" fill="#924922"/><path d="M294.99524,301.77648l-.69955-.94807a80.6405,80.6405,0,0,1,24.96849-12.4365l.336,1.12986A79.44286,79.44286,0,0,0,294.99524,301.77648Z" fill="#303443"/><rect x="183.8528" y="160.11215" width="318.29651" height="29.47339" fill="#bc6a3b"/><rect x="235.2048" y="188.9966" width="77.14102" height="1.17818" fill="#303443"/><rect x="209.55172" y="63.33266" width="5.89091" height="29.15541" fill="#fdeba9"/><rect x="225.22016" y="63.33266" width="5.89091" height="29.15541" fill="#fdeba9"/><rect x="245.43105" y="63.33266" width="5.89091" height="29.15541" fill="#fdeba9"/><rect x="265.70407" y="63.33266" width="5.89091" height="29.15541" fill="#fdeba9"/><rect x="281.31038" y="63.33266" width="5.89091" height="29.15541" fill="#fdeba9"/><path d="M212.44975,54.71479s4.503,4.71273.56788,7.52037a.7048.7048,0,0,1-.63975.08363l-.03535-.01294a2.92352,2.92352,0,0,1-1.415-4.48654,11.55285,11.55285,0,0,0,1.52222-3.10452" fill="#ffcb5d"/><path d="M248.329,54.71479s4.503,4.71273.56788,7.52037a.70481.70481,0,0,1-.63975.08363l-.03535-.01294a2.92353,2.92353,0,0,1-1.415-4.48654,11.51683,11.51683,0,0,0,1.52224-3.10452" fill="#ffcb5d"/><path d="M284.20833,54.71479s4.503,4.71273.56788,7.52037a.70481.70481,0,0,1-.63975.08363l-.03534-.01294a2.92351,2.92351,0,0,1-1.415-4.48654,11.48174,11.48174,0,0,0,1.52223-3.10452" fill="#ffcb5d"/><path d="M228.21252,54.71479s-4.503,4.71273-.56789,7.52037a.70433.70433,0,0,0,.63975.08363l.03534-.01294a2.92351,2.92351,0,0,0,1.415-4.48654,11.48215,11.48215,0,0,1-1.5222-3.10452" fill="#ffcb5d"/><path d="M268.69641,54.71479s-4.50185,4.71273-.56792,7.52037a.70528.70528,0,0,0,.63975.08363l.03535-.01294a2.92353,2.92353,0,0,0,1.415-4.48654,11.55172,11.55172,0,0,1-1.5222-3.10452" fill="#ffcb5d"/><rect x="398.3324" y="63.33266" width="5.89091" height="29.15541" fill="#fdeba9"/><rect x="414.00084" y="63.33266" width="5.89091" height="29.15541" fill="#fdeba9"/><rect x="434.21173" y="63.33266" width="5.89091" height="29.15541" fill="#fdeba9"/><rect x="454.48474" y="63.33266" width="5.89091" height="29.15541" fill="#fdeba9"/><rect x="470.09105" y="63.33266" width="5.89091" height="29.15541" fill="#fdeba9"/><path d="M401.23036,54.71479s4.503,4.71273.56787,7.52037a.70481.70481,0,0,1-.63975.08363l-.03534-.01294a2.92352,2.92352,0,0,1-1.415-4.48654,11.51742,11.51742,0,0,0,1.52224-3.10452" fill="#ffcb5d"/><path d="M437.10976,54.71479s4.503,4.71273.56787,7.52037a.70481.70481,0,0,1-.63975.08363l-.03534-.01294a2.92352,2.92352,0,0,1-1.415-4.48654,11.51742,11.51742,0,0,0,1.52224-3.10452" fill="#ffcb5d"/><path d="M472.98905,54.71479s4.503,4.71273.56788,7.52037a.70436.70436,0,0,1-.63976.08363l-.03534-.01294a2.92352,2.92352,0,0,1-1.415-4.48654,11.48171,11.48171,0,0,0,1.52224-3.10452" fill="#ffcb5d"/><path d="M416.99325,54.71479s-4.503,4.71273-.56791,7.52037a.70434.70434,0,0,0,.63975.08363l.03534-.01294a2.92351,2.92351,0,0,0,1.415-4.48654,11.48126,11.48126,0,0,1-1.5222-3.10452" fill="#ffcb5d"/><path d="M457.47712,54.71479s-4.50185,4.71273-.56791,7.52037a.70723.70723,0,0,0,.64093.08363l.03416-.01294a2.92352,2.92352,0,0,0,1.415-4.48654,11.55172,11.55172,0,0,1-1.5222-3.10452" fill="#ffcb5d"/><path d="M235.20456,240.14969c7.92679-9.51028,0-23.077,0-23.077s-7.92564,13.56675,0,23.077" fill="#516eb5"/><path d="M235.21941,218.85946a3.05217,3.05217,0,0,1,1.00028.172l-.12608-2.10072h-1.77788l-.12606,2.11015a3.03708,3.03708,0,0,1,1.02974-.18147" fill="#1b202b"/><path d="M263.62243,229.59556c7.92681-9.51028,0-23.077,0-23.077s-7.92565,13.56675,0,23.077" fill="#82c56d"/><path d="M263.63621,208.30533a3.05332,3.05332,0,0,1,1.00142.17205l-.12606-2.10073h-1.77788l-.12606,2.109a3.06375,3.06375,0,0,1,1.02858-.18028" fill="#1b202b"/><path d="M275.92313,213.88566c7.92562-9.51028,0-23.077,0-23.077s-7.92684,13.56675,0,23.077" fill="#f15b43"/><path d="M275.9369,192.59554a3.05867,3.05867,0,0,1,1.00142.17205l-.12606-2.10073H275.0332l-.12487,2.11015a3.03555,3.03555,0,0,1,1.02857-.18147" fill="#1b202b"/><path d="M292.88826,231.04635c7.92681-9.51027,0-23.077,0-23.077s-7.92566,13.56675,0,23.077" fill="#ffcb5d"/><path d="M292.90322,209.75623a3.05208,3.05208,0,0,1,1.00027.17205l-.12491-2.10072h-1.77906l-.12606,2.11014a3.03744,3.03744,0,0,1,1.02976-.18147" fill="#1b202b"/><path d="M320.45818,240.221c7.92562-9.51028,0-23.077,0-23.077s-7.92565,13.56675,0,23.077" fill="#516eb5"/><path d="M320.472,218.92968a3.0837,3.0837,0,0,1,1.00143.17205l-.12606-2.09954h-1.77907l-.12487,2.109a3.06487,3.06487,0,0,1,1.02857-.18147" fill="#1b202b"/><path d="M348.876,229.59556c7.92562-9.51028,0-23.077,0-23.077s-7.92566,13.56675,0,23.077" fill="#82c56d"/><path d="M348.88984,208.30533a3.05868,3.05868,0,0,1,1.00143.17205l-.12606-2.10073h-1.77907l-.12487,2.109a3.06365,3.06365,0,0,1,1.02857-.18028" fill="#1b202b"/><path d="M207.6357,231.04635c7.92562-9.51027,0-23.077,0-23.077s-7.92682,13.56675,0,23.077" fill="#ffcb5d"/><path d="M207.6496,209.75623a3.05879,3.05879,0,0,1,1.00144.17205l-.12606-2.10072h-1.77907l-.12487,2.11014a3.03569,3.03569,0,0,1,1.02856-.18147" fill="#1b202b"/><path d="M190.6694,211.95957c7.92562-9.51027,0-23.077,0-23.077s-7.92564,13.56675,0,23.077" fill="#f15b43"/><path d="M190.6833,190.66945a3.05344,3.05344,0,0,1,1.00144.172l-.12606-2.09954H189.7808l-.12606,2.109a3.06477,3.06477,0,0,1,1.02856-.18147" fill="#1b202b"/><path d="M406.24576,240.14969c7.9268-9.51028,0-23.077,0-23.077s-7.92566,13.56675,0,23.077" fill="#516eb5"/><path d="M406.25953,218.85946a3.05357,3.05357,0,0,1,1.00142.172l-.12606-2.10072H405.357l-.12606,2.11015a3.03565,3.03565,0,0,1,1.02858-.18147" fill="#1b202b"/><path d="M434.66361,229.59556c7.92562-9.51028,0-23.077,0-23.077s-7.92565,13.56675,0,23.077" fill="#82c56d"/><path d="M434.67738,208.30533a3.05333,3.05333,0,0,1,1.00143.17205l-.12606-2.10073h-1.77907l-.12487,2.109a3.06365,3.06365,0,0,1,1.02857-.18028" fill="#1b202b"/><path d="M477.76164,230.72071c7.92681-9.51028,0-23.077,0-23.077s-7.92565,13.56675,0,23.077" fill="#ffcb5d"/><path d="M477.7766,209.43059a3.052,3.052,0,0,1,1.00027.172l-.1249-2.10072H476.8729l-.12606,2.109a3.0653,3.0653,0,0,1,1.02976-.18028" fill="#1b202b"/><path d="M447.298,212.031c7.9268-9.51028,0-23.077,0-23.077s-7.92566,13.56675,0,23.077" fill="#f15b43"/><path d="M447.31174,190.73967a3.0545,3.0545,0,0,1,1.00142.1732l-.126-2.10069h-1.77788l-.12606,2.109a3.06487,3.06487,0,0,1,1.02857-.18147" fill="#1b202b"/><path d="M378.677,231.04635c7.92562-9.51027,0-23.077,0-23.077s-7.92684,13.56675,0,23.077" fill="#ffcb5d"/><path d="M378.69079,209.75623a3.05873,3.05873,0,0,1,1.00143.17205l-.12606-2.10072h-1.77907l-.12487,2.11014a3.03579,3.03579,0,0,1,1.02857-.18147" fill="#1b202b"/><path d="M361.7107,211.95957c7.92562-9.51027,0-23.077,0-23.077s-7.92565,13.56675,0,23.077" fill="#f15b43"/><path d="M361.72447,190.66945a3.05338,3.05338,0,0,1,1.00143.172l-.12606-2.09954h-1.77907l-.12487,2.109a3.06487,3.06487,0,0,1,1.02857-.18147" fill="#1b202b"/><path d="M498.17492,211.95957c7.92562-9.51027,0-23.077,0-23.077s-7.92565,13.56675,0,23.077" fill="#f15b43"/><path d="M498.18884,190.66945a3.05332,3.05332,0,0,1,1.00142.172l-.12606-2.09954h-1.77788l-.12606,2.109a3.065,3.065,0,0,1,1.02858-.18147" fill="#1b202b"/><path d="M497.32357,190.45552c-2.00292,5.29125-3.81262,10.2726-8.33918,14.04395a21.62031,21.62031,0,0,1-24.115,2.4141c-6.705-3.73956-11.849-11.25047-16.947-16.848a.8936.8936,0,0,0-1.38673.1779c-4.49591,6.34686-8.98245,12.33557-15.50959,16.79147a45.96188,45.96188,0,0,1-34.88595,6.8794c-14.71905-3.03028-24.20929-12.49935-34.3393-22.67059a.89725.89725,0,0,0-1.3879.17791c-4.311,6.0865-8.57365,11.9397-14.77438,16.29661a46.04017,46.04017,0,0,1-33.51222,7.76541c-15.82887-2.526-25.53712-12.94469-35.57874-24.23993a.89286.89286,0,0,0-1.38672.17791c-4.31334,6.0865-8.576,11.9397-14.7756,16.29661a46.04136,46.04136,0,0,1-33.5122,7.76541c-15.929-2.54251-25.61368-13.20623-35.57876-24.66406-.74812-.86008-1.99228.39468-1.25,1.24887,7.3931,8.50177,14.2513,17.0259,24.86554,21.69976a47.86752,47.86752,0,0,0,47.08134-5.045,55.535,55.535,0,0,0,12.46634-13.26278c.63151-.89188,1.2159-1.88158,1.92163-2.71337-.1673.1956-1.05331-.83768-.31458.608,1.07215,2.10187,3.69124,4.1519,5.2594,5.9168,9.4773,10.66138,21.30978,17.81885,35.878,18.48334a48.10548,48.10548,0,0,0,40.91472-20.04441c1.13461-1.54813,2.27626-3.11747,3.34017-4.71625.69984-1.051-1.01915-.4324-.57614-.16968a16.3696,16.3696,0,0,1,2.53779,2.54722c3.57227,3.58758,7.042,7.43907,11.02781,10.5789,12.42276,9.78127,29.79857,13.24513,44.9394,8.59367a47.70579,47.70579,0,0,0,18.26064-10.50584,51.6359,51.6359,0,0,0,6.65791-7.59811c1.14636-1.56934,2.15253-3.87033,3.62526-5.12039-1.41736,1.20411-1.06744-.64208-.02,1.3502a16.79278,16.79278,0,0,0,2.52367,2.77226q2.88244,3.16521,5.76366,6.3292c4.10243,4.50419,8.69028,8.02694,14.84154,9.16507a23.46733,23.46733,0,0,0,19.14194-5.07207c4.74926-3.994,6.72626-9.33474,8.847-14.94052.403-1.06507-1.30424-1.52458-1.70363-.46893" fill="#303443"/><path d="M226.86409,390.60025h-43.211c.24507-.07069.52665-.17082.83416-.28981l-2.12544.19557a.51192.51192,0,0,0,.12489.09424h-.69985a.54169.54169,0,0,0,.12608-.09424l-2.12663-.19557c.30869.119.58909.21912.83416.28981h-43.211v14.84511h3.79729v62.77471H223.0668V405.44536h3.79729Z" fill="#bc6a3b"/><path d="M183.65332,409.69505c.245-.07185.52547-.172.83415-.28982l-2.12661.19558a.57708.57708,0,0,0,.126.09424h-.69985a.54336.54336,0,0,0,.12489-.09424l-2.12544-.19558c.30751.11781.58909.218.83416.28982H141.20694v58.525H223.067v-58.525Z" fill="#a05325"/><rect x="505.43997" y="390.627" width="81.85892" height="77.61864" fill="#ffcc5d"/><rect x="505.43997" y="394.23107" width="81.85892" height="14.84627" fill="#f39821"/><path d="M536.11959,440.039a1.76833,1.76833,0,0,0,0-3.53454,1.76833,1.76833,0,0,0,0,3.53454" fill="#f15b43"/><path d="M568.35392,443.71506a1.76832,1.76832,0,0,0,0-3.53455,1.76832,1.76832,0,0,0,0,3.53455" fill="#f15b43"/><path d="M579.38212,423.0739a1.76832,1.76832,0,0,0,0-3.53455,1.76832,1.76832,0,0,0,0,3.53455" fill="#f15b43"/><path d="M522.82934,464.07441a1.76832,1.76832,0,0,0,0-3.53455,1.76832,1.76832,0,0,0,0,3.53455" fill="#f15b43"/><path d="M519.43631,416.25223a.88416.88416,0,0,0,0-1.76727.88416.88416,0,0,0,0,1.76727" fill="#f15b43"/><path d="M523.11245,433.21735a.88417.88417,0,0,0,0-1.76728.88417.88417,0,0,0,0,1.76728" fill="#f15b43"/><path d="M516.32517,449.3357a.88415.88415,0,0,0,0-1.76728.88415.88415,0,0,0,0,1.76728" fill="#f15b43"/><path d="M552.80291,416.25223a.88418.88418,0,0,0,0-1.76727.88418.88418,0,0,0,0,1.76727" fill="#f15b43"/><path d="M552.80291,432.65241a.88419.88419,0,0,0,0-1.76728.88419.88419,0,0,0,0,1.76728" fill="#f15b43"/><path d="M555.91282,451.31458a.88417.88417,0,0,0,0-1.76728.88417.88417,0,0,0,0,1.76728" fill="#f15b43"/><path d="M540.07758,458.38367a.88415.88415,0,0,0,0-1.76728.88415.88415,0,0,0,0,1.76728" fill="#f15b43"/><path d="M572.59614,459.79773a.88417.88417,0,0,0,0-1.76728.88417.88417,0,0,0,0,1.76728" fill="#f15b43"/><path d="M537.25064,430.84943c6.82283,0,6.83462-10.60363,0-10.60363-6.82288,0-6.83467,10.60363,0,10.60363" fill="#f15b43"/><path d="M528.76749,456.01588c6.82284,0,6.83463-10.60364,0-10.60364-6.82287,0-6.83466,10.60364,0,10.60364" fill="#f15b43"/><path d="M563.54684,427.45639c6.8228,0,6.8346-10.60363,0-10.60363-6.82287,0-6.83351,10.60363,0,10.60363" fill="#f15b43"/><path d="M581.032,444.42268c6.8228,0,6.83344-10.60364,0-10.60364-6.82409,0-6.83466,10.60364,0,10.60364" fill="#f15b43"/><path d="M560.15382,467.51458c6.8228,0,6.83459-10.60364,0-10.60364-6.82287,0-6.83467,10.60364,0,10.60364" fill="#f15b43"/><path d="M512.46157,431.50992c6.82283,0,6.83462-10.60364,0-10.60364-6.82288,0-6.83467,10.60364,0,10.60364" fill="#f15b43"/><rect x="544.60187" y="390.62683" width="3.53455" height="77.6185" fill="#f15b43"/><rect x="502.10102" y="390.62582" width="88.53567" height="14.8451" fill="#f15b43"/><path d="M546.29551,391.93963a10.21893,10.21893,0,0,1-3.39878-1.05738,39.75576,39.75576,0,0,0-8.40145-2.69118,28.19632,28.19632,0,0,0-8.46934-.62015,25.59186,25.59186,0,0,0-4.11673.74787,8.65021,8.65021,0,0,1-5.13614.15993,10.18164,10.18164,0,0,1-1.88118-.79735,9.01184,9.01184,0,0,1-3.07777,1.31625,7.50235,7.50235,0,0,1-5.72983-1.17588,1.17813,1.17813,0,1,1,1.35077-1.93065,5.08213,5.08213,0,0,0,3.88431.80309,6.78392,6.78392,0,0,0,1.46123-.5097c-1.46353-1.33466-2.37478-2.97767-2.002-4.42854a3.17808,3.17808,0,0,1,3.13069-2.26086,3.00162,3.00162,0,0,1,2.08253,1.16092,5.10488,5.10488,0,0,1,1.12871,3.6381,4.07494,4.07494,0,0,1-.52351,1.60849,7.25352,7.25352,0,0,0,.86178.321,6.33192,6.33192,0,0,0,3.88317-.19214,27.98272,27.98272,0,0,1,4.46535-.8077,26.47132,26.47132,0,0,1,5.29952.04027,12.073,12.073,0,0,1-2.83845-2.49789c-3.16406-4.12363-4.10523-6.94483-2.87872-8.62236,1.4244-1.95021,4.92443-1.18163,7.43267-.43606,7.04723,2.09748,10.81649,7.99875,13.06816,11.52524,1.65566,2.59223,2.965,4.64485,1.8386,6.029a.71817.71817,0,0,1-.04717.05638A1.72981,1.72981,0,0,1,546.29551,391.93963ZM528.426,375.261c-.91586,0-1.11951.25427-1.13331.27268-.00806.01151-.68344,1.19889,2.84535,5.79887,1.37838,1.79718,6.16705,4.78521,15.19671,7.53967-.41535-.78239-1.02861-1.742-1.43015-2.37132-2.21025-3.45976-5.5492-8.68679-11.74961-10.53346A13.84379,13.84379,0,0,0,528.426,375.261Zm-14.69621,6.5847a.87379.87379,0,0,0-.66848.4982c-.11736.45217.48093,1.41519,1.5314,2.30343a1.72383,1.72383,0,0,0,.18524-.60289,2.75788,2.75788,0,0,0-.59139-1.87428.8065.8065,0,0,0-.43952-.32331Z" fill="#f15b43"/><path d="M547.76248,391.93848a1.7316,1.7316,0,0,1-1.38643-.61786c-.01726-.02071-.03567-.04142-.05178-.06213-1.1172-1.38643.191-3.4356,1.84436-6.02553,2.25166-3.52649,6.02093-9.42776,13.06356-11.52294,2.51054-.74787,6.01057-1.5153,7.43612.43261,1.22536,1.67638.28419,4.49758-2.87757,8.62351a12.073,12.073,0,0,1-2.83845,2.49789,26.38821,26.38821,0,0,1,5.29952-.04027,27.98272,27.98272,0,0,1,4.46535.8077,6.32224,6.32224,0,0,0,3.88317.19214,7.5167,7.5167,0,0,0,.86063-.31986,4.09227,4.09227,0,0,1-.52236-1.60849,5.09335,5.09335,0,0,1,1.1264-3.637,3.00292,3.00292,0,0,1,2.08368-1.16322,3.18685,3.18685,0,0,1,3.1307,2.25856c.37278,1.45317-.53847,3.09618-2.002,4.43084a6.79183,6.79183,0,0,0,1.46237.5097,5.13273,5.13273,0,0,0,3.88777-.80539,1.178,1.178,0,1,1,1.34387,1.93525,7.546,7.546,0,0,1-5.72638,1.17358,9.00723,9.00723,0,0,1-3.07892-1.31625,10.06149,10.06149,0,0,1-1.88.79735,8.62045,8.62045,0,0,1-5.13614-.15993,25.59186,25.59186,0,0,0-4.11673-.74787,27.88857,27.88857,0,0,0-8.46934.62015,39.84483,39.84483,0,0,0-8.4026,2.69A10.21119,10.21119,0,0,1,547.76248,391.93848ZM565.63311,375.261a13.78169,13.78169,0,0,0-3.72439.70529c-6.205,1.84782-9.544,7.07485-11.75421,10.53461-.40155.62936-1.01365,1.58893-1.43015,2.37017,9.03081-2.75446,13.81832-5.74134,15.19555-7.53852,3.52765-4.60343,2.85457-5.78851,2.84651-5.79887C566.75261,375.51526,566.549,375.261,565.63311,375.261Zm14.69506,6.5847-.01726.00115a.81641.81641,0,0,0-.44066.32446,2.7529,2.7529,0,0,0-.5891,1.87313,1.7465,1.7465,0,0,0,.1841.60289c1.05046-.88824,1.64876-1.85241,1.53255-2.30459A.87927.87927,0,0,0,580.32817,381.84569Z" fill="#f15b43"/><rect x="544.57325" y="405.47092" width="3.49917" height="3.60642" fill="#cf2633"/><rect x="132.72438" y="390.59989" width="81.86011" height="77.61865" fill="#f15b43"/><rect x="132.72321" y="396.11496" width="81.86009" height="14.8451" fill="#cf2633"/><rect x="132.72366" y="429.97512" width="81.8595" height="3.53455" fill="#ffcc5d"/><rect x="171.88671" y="390.60037" width="3.53455" height="77.6185" fill="#ffcc5d"/><path d="M172.91992,391.91316a10.23578,10.23578,0,0,1-3.40108-1.05852,39.93036,39.93036,0,0,0-8.39915-2.69118,28.05587,28.05587,0,0,0-8.46934-.619,25.56868,25.56868,0,0,0-4.11673.74786,8.65837,8.65837,0,0,1-5.13614.16108,10.07691,10.07691,0,0,1-1.88118-.79849,9.02986,9.02986,0,0,1-3.07777,1.3174,7.5477,7.5477,0,0,1-5.72638-1.17358,1.17805,1.17805,0,0,1,1.34387-1.93526,5.14636,5.14636,0,0,0,3.88777.8054,6.79231,6.79231,0,0,0,1.46122-.51085c-1.46352-1.33466-2.37477-2.97652-2.002-4.42739a3.14313,3.14313,0,0,1,3.133-2.25971,3.0013,3.0013,0,0,1,2.08023,1.15747,5.10894,5.10894,0,0,1,1.1287,3.6404,4.07509,4.07509,0,0,1-.5235,1.60849,7.45889,7.45889,0,0,0,.86177.321,6.36041,6.36041,0,0,0,3.882-.19214,27.82608,27.82608,0,0,1,4.46651-.80885,26.55482,26.55482,0,0,1,5.29952.04142,12.07332,12.07332,0,0,1-2.83846-2.49789c-3.16176-4.12594-4.10408-6.94713-2.87872-8.62236,1.42671-1.95136,4.929-1.18163,7.43843-.43376,7.04032,2.094,10.80959,7.9953,13.0624,11.52179,1.65452,2.59223,2.965,4.64369,1.84206,6.02783-.015.01956-.03222.03912-.04947.05868A1.72945,1.72945,0,0,1,172.91992,391.91316Zm-17.86833-16.67864c-.91585,0-1.12065.25428-1.13446.27384-.008.0115-.68229,1.19544,2.84651,5.79886,1.37723,1.79834,6.16589,4.78522,15.19556,7.53853-.41651-.78239-1.02861-1.742-1.43016-2.37132-2.21024-3.45976-5.54919-8.6868-11.74961-10.53231A13.73829,13.73829,0,0,0,155.05159,375.23452Zm-14.69736,6.58586a.872.872,0,0,0-.66848.49819c-.11736.451.48094,1.4152,1.53141,2.30229a1.71809,1.71809,0,0,0,.18524-.60175,2.759,2.759,0,0,0-.5914-1.87542.80741.80741,0,0,0-.43836-.32216Z" fill="#ffcc5d"/><path d="M174.3892,391.91316a1.7334,1.7334,0,0,1-1.38759-.619c-.01611-.01956-.03337-.038-.04832-.05868-1.12756-1.38414.18409-3.43675,1.84091-6.029,2.25281-3.52764,6.02207-9.42776,13.0624-11.52179,2.50824-.74787,6.01287-1.51645,7.43728.43261,1.22765,1.67983.28534,4.49987-2.881,8.62466a12.0338,12.0338,0,0,1-2.83615,2.49674,26.37661,26.37661,0,0,1,5.29837-.04142,27.86954,27.86954,0,0,1,4.46766.80885,6.37508,6.37508,0,0,0,3.88431.19214,7.57954,7.57954,0,0,0,.85948-.31986,4.05779,4.05779,0,0,1-.52466-1.60849,5.10342,5.10342,0,0,1,1.131-3.64155,3.005,3.005,0,0,1,2.08253-1.15862,3.21406,3.21406,0,0,1,3.12954,2.25971c.37279,1.45087-.53846,3.09388-2.002,4.42854a6.80011,6.80011,0,0,0,1.46237.51085,5.12819,5.12819,0,0,0,3.88777-.8054,1.178,1.178,0,0,1,1.34386,1.93526,7.5509,7.5509,0,0,1-5.72638,1.17358,9.03927,9.03927,0,0,1-3.07892-1.31625,10.1383,10.1383,0,0,1-1.88.79734,8.67176,8.67176,0,0,1-5.13729-.16108,25.5616,25.5616,0,0,0-4.11788-.74786,28.011,28.011,0,0,0-8.46933.619,39.871,39.871,0,0,0-8.398,2.69118A10.2311,10.2311,0,0,1,174.3892,391.91316Zm17.866-16.67864a13.72673,13.72673,0,0,0-3.72554.7076c-6.20041,1.84436-9.53936,7.0714-11.74845,10.53-.4027.63166-1.016,1.59123-1.43246,2.37362,9.032-2.75446,13.81833-5.74134,15.19441-7.53738,3.53224-4.60112,2.85686-5.78966,2.84881-5.8C193.37818,375.49,193.17338,375.23452,192.25522,375.23452Zm14.70082,6.58586h-.01726a.81441.81441,0,0,0-.44182.32331,2.76228,2.76228,0,0,0-.59254,1.87772,1.712,1.712,0,0,0,.18524.6006c1.05047-.88824,1.64991-1.85241,1.53256-2.30459A.87138.87138,0,0,0,206.956,381.82038Z" fill="#ffcc5d"/><rect x="171.90485" y="405.44618" width="3.4992" height="5.51388" fill="#f39821"/><rect x="169.98322" y="429.90524" width="1.92161" height="3.63234" fill="#f39821"/><rect x="193.38192" y="429.90524" width="1.92044" height="3.63234" fill="#f39821"/><rect x="195.32724" y="390.60037" width="3.53455" height="77.6185" fill="#ffcc5d"/><rect x="195.34477" y="405.44618" width="3.4992" height="5.51388" fill="#f39821"/><rect x="128.92711" y="390.59991" width="89.45348" height="14.84627" fill="#ffcc5d"/><rect x="498.33316" y="438.77224" width="7.10681" height="29.4734" fill="#a05325"/><polygon points="502.149 439.169 502.149 409.696 498.333 410.092 498.333 438.772 502.149 439.169" fill="#a05325"/><rect x="478.46949" y="438.18328" width="23.67985" height="1.17818" fill="#303443"/><path d="M278.02867,92.85621v4.33336a.5893.5893,0,0,0,.58909.58909h2.20909a.59953.59953,0,0,1,.59614.63271c-1.08866,17.04355-13.707,30.78-29.63365,32.51546a.59714.59714,0,0,1-.65622-.5938v-9.91912a.57958.57958,0,0,1,.49953-.57259c10.4116-1.55873,18.57639-10.45755,19.58257-21.52775a.58105.58105,0,0,1,.57729-.53491H274.758a.59006.59006,0,0,0,.58909-.58909V92.85621a.59083.59083,0,0,0-.58909-.58909H262.54144a.59007.59007,0,0,0-.58909.58909v4.33336a.5893.5893,0,0,0,.58909.58909h2.5425a.59856.59856,0,0,1,.59384.66334,18.16983,18.16983,0,0,1-13.83422,15.75582.59563.59563,0,0,1-.71044-.58672V98.36775a.58931.58931,0,0,1,.58909-.58909h2.76284a.59007.59007,0,0,0,.58909-.58909V92.85621a.59083.59083,0,0,0-.58909-.58909h-12.2154a.59007.59007,0,0,0-.5891.58909v4.33336a.58931.58931,0,0,0,.5891.58909h2.76283a.58931.58931,0,0,1,.58909.58909v15.2445a.59581.59581,0,0,1-.71162.58557A18.16955,18.16955,0,0,1,231.07456,98.442a.59855.59855,0,0,1,.59382-.66334h2.60377a.5893.5893,0,0,0,.58909-.58909V92.85621a.59007.59007,0,0,0-.58909-.58909H222.05793a.59007.59007,0,0,0-.58909.58909v4.33336a.5893.5893,0,0,0,.58909.58909h2.90188a.581.581,0,0,1,.5773.53491c1.00617,11.0702,9.17215,19.969,19.58375,21.52775a.57959.57959,0,0,1,.50071.57259V130.333a.59814.59814,0,0,1-.65744.5938c-15.92663-1.73545-28.545-15.47191-29.63361-32.51546a.59954.59954,0,0,1,.59616-.63271h2.678a.5893.5893,0,0,0,.58909-.58909V92.85621a.59007.59007,0,0,0-.58909-.58909H206.38929a.59007.59007,0,0,0-.58909.58909v4.33336a.5893.5893,0,0,0,.58909.58909h2.84059a.58333.58333,0,0,1,.58086.55494c1.08628,20.17284,16.233,36.44469,35.27593,38.14127a.58406.58406,0,0,1,.5349.57967v16.95758a.58854.58854,0,0,1-.58909.58909h-2.76283a.59008.59008,0,0,0-.5891.5891v4.33336a.58931.58931,0,0,0,.5891.58909h12.2154a.59007.59007,0,0,0,.58909-.58909v-4.33336a.59084.59084,0,0,0-.58909-.5891h-2.76284a.58854.58854,0,0,1-.58909-.58909V137.05454a.583.583,0,0,1,.53372-.57967c19.04295-1.69658,34.19083-17.96843,35.27593-38.14127a.58333.58333,0,0,1,.58086-.55494h3.30831a.5893.5893,0,0,0,.58909-.58909V92.85621a.59007.59007,0,0,0-.58909-.58909H278.61776a.59007.59007,0,0,0-.58909.58909" fill="#a05325"/><path d="M466.80938,92.85621v4.33336a.5893.5893,0,0,0,.58909.58909h2.20909a.59953.59953,0,0,1,.59614.63271c-1.08865,17.04355-13.707,30.78-29.63365,32.51546a.59714.59714,0,0,1-.65622-.5938v-9.91912a.57958.57958,0,0,1,.49953-.57259c10.4116-1.55873,18.5764-10.45755,19.58257-21.52775a.58105.58105,0,0,1,.5773-.53491h2.96552a.59007.59007,0,0,0,.58909-.58909V92.85621a.59083.59083,0,0,0-.58909-.58909h-12.2166a.59007.59007,0,0,0-.58909.58909v4.33336a.5893.5893,0,0,0,.58909.58909h2.54251a.59855.59855,0,0,1,.59383.66334,18.1698,18.1698,0,0,1-13.83421,15.75582.59563.59563,0,0,1-.71045-.58672V98.36775a.58932.58932,0,0,1,.5891-.58909h2.76283a.59007.59007,0,0,0,.5891-.58909V92.85621a.59084.59084,0,0,0-.5891-.58909h-12.2154a.59007.59007,0,0,0-.58909.58909v4.33336a.5893.5893,0,0,0,.58909.58909h2.76284a.58931.58931,0,0,1,.58909.58909v15.2445a.59582.59582,0,0,1-.71163.58557A18.16953,18.16953,0,0,1,419.85526,98.442a.59877.59877,0,0,1,.595-.66334h2.60262a.58931.58931,0,0,0,.5891-.58909V92.85621a.59007.59007,0,0,0-.5891-.58909H410.83865a.59007.59007,0,0,0-.5891.58909v4.33336a.58931.58931,0,0,0,.5891.58909h2.90187a.58105.58105,0,0,1,.5773.53491c1.00617,11.0702,9.17215,19.969,19.58376,21.52775a.57959.57959,0,0,1,.50071.57259V130.333a.59814.59814,0,0,1-.65744.5938c-15.92664-1.73545-28.545-15.47191-29.63361-32.51546a.59952.59952,0,0,1,.59613-.63271h2.678a.5893.5893,0,0,0,.58909-.58909V92.85621a.59007.59007,0,0,0-.58909-.58909H395.17a.59007.59007,0,0,0-.58909.58909v4.33336a.5893.5893,0,0,0,.58909.58909h2.84061a.58332.58332,0,0,1,.58085.55494c1.08629,20.17284,16.233,36.44469,35.27593,38.14127a.58406.58406,0,0,1,.53491.57967v16.95758a.58854.58854,0,0,1-.58909.58909h-2.76284a.59007.59007,0,0,0-.58909.5891v4.33336a.5893.5893,0,0,0,.58909.58909h12.2154a.59007.59007,0,0,0,.5891-.58909v-4.33336a.59084.59084,0,0,0-.5891-.5891h-2.76283a.58855.58855,0,0,1-.5891-.58909V137.05454a.584.584,0,0,1,.53372-.57967c19.043-1.69658,34.19084-17.96843,35.27593-38.14127a.58334.58334,0,0,1,.58086-.55494h3.30832a.58931.58931,0,0,0,.58909-.58909V92.85621a.59007.59007,0,0,0-.58909-.58909H467.39847a.59007.59007,0,0,0-.58909.58909" fill="#a05325"/><rect x="438.65752" y="382.42212" width="1.17818" height="27.27423" fill="#303443"/></svg>